<svg xmlns="http://www.w3.org/2000/svg" width="711.456" height="657.122"><defs><clipPath id="a"><path d="M0 525.698h569.165v-525.698h-569.165v525.698z"/></clipPath></defs><g clip-path="url(#a)" transform="matrix(1.25 0 0 -1.25 0 657.122)"><path d="M284.584 473.057c131.916 0 238.856-123.118 238.857-274.995h45.724c-.001 180.949-127.413 327.637-284.581 327.637-157.171 0-284.584-146.688-284.584-327.637h45.724c0 151.877 106.941 274.995 238.86 274.995" fill="#189c5e"/><path d="M0 0c0-6.041-4.897-10.938-10.938-10.938h-114.852c-6.041 0-10.938 4.897-10.938 10.938v159.035c0 6.041 4.897 10.939 10.938 10.939h114.852c6.041 0 10.938-4.898 10.938-10.939v-159.035z" stroke="#189c5e" stroke-width="45" stroke-miterlimit="10" fill="none" transform="translate(158.945 33.037)"/><path d="M96.05 38.038c0-5.915 4.795-10.711 10.71-10.711 5.915 0 10.711 4.796 10.711 10.711v149.033c0 5.915-4.796 10.711-10.711 10.711s-10.71-4.796-10.71-10.711v-149.033z" fill="#189c5e"/><path d="M0 0c0-6.041 4.897-10.938 10.938-10.938h114.851c6.041 0 10.939 4.897 10.939 10.938v159.035c0 6.041-4.898 10.939-10.939 10.939h-114.851c-6.041 0-10.938-4.898-10.938-10.939v-159.035z" stroke="#189c5e" stroke-width="45" stroke-miterlimit="10" fill="none" transform="translate(410.525 33.037)"/><path d="M473.42 38.038c0-5.915-4.795-10.711-10.71-10.711-5.915 0-10.711 4.796-10.711 10.711v149.033c0 5.915 4.796 10.711 10.711 10.711s10.71-4.796 10.71-10.711v-149.033z" fill="#189c5e"/></g></svg>