<svg xmlns="http://www.w3.org/2000/svg" width="539.362" height="198.141"><g fill="#fff"><path d="M122.141 63.748c-7.433 0-14.574 1.228-21.256 3.458l-.214.073c-2.801 1.199-4.774 3.898-4.992 7.082-.013.189-.057.371-.057.564 0 .193.044.375.057.564v34.239c6.219-7.746 15.754-12.718 26.461-12.718 18.742 0 33.935 15.193 33.935 33.935s-15.193 33.935-33.935 33.935-33.934-15.193-33.934-33.935v-130.945h-33.261c-30.345 0-54.945 23.119-54.945 51.637 0 22.477 18.71 40.262 21.931 51.456 2.005 6.967-.046 20.86-1.12 23.363 2.428-3.358 11.116-10.533 11.116-28.401 0-13.546-7.672-24.593-7.596-37.85 0-15.889 13.706-26.922 30.613-26.922v97.663c0 37.112 30.085 67.196 67.196 67.196s67.197-30.084 67.197-67.196c.001-37.113-30.085-67.198-67.196-67.198zM313.033 63.443c-12.604 0-24.118 4.638-32.955 12.287-8.836-7.648-20.349-12.287-32.954-12.287-27.832 0-50.395 22.564-50.395 50.396v84.30300000000001h26.601c4.373 0 7.918-3.385 8.251-7.671.017-.217.065-.424.065-.645 0-.22-.048-.428-.065-.645v-75.342c0-8.584 6.958-15.543 15.543-15.543 8.457 0 15.319 6.756 15.523 15.162l-.01.382.01.38.019.763v83.15899999999999h26.551c4.541 0 8.218-3.644 8.301-8.164l.016-.151-.016-.151v-75.837l-.01-.381c.204-8.406 7.068-15.162 15.524-15.162 8.584 0 15.541 6.959 15.541 15.543v84.30199999999999h25.033c.489.091.988.151 1.503.151.516 0 1.016-.061 1.504-.151 3.873-.709 6.812-4.085 6.812-8.164v-76.13900000000001c.002-27.831-22.559-50.395-50.392-50.395zM488.969 63.443c-12.605 0-24.118 4.638-32.953 12.287-8.838-7.648-20.351-12.287-32.956-12.287-27.83 0-50.394 22.564-50.394 50.396v84.30300000000001h26.6c4.373 0 7.917-3.385 8.253-7.671.017-.217.064-.424.064-.645 0-.22-.048-.428-.064-.645v-75.342c0-8.584 6.958-15.543 15.541-15.543 8.456 0 15.321 6.756 15.523 15.162l-.009.382.009.38.02.763v83.15899999999999h26.551c4.54 0 8.219-3.644 8.302-8.164l.014-.151-.014-.151v-75.837l-.012-.381c.206-8.406 7.071-15.162 15.525-15.162 8.584 0 15.543 6.959 15.543 15.543v84.30199999999999h25.031c.489.091.987.151 1.504.151.516 0 1.014-.061 1.505-.151 3.872-.709 6.811-4.085 6.811-8.164v-76.13900000000001c-.001-27.831-22.562-50.395-50.394-50.395z"/></g></svg>