<svg xmlns="http://www.w3.org/2000/svg" width="195.072" height="195.061" viewBox="3.464 -0.161 195.072 195.061" enable-background="new 3.464 -0.161 195.072 195.061"><linearGradient id="a" gradientUnits="userSpaceOnUse" x1="-45.07" y1="587.529" x2="-45.07" y2="392.791" gradientTransform="translate(146.07 -392.791)"><stop offset="0" stop-color="#A6A8AB"/><stop offset="1" stop-color="#F1F1F2"/></linearGradient><path fill="url(#a)" d="M198.375 97.369c0 53.772-43.582 97.369-97.375 97.369-53.773 0-97.375-43.595-97.375-97.369s43.602-97.369 97.375-97.369c53.793 0 97.375 43.593 97.375 97.369z"/><path stroke="#A6A8AB" stroke-width=".322" d="M198.375 97.369c0 53.772-43.582 97.369-97.375 97.369-53.773 0-97.375-43.595-97.375-97.369s43.602-97.369 97.375-97.369c53.793 0 97.375 43.593 97.375 97.369z" fill="none"/><path fill="#009B5B" d="M144.055 97.369c0 23.769-19.27 43.049-43.055 43.049s-43.055-19.28-43.055-43.049c0-23.791 19.27-43.072 43.055-43.072 23.786 0 43.055 19.281 43.055 43.072z"/></svg>