<svg xmlns="http://www.w3.org/2000/svg" width="364.771" height="348.75" viewBox="108.094 74.259 364.771 348.75" enable-background="new 108.094 74.259 364.771 348.75"><g stroke="#222426" stroke-width="25" stroke-miterlimit="10" fill="none"><path d="M1379.652 1766.108c0-15.401-12.484-27.889-27.887-27.889h-93.273c-.702-3.078-1.021-6.34-.407-9.732 1.595-8.892 7.426-26.526 16.818-42.937 6.896-12.052 9.678-69.312-3.007-78.054-12.686-8.73-30.043-5.536-38.784 7.146l-15.775 57.604-31.338 45.49c-5.656 8.22-35.024 42.174-35.024 42.174v152.253l48.831 14.165h107.99799999999999c15.398 0 27.887-12.479 27.887-27.885 0-3.593-.743-7.003-1.979-10.159 12.211-2.964 21.308-13.891 21.308-27.018 0-8.123-3.522-15.366-9.068-20.465 12.815-2.517 22.484-13.783 22.484-27.337 0-8.206-3.604-15.507-9.238-20.604 11.768-3.266 20.454-13.942 20.454-26.752z"/><rect x="1039.88" y="1746.629" width="101.646" height="179.7"/></g><g stroke="#222426" stroke-width="25" stroke-miterlimit="10" fill="none"><path d="M460.365 250.289c0-15.4-12.483-27.887-27.887-27.887h-93.272c-.704-3.078-1.021-6.34-.409-9.734 1.596-8.891 7.427-26.525 16.82-42.935 6.896-12.052 9.678-69.312-3.008-78.054-12.685-8.73-30.043-5.536-38.783 7.147l-15.775 57.604-31.34 45.487c-5.657 8.22-35.025 42.174-35.025 42.174v152.253l48.831 14.165h107.99799999999999c15.399 0 27.887-12.479 27.887-27.885 0-3.593-.742-7.003-1.979-10.159 12.212-2.964 21.309-13.89 21.309-27.017 0-8.123-3.521-15.367-9.066-20.464 12.813-2.519 22.482-13.785 22.482-27.338 0-8.205-3.603-15.506-9.238-20.604 11.768-3.269 20.455-13.944 20.455-26.753z"/><rect x="120.594" y="230.809" width="101.646" height="179.7"/></g></svg>