<svg xmlns="http://www.w3.org/2000/svg" width="450.94" height="360.495" viewBox="80.004 122.145 450.94 360.495" enable-background="new 80.004 122.145 450.94 360.495"><path fill="#222426" d="M485.844 122.145h-360.74c-24.904 0-45.101 20.19-45.101 45.095v214.187c0 24.904 20.195 45.096 45.101 45.096h145.043c6.854 3.326 11.248 8.429 11.248 14.15 0 5.616-4.235 10.61-10.86 13.938-43.245 1.946-74.32 7.312-74.32 13.623 0 7.959 49.352 14.405 110.229 14.405 60.887 0 110.231-6.446 110.231-14.405 0-6.179-29.739-11.441-71.522-13.495-7.521-3.303-12.404-8.647-12.404-14.692 0-5.375 3.896-10.197 10.051-13.523h143.046c24.91 0 45.1-20.19 45.1-45.096v-214.188c-.004-24.904-20.192-45.095-45.102-45.095zm18.789 263.043h-398.323v-226.049h398.321l.002 226.049z"/></svg>