<svg xmlns="http://www.w3.org/2000/svg" width="195.072" height="195.061" viewBox="203.142 199.299 195.072 195.061" enable-background="new 203.142 199.299 195.072 195.061"><linearGradient id="a" gradientUnits="userSpaceOnUse" x1="300.539" y1="77.441" x2="300.539" y2="272.178" gradientTransform="matrix(1 0 0 -1 .14 471.638)"><stop offset="0" stop-color="#A6A8AB"/><stop offset="1" stop-color="#F1F1F2"/></linearGradient><path fill="url(#a)" d="M398.053 296.829c0 53.773-43.583 97.369-97.375 97.369-53.774 0-97.375-43.595-97.375-97.369s43.601-97.369 97.375-97.369c53.792 0 97.375 43.593 97.375 97.369z"/><path stroke="#A6A8AB" stroke-width=".322" d="M398.053 296.829c0 53.773-43.583 97.369-97.375 97.369-53.774 0-97.375-43.595-97.375-97.369s43.601-97.369 97.375-97.369c53.792 0 97.375 43.593 97.375 97.369z" fill="none"/><path fill="#EDEDED" d="M343.733 296.829c0 23.769-19.27 43.049-43.055 43.049-23.786 0-43.055-19.28-43.055-43.049 0-23.791 19.269-43.072 43.055-43.072s43.055 19.281 43.055 43.072z"/></svg>