<svg xmlns="http://www.w3.org/2000/svg" width="456.915" height="348.453" viewBox="76.292 146.796 456.915 348.453" enable-background="new 76.292 146.796 456.915 348.453"><path stroke="#009B5B" stroke-width="25" stroke-miterlimit="10" d="M455.588 164.411l-24.195 28.459c32.535 27.631 51.947 74.776 51.947 126.102 0 53.02-21.363 102.527-55.781 129.209l22.897 29.531c44.003-34.105 70.251-93.463 70.251-158.74 0-62.152-24.35-119.935-65.119-154.561zm-104.156 96.846l-26.249 26.597c7.185 7.099 11.467 18.722 11.467 31.118 0 14.041-5.63 27.219-14.333 33.572l22.035 30.188c18.582-13.572 29.669-37.404 29.669-63.76 0-22.502-8.237-43.553-22.589-57.715zm-262.64-3.453v128.24l83.065.555 98.375 81.961v-292.717l-98.375 81.961h-83.065zm311.169-48.51l-24.453 28.252c20.653 17.875 32.983 48.32 32.983 81.426 0 34.244-13.605 66.229-35.472 83.498l23.142 29.34c31.119-24.537 49.701-66.729 49.701-112.838 0-43.795-17.166-84.81-45.901-109.678z" fill="none"/></svg>