<svg xmlns="http://www.w3.org/2000/svg" xmlns:xlink="http://www.w3.org/1999/xlink" width="1038.103" height="1038.102" viewBox="-26.296 -45.398 1038.103 1038.102" enable-background="new -26.296 -45.398 1038.103 1038.102"><rect x="-26.295" y="-46.398" fill="#ED8F83" width="1038.103" height="1038.102"/><defs><rect id="a" x="6.863" y="-7.395" width="966.097" height="966.097"/></defs><clipPath id="b"><use xlink:href="#a" overflow="visible"/></clipPath><g clip-path="url(#b)"><radialGradient id="c" cx="364.66" cy="441.079" r="631.975" gradientTransform="matrix(1.648 0 0 -1.177 -111.51 1003.497)" gradientUnits="userSpaceOnUse"><stop offset=".461" stop-color="#F79470"/><stop offset=".55" stop-color="#F78F6C"/><stop offset=".65" stop-color="#F68260"/><stop offset=".754" stop-color="#F56C4B"/><stop offset=".861" stop-color="#F34D2F"/><stop offset=".927" stop-color="#F2361A"/></radialGradient><rect x="-1.079" y="-10.923" fill="url(#c)" width="980.84" height="990.716"/><path fill="#F76947" d="M248.549 505.118c-110.373-188.337-117.553-385.703-19.055-516.041h-5.636c-47.182 63.323-70.597 144.146-67.75 234.151 2.918 92.208 33.298 190.152 87.854 283.247 103.417 176.476 130.63 335.699 80.924 473.317h5.126c49.544-138.174 22.159-297.846-81.463-474.674zm-18.343 7.813c-58.995-100.674-90.218-205.808-90.296-304.038-.066-82.89 22.556-158.816 65.426-219.814h-5.544c-42.503 61.216-64.916 137.092-64.85 219.817.076 98.69 31.434 204.294 90.677 305.394 102.188 174.37 128.31 330.965 77.69 465.506h5.146c50.439-135.105 24.134-292.157-78.249-466.865zm-43.997-7.813c-110.372-188.339-117.55-385.704-19.053-516.041h-5.636c-47.18 63.324-70.596 144.147-67.748 234.152 2.916 92.207 33.295 190.151 87.852 283.247 103.417 176.474 130.627 335.696 80.92 473.317h5.123c49.552-138.178 22.165-297.849-81.458-474.675zm-20.783 0c-110.368-188.34-117.545-385.706-19.05-516.041h-5.635c-47.18 63.323-70.597 144.146-67.749 234.152 2.917 92.206 33.294 190.151 87.849 283.247 103.419 176.471 130.631 335.694 80.929 473.317h5.124c49.546-138.18 22.156-297.854-81.468-474.675zm-18.335 7.813c-58.994-100.666-90.219-205.801-90.299-304.038-.064-82.89 22.557-158.818 65.427-219.814h-5.545c-42.503 61.215-64.917 137.091-64.849 219.817.08 98.698 31.438 204.301 90.68 305.394 102.188 174.373 128.307 330.968 77.688 465.506h5.146c50.442-135.103 24.136-292.155-78.248-466.865zm122.24-7.813c-110.373-188.336-117.555-385.7-19.059-516.041h-5.638c-47.178 63.323-70.594 144.146-67.744 234.151 2.917 92.208 33.298 190.153 87.854 283.247 103.413 176.476 130.621 335.699 80.914 473.317h5.124c49.551-138.174 22.168-297.846-81.451-474.674zm-59.902 7.813c-58.997-100.673-90.22-205.808-90.296-304.038-.064-82.889 22.557-158.815 65.426-219.814h-5.545c-42.501 61.217-64.914 137.093-64.848 219.817.074 98.69 31.431 204.294 90.677 305.394 102.183 174.366 128.3 330.961 77.679 465.506h5.146c50.446-135.11 24.141-292.162-78.239-466.865zm184.573-7.813c-110.369-188.34-117.546-385.704-19.047-516.041h-5.634c-47.183 63.323-70.601 144.146-67.754 234.151 2.916 92.207 33.293 190.151 87.848 283.247 103.419 176.476 130.628 335.699 80.922 473.317h5.121c49.551-138.176 22.164-297.848-81.456-474.674zm-101.454 7.813c-58.994-100.672-90.218-205.806-90.295-304.038-.068-82.891 22.554-158.818 65.428-219.814h-5.545c-42.503 61.215-64.918 137.091-64.851 219.817.076 98.693 31.433 204.296 90.675 305.394 102.182 174.368 128.299 330.963 77.68 465.506h5.146c50.441-135.108 24.141-292.159-78.238-466.865zm124.673 0c-58.993-100.666-90.219-205.801-90.299-304.038-.066-82.89 22.557-158.818 65.426-219.814h-5.545c-42.502 61.216-64.916 137.092-64.848 219.817.079 98.698 31.437 204.301 90.679 305.394 102.187 174.373 128.308 330.968 77.687 465.506h5.146c50.444-135.103 24.139-292.155-78.246-466.865zm18.34-7.813c-110.373-188.339-117.551-385.704-19.052-516.041h-5.635c-47.182 63.323-70.596 144.146-67.75 234.151 2.918 92.207 33.295 190.151 87.852 283.247 103.418 176.474 130.627 335.696 80.921 473.317h5.122c49.553-138.177 22.165-297.848-81.458-474.674zm-124.677 0c-110.371-188.341-117.55-385.705-19.048-516.041h-5.638c-47.182 63.322-70.6 144.146-67.751 234.151 2.918 92.206 33.296 190.151 87.853 283.247 103.418 176.474 130.627 335.696 80.922 473.317h5.125c49.547-138.177 22.163-297.848-81.463-474.674zm41.556 0c-110.364-188.34-117.543-385.705-19.048-516.041h-5.636c-47.178 63.322-70.595 144.146-67.748 234.151 2.915 92.206 33.293 190.151 87.848 283.247 103.418 176.471 130.632 335.694 80.925 473.317h5.122c49.547-138.177 22.164-297.851-81.463-474.674zm-18.338 7.813c-58.998-100.672-90.222-205.806-90.299-304.038-.063-82.885 22.558-158.812 65.426-219.814h-5.545c-42.502 61.221-64.914 137.097-64.847 219.817.076 98.693 31.433 204.296 90.679 305.394 102.186 174.375 128.306 330.97 77.691 465.506h5.145c50.44-135.101 24.132-292.152-78.25-466.865zm41.559 0c-58.995-100.673-90.22-205.808-90.297-304.038-.062-82.89 22.559-158.816 65.428-219.814h-5.547c-42.498 61.216-64.912 137.093-64.848 219.817.076 98.69 31.433 204.294 90.677 305.394 102.187 174.375 128.308 330.97 77.688 465.506h5.144c50.442-135.101 24.139-292.152-78.245-466.865zm-381.682 162.265v16.537c30.024 102.273 30.08 197.165 0 283.607v4.453h3.557c33.122-92.36 31.859-194.328-3.557-304.597zm0-99.458v10.815c69.511 145.568 82.72 277.554 39.194 393.24h5.146c44.321-118.715 29.384-254.371-44.34-404.055zm0 184.38v37.941c2.561 27.863 2.553 55.044 0 81.528v35.433c9.19-49.139 9.176-100.834 0-154.902zm0-141.302v12.777c50.366 127.208 56.886 243.909 19.217 348.2h5.125c38.692-107.906 30.468-228.923-24.342-360.977zm1.308-629.739c-.443.595-.87 1.202-1.31 1.802v7.79c2.26-3.232 4.562-6.438 6.946-9.592h-5.636zm17.495 0c-6.784 9.774-13.053 19.925-18.803 30.413v10.031c7.207-14.09 15.323-27.602 24.349-40.444h-5.546zm20.774 0c-16.133 23.24-29.364 48.599-39.577 75.637v14.426c10.853-32.528 25.957-62.792 45.125-90.063h-5.548zm-39.577 546.914v9.752c87.351 161.789 107.533 307.655 59.982 434.051h5.146c48.208-129.129 26.299-278.311-65.128-443.803zm69.992-23.06c-31.334-53.472-54.835-108.204-69.993-162.491v17.172c15.202 49.09 37.116 98.396 65.407 146.678 102.188 174.375 128.309 330.97 77.69 465.506h5.143c50.444-135.101 24.138-292.152-78.247-466.865zm18.344-7.813c-110.371-188.339-117.552-385.703-19.053-516.041h-5.637c-33.499 44.964-55.005 98.758-63.646 158.392v124.979c10.291 77.355 38.808 157.335 83.75 234.028 103.416 176.476 130.625 335.699 80.921 473.316h5.124c49.545-138.176 22.161-297.846-81.459-474.674zm20.777 0c-110.37-188.339-117.546-385.704-19.048-516.041h-5.634c-47.182 63.324-70.6 144.147-67.752 234.152 2.915 92.207 33.292 190.151 87.846 283.247 103.42 176.476 130.629 335.699 80.923 473.317h5.121c49.55-138.177 22.166-297.849-81.456-474.675zm23.218 7.813c-58.995-100.671-90.219-205.806-90.296-304.038-.065-82.886 22.557-158.813 65.423-219.815h-5.545c-42.499 61.22-64.912 137.096-64.845 219.818.076 98.693 31.434 204.296 90.679 305.394 102.181 174.363 128.301 330.957 77.689 465.506h5.146c50.434-135.112 24.129-292.164-78.251-466.865zm-83.111 0c-19.482-33.249-35.916-66.984-49.22-100.796v12.784c12.453 29.983 27.346 59.867 44.635 89.37 102.179 174.363 128.294 330.957 77.677 465.506h5.144c50.442-135.111 24.141-292.163-78.236-466.864zm-44.004-7.813c-1.766-3.014-3.502-6.029-5.216-9.049v9.311l.63 1.097c103.42 176.479 130.631 335.703 80.928 473.316h5.124c49.547-138.17 22.158-297.844-81.466-474.675zm20.777 0c-9.425-16.082-18.078-32.23-25.994-48.397v10.504c6.663 13.157 13.791 26.254 21.408 39.251 103.419 176.471 130.632 335.694 80.924 473.317h5.124c49.55-138.178 22.163-297.852-81.462-474.675zm664.941 0c-110.373-188.339-117.553-385.703-19.054-516.041h-5.636c-47.179 63.323-70.598 144.146-67.75 234.151 2.919 92.208 33.297 190.151 87.854 283.247 103.412 176.476 130.623 335.699 80.921 473.317h5.123c49.546-138.176 22.162-297.846-81.458-474.674zm288.472 474.676c.489-1.309.955-2.623 1.432-3.936v-15.02c-2.026 6.363-4.219 12.684-6.577 18.954l5.145.002zm-189.32-770.901c-.063-82.888 22.558-158.815 65.431-219.814h-5.544c-42.504 61.218-64.919 137.094-64.852 219.817.076 98.693 31.434 204.297 90.676 305.394 102.187 174.373 128.31 330.968 77.69 465.506h5.146c11.154-29.881 18.55-60.831 22.205-92.812v-96.614c-9.307-86.377-42.83-179.108-100.451-277.438-58.996-100.672-90.219-205.806-90.301-304.039zm20.783 0c-.066-82.891 22.559-158.818 65.43-219.814h-5.545c-42.502 61.215-64.918 137.091-64.851 219.817.077 98.693 31.435 204.296 90.677 305.394 39.43 67.281 67.519 131.912 84.258 193.654v-17.675c-17.158-56.812-43.719-115.984-79.672-177.338-58.991-100.672-90.219-205.806-90.297-304.038zm46.297 296.225c-110.37-188.339-117.55-385.703-19.054-516.041h-5.636c-47.179 63.323-70.598 144.146-67.75 234.151 2.919 92.208 33.299 190.152 87.854 283.247 103.416 176.476 130.629 335.699 80.926 473.317h5.126c49.545-138.174 22.157-297.846-81.466-474.674zm-39.115 7.813c-58.999-100.673-90.224-205.808-90.296-304.038-.068-82.889 22.556-158.815 65.426-219.814h-5.545c-42.503 61.217-64.914 137.093-64.852 219.817.074 98.69 31.434 204.294 90.68 305.394 102.182 174.366 128.301 330.961 77.679 465.506h5.146c50.444-135.11 24.141-292.162-78.238-466.865zm18.336-7.813c-110.371-188.34-117.547-385.704-19.051-516.041h-5.637c-47.179 63.323-70.598 144.146-67.75 234.151 2.919 92.207 33.295 190.151 87.853 283.247 103.418 176.474 130.626 335.696 80.917 473.317h5.124c49.554-138.177 22.168-297.851-81.456-474.674zm-39.12 7.813c-58.995-100.673-90.22-205.808-90.296-304.038-.068-82.887 22.556-158.813 65.426-219.814h-5.542c-42.502 61.22-64.917 137.096-64.854 219.817.076 98.69 31.433 204.294 90.679 305.394 102.188 174.373 128.307 330.968 77.688 465.506h5.146c50.443-135.103 24.137-292.155-78.247-466.865zm103.184-523.854h-5.635c-47.179 63.323-70.598 144.146-67.749 234.151 2.919 92.207 33.298 190.151 87.853 283.247 27.284 46.555 49.256 91.909 65.918 135.981v-13.256c-16.063-40.337-36.504-81.718-61.332-124.083-110.37-188.337-117.551-385.703-19.055-516.04zm30.516 234.153c2.149 67.937 19.223 138.985 49.872 208.916v-11.868c-60.585-144.378-60.952-287.382 0-395.308v-9.148c-35.16 58.701-52.335 129.619-49.872 207.408zm49.871 157.495v-15.973c-16.133-52.75-24.471-105.223-24.513-155.859-.042-50.399 8.323-98.218 24.513-141.681v-13.113c-19.446 46.954-29.522 99.333-29.479 154.796.047 55.756 10.081 113.719 29.479 171.83zm-2.909-391.648c-47.175 63.323-70.595 144.146-67.746 234.151 2.594 82.006 26.931 168.547 70.655 252.182v-10.231c-88.156-174.115-88.803-351.32 0-472.397v-3.704h-2.909zm-104.722 219.816c-.064-82.889 22.557-158.815 65.429-219.814h-5.545c-42.502 61.217-64.916 137.093-64.851 219.817.078 98.695 31.437 204.298 90.68 305.394 7.746 13.217 15.049 26.328 21.918 39.34v-9.937c-5.516-10.19-11.285-20.444-17.332-30.762-58.994-100.67-90.22-205.804-90.299-304.038zm48.028-219.816h-5.639c-47.178 63.322-70.598 144.146-67.749 234.151 2.916 92.206 33.295 190.151 87.851 283.247 17.146 29.259 32.188 58.041 45.142 86.333v-11.234c-11.893-25.109-25.4-50.6-40.556-76.456-110.375-188.34-117.551-385.705-19.049-516.041zm59.603 311.635v-32.487c-2.451-19.99-3.72-39.798-3.735-59.332-.013-19.578 1.252-38.76 3.735-57.455v-29.479c-5.778 27.832-8.728 56.931-8.705 86.938.026 30.07 2.967 60.784 8.705 91.815zm-21.43-311.635h-5.545c-42.502 61.221-64.913 137.097-64.847 219.817.077 98.693 31.433 204.296 90.679 305.394l1.144 1.971v-9.3c-56.757-98.854-86.781-201.774-86.855-298.066-.066-82.885 22.555-158.813 65.424-219.816zm-185.36 516.041c-110.367-188.34-117.548-385.706-19.053-516.041h-5.635c-47.178 63.322-70.597 144.146-67.749 234.151 2.919 92.206 33.295 190.151 87.85 283.247 103.418 176.471 130.631 335.694 80.93 473.317h5.122c49.548-138.179 22.157-297.853-81.465-474.674zm-226.132 7.813c-58.995-100.673-90.219-205.808-90.295-304.038-.066-82.887 22.556-158.813 65.424-219.814h-5.541c-42.502 61.22-64.918 137.096-64.852 219.817.077 98.69 31.432 204.294 90.677 305.394 102.188 174.373 128.308 330.968 77.688 465.506h5.146c50.441-135.103 24.137-292.155-78.247-466.865zm18.341-7.813c-110.369-188.34-117.548-385.704-19.053-516.041h-5.635c-47.179 63.323-70.596 144.146-67.747 234.151 2.917 92.207 33.293 190.151 87.849 283.247 103.419 176.474 130.625 335.696 80.918 473.317h5.123c49.552-138.177 22.167-297.851-81.455-474.674zm23.219 7.813c-58.996-100.671-90.219-205.805-90.296-304.038-.068-82.888 22.553-158.815 65.425-219.814h-5.544c-42.504 61.218-64.918 137.094-64.85 219.817.076 98.693 31.436 204.297 90.678 305.394 102.184 174.373 128.306 330.968 77.688 465.506h5.146c50.437-135.103 24.136-292.155-78.247-466.865zm-83.119 0c-58.995-100.675-90.219-205.81-90.294-304.038-.068-82.888 22.555-158.815 65.425-219.814h-5.545c-42.503 61.218-64.915 137.094-64.849 219.817.076 98.689 31.433 204.292 90.677 305.394 102.187 174.373 128.309 330.968 77.688 465.506h5.144c50.442-135.103 24.139-292.155-78.246-466.865zm-23.212-7.813c-110.374-188.336-117.555-385.7-19.061-516.041h-5.636c-47.178 63.323-70.593 144.146-67.745 234.151 2.918 92.208 33.299 190.153 87.854 283.247 103.411 176.476 130.621 335.699 80.914 473.317h5.122c49.553-138.174 22.169-297.846-81.448-474.674zm124.67 0c-110.37-188.34-117.547-385.704-19.051-516.041h-5.635c-47.183 63.323-70.598 144.146-67.75 234.151 2.916 92.207 33.296 190.151 87.851 283.247 103.419 176.474 130.626 335.696 80.918 473.317h5.124c49.551-138.177 22.169-297.848-81.457-474.674zm-83.116 0c-110.371-188.338-117.548-385.703-19.054-516.041h-5.635c-47.179 63.323-70.595 144.146-67.748 234.151 2.918 92.208 33.296 190.152 87.853 283.247 103.415 176.476 130.626 335.699 80.917 473.317h5.123c49.55-138.176 22.167-297.846-81.456-474.674zm210.232 7.813c-58.997-100.671-90.224-205.806-90.296-304.038-.068-82.886 22.553-158.812 65.422-219.814h-5.545c-42.499 61.22-64.911 137.096-64.847 219.817.076 98.693 31.433 204.296 90.679 305.394 102.182 174.363 128.304 330.957 77.688 465.506h5.146c50.438-135.112 24.133-292.164-78.247-466.865zm-103.893 0c-58.995-100.669-90.223-205.804-90.299-304.038-.067-82.889 22.557-158.815 65.425-219.814h-5.543c-42.5 61.217-64.916 137.093-64.851 219.817.08 98.695 31.436 204.298 90.683 305.394 102.181 174.363 128.299 330.961 77.677 465.506h5.146c50.442-135.11 24.142-292.162-78.238-466.865zm83.113 0c-58.996-100.675-90.222-205.81-90.296-304.038-.067-82.888 22.554-158.815 65.426-219.814h-5.545c-42.503 61.218-64.918 137.094-64.85 219.817.077 98.689 31.433 204.292 90.679 305.394 102.188 174.373 128.307 330.968 77.688 465.506h5.146c50.442-135.103 24.135-292.155-78.248-466.865zm39.121-7.813c-110.371-188.338-117.551-385.703-19.053-516.041h-5.635c-47.183 63.323-70.598 144.146-67.75 234.151 2.916 92.208 33.296 190.152 87.851 283.247 103.416 176.476 130.627 335.699 80.919 473.317h5.123c49.553-138.176 22.166-297.846-81.455-474.674zm-288.471 7.813c-58.996-100.674-90.22-205.808-90.297-304.038-.067-82.89 22.556-158.816 65.427-219.814h-5.544c-42.504 61.216-64.917 137.092-64.852 219.817.077 98.69 31.434 204.294 90.678 305.394 102.188 174.37 128.308 330.965 77.69 465.506h5.144c50.442-135.105 24.136-292.157-78.246-466.865zm184.57-7.813c-110.369-188.34-117.55-385.704-19.054-516.041h-5.636c-47.178 63.323-70.594 144.146-67.749 234.151 2.919 92.207 33.299 190.151 87.854 283.247 103.419 176.479 130.632 335.703 80.929 473.317h5.121c49.548-138.169 22.16-297.843-81.465-474.674zm23.227 7.813c-58.996-100.676-90.224-205.81-90.299-304.038-.068-82.887 22.556-158.814 65.425-219.814h-5.544c-42.5 61.219-64.915 137.095-64.85 219.817.079 98.689 31.436 204.292 90.678 305.394 102.184 174.363 128.296 330.957 77.68 465.506h5.145c50.441-135.112 24.141-292.164-78.235-466.865z"/></g><path fill="#fff" d="M666.084 94.895c1.816 60.829 4.149 132.23 9.89 214.171 3.512 50.157 11.287 108.23-13.182 144.98-19.601 29.433-104.174 54.183-115.328 0-9.58-46.607 30.105-80.173 72.492-75.785-4.076-53.029-5.638-108.589-6.583-164.749-50.452 3.386-116.08 20.111-168.046 32.949-12.885 64.98 15.15 199.413-19.776 250.421-23.952 34.986-105.381 61.881-128.495 16.474-18.272-35.894 38.091-107.896 95.555-95.556.958-77.424 1.341-182.862 6.582-266.892 93.354-14.279 167.095-48.18 266.891-56.013zm-82.374 98.848c23.288-14.055 26.393-48.297 52.717-59.311-2.889 24.565-19.166 35.75-26.352 56.016 8.286 5.985 22.578 5.982 23.061 19.769-.147 58.365-.925 117.344 3.291 171.339-5.799 2.983-5.436 12.13-13.172 13.18-37.937.509-56.687 20.191-56.016 59.311 42.159 36.05 89.814-13.659 95.553-59.311 7.656-60.899-20.981-151.362-13.179-210.877-4.438-5.285-13.997 12.167-26.358 9.885 14.278-20.862 33.538-36.749 26.358-79.079-17.021 2.748-30.803 8.733-49.426 9.884-1.313 14.376-11.282 26.644-19.771 39.538-6.408 9.741-27.002 29.801-16.478 32.952 20.646-20.015 32.525-66.299 59.313-69.195-9.033 26.106-25.967 44.317-39.541 65.899zm-52.711 9.886c18.764-10.455 34.363-41.888 46.121-59.312 2.869-4.236 18.904-14.922 6.59-16.475-24.717 18.118-34.034 51.629-52.711 75.787zm-26.365 3.294c18.677-.104 21.163-23.299 29.656-36.247 8.48-12.942 24.857-24.073 23.067-36.243-25.916 15.821-33.974 49.503-52.723 72.49zm3.292-59.31c-5.784 29.352-25.527 44.757-36.247 69.194 34.457-9.481 36.771-51.099 59.32-72.49-11.436-2.641-12.67 4.907-23.073 3.296zm-59.3 13.179c-12.511 23.741-23.771 48.726-39.539 69.195-5.577 67.401 11.758 158.275-9.896 207.584-51.074-.556-79.169 21.868-82.374 69.195 48.414 27.006 102.754-8.839 112.031-52.721 12.287-58.137-9.412-145.576 3.299-207.585-.832-7.907-17.456 12.689-19.776 3.298 17.229-25.635 31.562-71.662 52.718-82.374-4.451 24.099-18.247 38.854-26.358 59.306 29.054-17.087 38.413-53.853 62.605-75.783-18.75 2.115-32.52 9.214-52.71 9.885zm-42.845 9.884c9.674 4.615-3.063 31.631 6.59 36.247 2.22-16.535 24.729-30.086 19.776-42.837-1.461 9.52-24.904-2.925-26.366 6.59z"/><rect x="160.303" y="584.851" width="654.822" height="287.834" fill="none"/><text transform="translate(217.653 765.089)" fill="#fff" font-family="'ChildishKid'" font-size="200">Barnas</text><text transform="translate(275.765 882.859)" fill="#fff" font-family="'Bauhaus93'" font-size="85.298">MP3-Kilden</text></svg>