<svg xmlns="http://www.w3.org/2000/svg" width="369.716" height="373.716" viewBox="0 0 369.71619 373.71619" enable-background="new 0 0 450.943 360.496"><path d="M.5 6.61l3.055 363.551 281.065 3.055 3.055-274.955-85.541-97.762z" fill="#c4c8b7" stroke="#000"/><path d="M202.133.5l-15.385 86.202 99.762 10.615z" stroke="#000" fill="none"/><path d="M357.28 361.941l-167.697-143.037-36.33-41.211 48.156 24.11 167.808 143.982z" fill="#decd87" stroke="#000"/><path d="M166.748 183.441l-1.165 9.638-12.803-16.149z" fill="#483e37" stroke="#000"/><path d="M56.13 109.157l120.974-4.321" fill="#fff9f6" stroke="#fff"/><path d="M73.412 199.888c5.761 1.44 11.459 3.156 17.282 4.321 1.795.359 17.282-.348 17.282 0 0 1.44-5.761 0-4.321 0h21.602" stroke="#fff" fill="none"/><path d="M181.424 286.298c-4.08-19.322-18.194 3.864-25.923 0l-4.321-4.32c-1.314-.657-14.299 0-17.282 0h-43.205c-4.733 0-17.064-.436-17.282 0v8.641c-.644 1.288-2.88 0-4.321 0h-4.321" stroke="#fff" fill="none"/></svg>