<svg xmlns="http://www.w3.org/2000/svg" width="1038.103" height="1038.102" viewBox="-26.296 -45.398 1038.103 1038.102" enable-background="new -26.296 -45.398 1038.103 1038.102"><rect x="-26.296" y="-45.398" fill="#91CBCE" width="1038.103" height="1038.102"/><rect x="14.574" y="-3.35" fill="#6EB7B7" width="958.909" height="958.918"/><g opacity=".59" fill="#91CBCE"><rect x="15.738" y="52.755" width="955.583" height="8.425"/><path d="M201.835 56.97c0 10.01-8.111 18.127-18.123 18.127h-64.44c-10.011 0-18.127-8.117-18.127-18.127 0-10.021 8.116-18.134 18.127-18.134h64.44c10.012 0 18.123 8.112 18.123 18.134zM888.552 56.97c0 10.01-8.111 18.127-18.121 18.127h-64.439c-10.014 0-18.123-8.117-18.123-18.127 0-10.021 8.109-18.134 18.123-18.134h64.439c10.009 0 18.121 8.112 18.121 18.134z"/><rect x="15.738" y="330.565" width="955.583" height="8.419"/><path d="M326.691 334.774c0 10.013-8.11 18.133-18.123 18.133h-64.438c-10.012 0-18.123-8.12-18.123-18.133 0-10.011 8.111-18.128 18.123-18.128h64.438c10.012 0 18.123 8.117 18.123 18.128z"/><rect x="15.738" y="469.466" width="955.583" height="8.419"/><path d="M842.241 473.676c0 10.021-8.117 18.133-18.129 18.133h-64.439c-10.012 0-18.123-8.111-18.123-18.133 0-10.018 8.111-18.123 18.123-18.123h64.439c10.012 0 18.129 8.105 18.129 18.123z"/><rect x="15.738" y="608.379" width="955.583" height="8.407"/><path d="M620.714 612.576c0 10.021-8.117 18.134-18.123 18.134h-64.445c-10.012 0-18.123-8.111-18.123-18.134 0-10.011 8.111-18.127 18.123-18.127h64.445c10.005 0 18.123 8.118 18.123 18.127zM207.878 612.576c0 10.021-8.117 18.134-18.128 18.134h-64.44c-10.011 0-18.123-8.111-18.123-18.134 0-10.011 8.112-18.127 18.123-18.127h64.44c10.011 0 18.128 8.118 18.128 18.127z"/><rect x="15.738" y="747.281" width="955.583" height="8.419"/><path d="M483.778 751.485c0 10.018-8.117 18.133-18.128 18.133h-64.444c-10.006 0-18.123-8.116-18.123-18.133s8.116-18.127 18.123-18.127h64.444c10.01 0 18.128 8.11 18.128 18.127z"/><rect x="15.738" y="886.183" width="955.583" height="8.419"/><path d="M326.691 890.392c0 10.012-8.11 18.133-18.123 18.133h-64.438c-10.012 0-18.123-8.121-18.123-18.133 0-10.021 8.111-18.133 18.123-18.133h64.438c10.012 0 18.123 8.11 18.123 18.133zM755.641 890.392c0 10.012-8.115 18.133-18.123 18.133h-64.443c-10.008 0-18.123-8.121-18.123-18.133 0-10.021 8.115-18.133 18.123-18.133h64.443c10.008 0 18.123 8.11 18.123 18.133z"/><rect x="15.738" y="191.662" width="955.583" height="8.419"/><path d="M580.438 195.872c0 10.015-8.111 18.132-18.123 18.132h-64.439c-10.012 0-18.122-8.117-18.122-18.132 0-10.018 8.109-18.135 18.122-18.135h64.439c10.012.002 18.123 8.119 18.123 18.135zM135.378 195.872c0 10.015-8.112 18.132-18.118 18.132h-64.446c-10.011 0-18.127-8.117-18.127-18.132 0-10.018 8.116-18.135 18.127-18.135h64.446c10.006.002 18.118 8.119 18.118 18.135z"/></g><path fill="#fff" d="M820.44 369.42l-2.572-17.387-1.605-17.508-3.711-2.409s-6.299.896-15.084 2.156l-.211-1.772s4.271-.305 3.902-3.398c-.371-3.096-2.455-4.312-6.492-3.829-4.035.483-5.516 2.545-5.193 5.229.32 2.683 4.832 2.56 4.832 2.56l.197 1.642c-5.893.847-12.617 1.817-19.211 2.775l-.275-2.312s4.275-.305 3.904-3.399-2.457-4.312-6.492-3.828c-4.039.483-5.518 2.544-5.197 5.229.322 2.684 4.838 2.561 4.838 2.561l.262 2.187c-7.174 1.047-14 2.052-19.201 2.839l-.352-2.921s4.271-.306 3.902-3.4c-.373-3.095-2.455-4.312-6.492-3.828-4.037.484-5.514 2.544-5.191 5.229.32 2.684 4.832 2.561 4.832 2.561l.336 2.813c-.996.153-1.902.297-2.699.424-14.566 2.312-18.031 6.727-18.031 6.727l-191.836 18.979s-13.375-92.595-72.792-50.083c-59.421 42.513-40.383-22.566-119.176-13.129-78.798 9.438-64.211 112.167-64.211 112.167s10.086 103.265 88.883 93.826c78.793-9.438 44.927-68.179 112.704-40.903 67.778 27.278 58.907-65.856 58.907-65.856l190.891-26.858s4.41 3.469 19.111 2.278c.805-.063 1.719-.143 2.725-.229l.336 2.813s-4.41.946-4.092 3.633c.32 2.685 2.244 4.337 6.281 3.853 4.037-.483 5.773-2.157 5.402-5.253-.371-3.097-4.594-2.381-4.594-2.381l-.35-2.925c5.24-.462 12.113-1.098 19.33-1.772l.26 2.184s-4.416.945-4.094 3.632c.322 2.685 2.246 4.338 6.285 3.854 4.033-.482 5.773-2.158 5.402-5.254l-4.598-2.379-.279-2.317c6.639-.624 13.396-1.271 19.322-1.837l.199 1.641s-4.416.944-4.094 3.63c.322 2.685 2.246 4.337 6.283 3.854 4.035-.483 5.773-2.156 5.402-5.253l-4.594-2.38-.213-1.777c8.834-.847 15.166-1.465 15.166-1.465l3.038-3.234zm-364.714 58.914c-18.845 0-34.12-15.275-34.12-34.119 0-18.843 15.275-34.12 34.12-34.12 18.844 0 34.119 15.277 34.119 34.12 0 18.844-15.275 34.119-34.119 34.119z"/><g stroke="#fff" stroke-width="3" stroke-miterlimit="10" fill="none"><line x1="349.666" y1="388.634" x2="564.468" y2="366.276"/><line x1="350.511" y1="396.763" x2="572.552" y2="373.652"/><line x1="344.223" y1="406.662" x2="554.2" y2="384.807"/><line x1="342.656" y1="415.043" x2="538.149" y2="394.695"/><line x1="343.608" y1="424.19" x2="551.169" y2="402.584"/></g><rect x="90.312" y="515.314" width="812" height="188" fill="none"/><text transform="translate(104.416 626.712)" fill="#fff" font-family="'SantaFeLetPlain'" font-size="200">Instrumental</text></svg>