<svg xmlns="http://www.w3.org/2000/svg" width="364.771" height="348.749" viewBox="108.094 74.259 364.771 348.749" enable-background="new 108.094 74.259 364.771 348.749"><g stroke="#222426" stroke-width="25" stroke-miterlimit="10" fill="none"><path d="M1379.652 1766.109c0-15.402-12.484-27.889-27.887-27.889h-93.274c-.703-3.078-1.021-6.34-.408-9.732 1.597-8.893 7.428-26.525 16.819-42.938 6.896-12.053 9.678-69.311-3.007-78.055-12.686-8.729-30.043-5.535-38.784 7.146l-15.774 57.604-31.338 45.488c-5.656 8.221-35.024 42.176-35.024 42.176v152.252l48.831 14.166h107.99799999999999c15.397 0 27.887-12.48 27.887-27.887 0-3.594-.743-7.002-1.98-10.158 12.213-2.965 21.311-13.891 21.311-27.018 0-8.123-3.521-15.367-9.068-20.465 12.815-2.518 22.484-13.783 22.484-27.336 0-8.207-3.604-15.508-9.238-20.604 11.767-3.266 20.452-13.942 20.452-26.75z"/><rect x="1039.881" y="1746.63" width="101.646" height="179.699"/></g><g stroke="#009B5B" stroke-width="25" stroke-miterlimit="10" fill="none"><path d="M460.365 250.289c0-15.399-12.482-27.887-27.887-27.887h-93.273c-.703-3.078-1.021-6.34-.408-9.734 1.596-8.89 7.427-26.524 16.819-42.935 6.896-12.052 9.679-69.312-3.008-78.054-12.685-8.73-30.043-5.536-38.783 7.146l-15.774 57.604-31.341 45.486c-5.656 8.221-35.024 42.174-35.024 42.174v152.254l48.831 14.164h107.99799999999999c15.399 0 27.887-12.479 27.887-27.885 0-3.594-.742-7.004-1.979-10.16 12.211-2.963 21.308-13.889 21.308-27.016 0-8.123-3.521-15.367-9.068-20.465 12.815-2.518 22.484-13.785 22.484-27.337 0-8.206-3.603-15.507-9.238-20.604 11.769-3.266 20.456-13.942 20.456-26.751z"/><rect x="120.594" y="230.809" width="101.646" height="179.698"/></g></svg>