<svg xmlns="http://www.w3.org/2000/svg" xmlns:xlink="http://www.w3.org/1999/xlink" width="81.25" height="7.75"><g opacity=".5"><defs><rect id="a" x="-6.75" opacity=".5" width="95.75" height="18.735"/></defs><clipPath id="b"><use xlink:href="#a" overflow="visible"/></clipPath><g clip-path="url(#b)"><path fill="#fff" d="M48.105-1.007c0 .863-1.052 1.563-2.348 1.563l-42.825 4.944c-1.296 0-2.347-.7-2.347-1.564v-5.222c0-.863 1.05-1.563 2.347-1.563h42.826c1.296 0 2.348.7 2.348 1.563v.279z"/><path fill="#FEFEFE" d="M48.086-1.012c0 .859-1.048 1.558-2.339 1.558l-42.692 4.916c-1.292 0-2.338-.697-2.338-1.559v-5.193c0-.859 1.046-1.557 2.338-1.557h42.692c1.291 0 2.339.697 2.339 1.557v.278z"/><path fill="#FDFDFD" d="M48.066-1.018c0 .856-1.043 1.551-2.329 1.551l-42.56 4.89c-1.286 0-2.328-.694-2.328-1.552v-5.164c0-.857 1.042-1.552 2.328-1.552h42.56c1.286 0 2.329.695 2.329 1.552v.275z"/><path fill="#FCFCFC" d="M48.047-1.022c0 .854-1.039 1.545-2.319 1.545l-42.427 4.862c-1.281 0-2.318-.692-2.318-1.546v-5.136c0-.853 1.037-1.545 2.318-1.545h42.426c1.28 0 2.319.692 2.319 1.545v.275z"/><path fill="#FBFBFB" d="M48.028-1.027c0 .85-1.035 1.539-2.311 1.539l-42.292 4.835c-1.276 0-2.31-.689-2.31-1.54v-5.107c0-.849 1.034-1.538 2.31-1.538h42.293c1.275 0 2.311.689 2.311 1.538v.273z"/><path fill="#FAFAFA" d="M48.008-1.032c0 .846-1.03 1.532-2.301 1.532l-42.16 4.808c-1.271 0-2.3-.687-2.3-1.533v-5.078c0-.847 1.029-1.532 2.3-1.532h42.16c1.271 0 2.301.686 2.301 1.532v.271z"/><path fill="#F9F9F9" d="M47.988-1.038c0 .843-1.026 1.526-2.291 1.526l-42.027 4.781c-1.266 0-2.291-.684-2.291-1.527v-5.049c0-.843 1.025-1.526 2.291-1.526h42.027c1.265 0 2.291.684 2.291 1.526v.269z"/><path fill="#F8F8F8" d="M47.97-1.043c0 .84-1.022 1.521-2.282 1.521l-41.894 4.752c-1.26 0-2.281-.681-2.281-1.521v-5.021c0-.839 1.021-1.52 2.281-1.52h41.894c1.26 0 2.282.681 2.282 1.52v.269z"/><path fill="#F7F7F7" d="M47.95-1.048c0 .836-1.019 1.515-2.272 1.515l-41.761 4.725c-1.255 0-2.272-.678-2.272-1.515v-4.992c0-.836 1.017-1.514 2.272-1.514h41.761c1.254 0 2.272.678 2.272 1.514v.267z"/><path fill="#F6F6F6" d="M47.931-1.053c0 .832-1.014 1.508-2.264 1.508l-41.627 4.698c-1.25 0-2.263-.675-2.263-1.508v-4.964c0-.833 1.013-1.508 2.263-1.508h41.627c1.25 0 2.264.675 2.264 1.508v.266z"/><path fill="#F5F5F5" d="M47.911-1.058c0 .828-1.01 1.501-2.255 1.501l-41.493 4.671c-1.245 0-2.253-.672-2.253-1.502v-4.935c0-.829 1.009-1.501 2.253-1.501h41.493c1.245 0 2.255.672 2.255 1.501v.265z"/><path fill="#F4F4F4" d="M47.892-1.062c0 .825-1.006 1.494-2.245 1.494l-41.36 4.644c-1.24 0-2.244-.669-2.244-1.496v-4.906c0-.825 1.004-1.494 2.244-1.494h41.36c1.239 0 2.245.669 2.245 1.494v.264z"/><path fill="#F3F3F3" d="M47.872-1.068c0 .822-1.001 1.489-2.235 1.489l-41.227 4.617c-1.234 0-2.235-.667-2.235-1.489v-4.878c0-.822 1-1.488 2.235-1.488h41.227c1.234 0 2.235.667 2.235 1.488v.261z"/><path fill="#F2F2F2" d="M47.853-1.073c0 .818-.997 1.482-2.226 1.482l-41.094 4.59c-1.229 0-2.225-.663-2.225-1.483v-4.849c0-.818.996-1.482 2.225-1.482h41.094c1.229 0 2.226.664 2.226 1.482v.26z"/><path fill="#F1F1F1" d="M47.833-1.079c0 .815-.993 1.477-2.217 1.477l-40.96 4.563c-1.225 0-2.216-.661-2.216-1.478v-4.82c0-.815.992-1.476 2.216-1.476h40.96c1.224 0 2.217.661 2.217 1.476v.258z"/><path fill="#F0F0F0" d="M47.813-1.084c0 .812-.988 1.471-2.207 1.471l-40.827 4.536c-1.219 0-2.206-.659-2.206-1.472v-4.791c0-.812.987-1.47 2.206-1.47h40.828c1.219 0 2.207.658 2.207 1.47v.256z"/><path fill="#EFEFEF" d="M47.795-1.088c0 .808-.984 1.463-2.198 1.463l-40.695 4.51c-1.214 0-2.197-.656-2.197-1.465v-4.763c0-.809.983-1.465 2.197-1.465h40.694c1.214 0 2.198.656 2.198 1.465v.255z"/><path fill="#eee" d="M47.775-1.094c0 .805-.98 1.458-2.189 1.458l-40.561 4.482c-1.209 0-2.188-.653-2.188-1.459v-4.733c0-.805.979-1.458 2.188-1.458h40.561c1.209 0 2.189.653 2.189 1.458v.252z"/><path fill="#EDEDED" d="M47.755-1.1c0 .802-.976 1.452-2.179 1.452l-40.428 4.455c-1.204 0-2.179-.649-2.179-1.452v-4.705c0-.802.975-1.452 2.179-1.452h40.428c1.203 0 2.179.65 2.179 1.452v.25z"/><path fill="#ECECEC" d="M47.736-1.104c0 .799-.973 1.446-2.17 1.446l-40.294 4.427c-1.199 0-2.169-.647-2.169-1.446v-4.677c0-.798.971-1.445 2.169-1.445h40.294c1.197 0 2.17.647 2.17 1.445v.25z"/><path fill="#EBEBEB" d="M47.717-1.109c0 .795-.968 1.439-2.16 1.439l-40.162 4.4c-1.193 0-2.16-.645-2.16-1.44v-4.647c0-.795.967-1.439 2.16-1.439h40.162c1.192 0 2.16.645 2.16 1.439v.248z"/><path fill="#EAEAEA" d="M47.697-1.114c0 .791-.964 1.433-2.151 1.433l-40.028 4.372c-1.188 0-2.151-.642-2.151-1.434v-4.619c0-.792.962-1.433 2.151-1.433h40.028c1.188 0 2.151.641 2.151 1.433v.248z"/><path fill="#E9E9E9" d="M47.678-1.119c0 .787-.959 1.427-2.142 1.427l-39.895 4.345c-1.183 0-2.142-.64-2.142-1.428v-4.591c0-.788.958-1.427 2.142-1.427h39.895c1.183 0 2.142.639 2.142 1.427v.247z"/><path fill="#E8E8E8" d="M47.658-1.124c0 .783-.955 1.42-2.133 1.42l-39.761 4.319c-1.178 0-2.132-.637-2.132-1.422v-4.562c0-.784.954-1.421 2.132-1.421h39.761c1.178 0 2.133.637 2.133 1.421v.245z"/><path fill="#E7E7E7" d="M47.64-1.129c0 .78-.951 1.414-2.124 1.414l-39.628 4.291c-1.173 0-2.123-.633-2.123-1.415v-4.533c0-.78.95-1.414 2.123-1.414h39.628c1.173 0 2.124.634 2.124 1.414v.243z"/><path fill="#E6E6E6" d="M47.62-1.135c0 .777-.947 1.408-2.114 1.408l-39.495 4.265c-1.167 0-2.113-.631-2.113-1.409v-4.504c0-.778.946-1.408 2.113-1.408h39.495c1.167 0 2.114.63 2.114 1.408v.24z"/><path fill="#E5E5E5" d="M47.601-1.141c0 .774-.943 1.402-2.105 1.402l-39.363 4.238c-1.162 0-2.104-.628-2.104-1.403v-4.475c0-.774.942-1.402 2.104-1.402h39.362c1.162 0 2.105.628 2.105 1.402v.238z"/><path fill="#E4E4E4" d="M47.581-1.146c0 .771-.938 1.396-2.096 1.396l-39.228 4.211c-1.158 0-2.095-.625-2.095-1.396v-4.447c0-.771.938-1.396 2.095-1.396h39.228c1.157 0 2.096.625 2.096 1.396v.236z"/><path fill="#E3E3E3" d="M47.562-1.149c0 .767-.935 1.389-2.086 1.389l-39.096 4.182c-1.152 0-2.085-.622-2.085-1.39v-4.418c0-.768.934-1.39 2.085-1.39h39.095c1.151 0 2.086.622 2.086 1.39v.237z"/><path fill="#E2E2E2" d="M47.542-1.155c0 .764-.931 1.384-2.076 1.384l-38.963 4.155c-1.147 0-2.076-.62-2.076-1.384v-4.39c0-.764.929-1.384 2.076-1.384h38.963c1.146 0 2.076.62 2.076 1.384v.235z"/><path fill="#E1E1E1" d="M47.522-1.16c0 .76-.926 1.377-2.067 1.377l-38.829 4.128c-1.142 0-2.067-.616-2.067-1.378v-4.36c0-.76.925-1.377 2.067-1.377h38.829c1.142 0 2.067.617 2.067 1.377v.233z"/><path fill="#E0E0E0" d="M47.503-1.165c0 .757-.921 1.37-2.058 1.37l-38.695 4.102c-1.137 0-2.057-.613-2.057-1.371v-4.332c0-.757.92-1.371 2.057-1.371h38.696c1.137 0 2.058.614 2.058 1.371v.231z"/><path fill="#DFDFDF" d="M47.484-1.17c0 .753-.918 1.364-2.049 1.364l-38.562 4.075c-1.132 0-2.048-.611-2.048-1.365v-4.304c0-.753.917-1.364 2.048-1.364h38.562c1.131 0 2.049.611 2.049 1.364v.23z"/><path fill="#DEDEDE" d="M47.465-1.176c0 .75-.914 1.358-2.04 1.358l-38.429 4.047c-1.127 0-2.039-.608-2.039-1.358v-4.275c0-.75.912-1.358 2.039-1.358h38.429c1.126 0 2.04.608 2.04 1.358v.228z"/><path fill="#ddd" d="M47.444-1.181c0 .746-.909 1.352-2.029 1.352l-38.296 4.02c-1.121 0-2.029-.606-2.029-1.354v-4.246c0-.746.908-1.352 2.029-1.352h38.296c1.12 0 2.029.605 2.029 1.352v.228z"/><path fill="#DCDCDC" d="M47.426-1.186c0 .743-.905 1.346-2.021 1.346l-38.162 3.992c-1.117 0-2.021-.603-2.021-1.347v-4.217c0-.743.904-1.346 2.021-1.346h38.162c1.116 0 2.021.603 2.021 1.346v.226z"/><path fill="#DBDBDB" d="M47.406-1.19c0 .739-.9 1.34-2.012 1.34l-38.028 3.964c-1.111 0-2.011-.6-2.011-1.34v-4.189c0-.739.9-1.34 2.011-1.34h38.029c1.111 0 2.012.601 2.012 1.34v.225z"/><path fill="#DADADA" d="M47.387-1.196c0 .736-.896 1.334-2.002 1.334l-37.897 3.938c-1.105 0-2.001-.598-2.001-1.335v-4.16c0-.736.896-1.333 2.001-1.333h37.896c1.105 0 2.002.597 2.002 1.333v.223z"/><path fill="#D9D9D9" d="M47.367-1.201c0 .732-.893 1.327-1.993 1.327l-37.762 3.911c-1.101 0-1.993-.595-1.993-1.328v-4.131c0-.733.892-1.328 1.993-1.328h37.762c1.101 0 1.993.595 1.993 1.328v.221z"/><path fill="#D8D8D8" d="M47.348-1.206c0 .729-.889 1.32-1.983 1.32l-37.63 3.885c-1.095 0-1.983-.592-1.983-1.322v-4.103c0-.729.888-1.321 1.983-1.321h37.629c1.095 0 1.983.592 1.983 1.321v.22z"/><path fill="#D7D7D7" d="M47.328-1.211c0 .726-.884 1.314-1.974 1.314l-37.496 3.858c-1.09 0-1.973-.59-1.973-1.316v-4.075c0-.725.883-1.314 1.973-1.314h37.496c1.09 0 1.974.589 1.974 1.314v.219z"/><path fill="#D6D6D6" d="M47.309-1.217c0 .723-.88 1.309-1.965 1.309l-37.363 3.83c-1.085 0-1.964-.586-1.964-1.31v-4.045c0-.723.879-1.309 1.964-1.309h37.362c1.085 0 1.965.586 1.965 1.309v.216z"/><path fill="#D5D5D5" d="M47.289-1.222c0 .719-.876 1.302-1.955 1.302l-37.23 3.803c-1.08 0-1.955-.583-1.955-1.303v-4.017c0-.719.875-1.303 1.955-1.303h37.23c1.079 0 1.955.583 1.955 1.303v.215z"/><path fill="#D4D4D4" d="M47.27-1.227c0 .715-.871 1.296-1.945 1.296l-37.097 3.776c-1.075 0-1.945-.581-1.945-1.297v-3.988c0-.715.871-1.296 1.945-1.296h37.097c1.074 0 1.945.581 1.945 1.296v.213z"/><path fill="#D3D3D3" d="M47.251-1.231c0 .712-.867 1.29-1.937 1.29l-36.963 3.748c-1.07 0-1.936-.578-1.936-1.291v-3.959c0-.712.866-1.29 1.936-1.29h36.963c1.069 0 1.937.578 1.937 1.29v.212z"/><path fill="#D2D2D2" d="M47.231-1.237c0 .709-.863 1.284-1.928 1.284l-36.829 3.721c-1.064 0-1.927-.575-1.927-1.284v-3.931c0-.708.862-1.283 1.927-1.283h36.83c1.064 0 1.928.575 1.928 1.283v.21z"/><path fill="#D1D1D1" d="M47.211-1.242c0 .705-.858 1.277-1.918 1.277l-36.696 3.694c-1.06 0-1.917-.572-1.917-1.277v-3.902c0-.705.858-1.277 1.917-1.277h36.696c1.06 0 1.918.572 1.918 1.277v.208z"/><path fill="#D0D0D0" d="M47.192-1.247c0 .701-.854 1.271-1.908 1.271l-36.564 3.666c-1.055 0-1.908-.569-1.908-1.271v-3.874c0-.701.853-1.271 1.908-1.271h36.564c1.054 0 1.908.569 1.908 1.271v.208z"/><path fill="#CFCFCF" d="M47.173-1.252c0 .698-.851 1.265-1.899 1.265l-36.43 3.64c-1.05 0-1.898-.566-1.898-1.266v-3.844c0-.699.849-1.266 1.898-1.266h36.43c1.049 0 1.899.566 1.899 1.266v.205z"/><path fill="#CECECE" d="M47.153-1.258c0 .695-.847 1.26-1.89 1.26l-36.297 3.611c-1.044 0-1.889-.563-1.889-1.259v-3.815c0-.695.845-1.26 1.889-1.26h36.297c1.043 0 1.89.564 1.89 1.26v.203z"/><path fill="#CDCDCD" d="M47.134-1.263c0 .691-.843 1.253-1.881 1.253l-36.163 3.585c-1.04 0-1.881-.562-1.881-1.254v-3.787c0-.691.841-1.252 1.881-1.252h36.163c1.038 0 1.881.561 1.881 1.252v.203z"/><path fill="#ccc" d="M47.114-1.268c0 .688-.838 1.246-1.871 1.246l-36.03 3.559c-1.034 0-1.871-.559-1.871-1.247v-3.759c0-.688.837-1.246 1.871-1.246h36.03c1.033 0 1.871.558 1.871 1.246v.201z"/><path fill="#CBCBCB" d="M47.096-1.272c0 .685-.834 1.24-1.862 1.24l-35.898 3.53c-1.029 0-1.862-.555-1.862-1.24v-3.729c0-.685.833-1.24 1.862-1.24h35.897c1.028 0 1.862.555 1.862 1.24v.199z"/><path fill="#CACACA" d="M47.076-1.277c0 .681-.83 1.233-1.854 1.233l-35.763 3.504c-1.023 0-1.852-.553-1.852-1.235v-3.701c0-.681.829-1.233 1.852-1.233h35.764c1.023 0 1.854.553 1.854 1.233v.199z"/><path fill="#C9C9C9" d="M47.056-1.283c0 .678-.825 1.228-1.843 1.228l-35.631 3.476c-1.019 0-1.843-.55-1.843-1.228v-3.673c0-.678.824-1.228 1.843-1.228h35.631c1.018 0 1.843.55 1.843 1.228v.197z"/><path fill="#C8C8C8" d="M47.037-1.288c0 .675-.821 1.222-1.834 1.222l-35.497 3.449c-1.013 0-1.833-.547-1.833-1.223v-3.643c0-.675.82-1.222 1.833-1.222h35.498c1.013 0 1.834.547 1.834 1.222v.195z"/><path fill="#C7C7C7" d="M47.018-1.293c0 .671-.816 1.215-1.824 1.215l-35.365 3.423c-1.008 0-1.824-.545-1.824-1.216v-3.615c0-.671.816-1.216 1.824-1.216h35.364c1.008 0 1.824.545 1.824 1.216v.193z"/><path fill="#C6C6C6" d="M46.998-1.299c0 .668-.812 1.21-1.815 1.21l-35.231 3.395c-1.002 0-1.815-.542-1.815-1.21v-3.586c0-.667.812-1.209 1.815-1.209h35.231c1.003 0 1.815.542 1.815 1.209v.191z"/><path fill="#C5C5C5" d="M46.979-1.304c0 .664-.809 1.202-1.807 1.202l-35.097 3.37c-.998 0-1.806-.539-1.806-1.204v-3.558c0-.664.808-1.203 1.806-1.203h35.097c.998 0 1.807.539 1.807 1.203v.19z"/><path fill="#C4C4C4" d="M46.959-1.309c0 .66-.805 1.197-1.797 1.197l-34.964 3.34c-.993 0-1.796-.535-1.796-1.197v-3.528c0-.661.803-1.197 1.796-1.197h34.964c.992 0 1.797.536 1.797 1.197v.188z"/><path fill="#C3C3C3" d="M46.939-1.313c0 .657-.8 1.19-1.787 1.19l-34.831 3.313c-.987 0-1.786-.533-1.786-1.19v-3.501c0-.657.799-1.19 1.786-1.19h34.831c.987 0 1.787.533 1.787 1.19v.188z"/><path fill="#C2C2C2" d="M46.92-1.318c0 .652-.796 1.184-1.777 1.184l-34.699 3.286c-.982 0-1.777-.531-1.777-1.186v-3.471c0-.654.795-1.185 1.777-1.185h34.698c.981 0 1.777.53 1.777 1.185v.187z"/><path fill="#C1C1C1" d="M46.9-1.324c0 .65-.792 1.178-1.769 1.178l-34.564 3.26c-.978 0-1.769-.528-1.769-1.179v-3.442c0-.651.791-1.179 1.769-1.179h34.564c.977 0 1.769.527 1.769 1.179v.183z"/><path fill="#C0C0C0" d="M46.881-1.329c0 .646-.787 1.172-1.758 1.172l-34.433 3.231c-.972 0-1.759-.524-1.759-1.172v-3.414c0-.647.787-1.172 1.759-1.172h34.433c.971 0 1.758.525 1.758 1.172v.183z"/><path fill="#BFBFBF" d="M46.862-1.334c0 .644-.783 1.166-1.75 1.166l-34.298 3.204c-.967 0-1.75-.521-1.75-1.166v-3.385c0-.644.783-1.166 1.75-1.166h34.298c.967 0 1.75.522 1.75 1.166v.181z"/><path fill="#BEBEBE" d="M46.842-1.339c0 .64-.778 1.159-1.739 1.159l-34.166 3.178c-.962 0-1.74-.52-1.74-1.16v-3.356c0-.641.778-1.159 1.74-1.159h34.166c.961 0 1.739.519 1.739 1.159v.179z"/><path fill="#BDBDBD" d="M46.822-1.345c0 .637-.774 1.153-1.73 1.153l-34.032 3.151c-.956 0-1.73-.517-1.73-1.153v-3.328c0-.637.774-1.153 1.73-1.153h34.032c.956 0 1.73.517 1.73 1.153v.177z"/><path fill="#BCBCBC" d="M46.804-1.35c0 .633-.771 1.146-1.722 1.146l-33.898 3.125c-.952 0-1.722-.515-1.722-1.147v-3.299c0-.634.77-1.147 1.722-1.147h33.898c.95 0 1.722.514 1.722 1.147v.175z"/><path fill="#bbb" d="M46.784-1.354c0 .63-.767 1.141-1.712 1.141l-33.765 3.096c-.946 0-1.712-.512-1.712-1.142v-3.271c0-.63.766-1.141 1.712-1.141h33.766c.945 0 1.712.511 1.712 1.141v.176z"/><path fill="#BABABA" d="M46.765-1.359c0 .626-.763 1.134-1.703 1.134l-33.632 3.069c-.941 0-1.703-.508-1.703-1.135v-3.242c0-.626.761-1.135 1.703-1.135h33.632c.94 0 1.703.509 1.703 1.135v.174z"/><path fill="#B9B9B9" d="M46.745-1.365c0 .623-.759 1.129-1.693 1.129l-33.499 3.041c-.936 0-1.694-.505-1.694-1.129v-3.213c0-.623.758-1.128 1.694-1.128h33.499c.935 0 1.693.505 1.693 1.128v.172z"/><path fill="#B8B8B8" d="M46.727-1.37c0 .619-.755 1.122-1.686 1.122l-33.365 3.015c-.931 0-1.684-.503-1.684-1.122v-3.185c0-.619.753-1.122 1.684-1.122h33.365c.931 0 1.686.503 1.686 1.122v.17z"/><path fill="#B7B7B7" d="M46.707-1.375c0 .615-.75 1.116-1.675 1.116l-33.232 2.988c-.926 0-1.675-.5-1.675-1.116v-3.156c0-.615.749-1.115 1.675-1.115h33.232c.925 0 1.675.5 1.675 1.115v.168z"/><path fill="#B6B6B6" d="M46.688-1.38c0 .612-.746 1.109-1.666 1.109l-33.099 2.96c-.92 0-1.666-.497-1.666-1.109v-3.128c0-.612.745-1.109 1.666-1.109h33.099c.92 0 1.666.497 1.666 1.109v.168z"/><path fill="#B5B5B5" d="M46.668-1.386c0 .608-.742 1.104-1.656 1.104l-32.967 2.933c-.915 0-1.656-.495-1.656-1.104v-3.099c0-.609.741-1.104 1.656-1.104h32.967c.914 0 1.656.494 1.656 1.104v.166z"/><path fill="#B4B4B4" d="M46.648-1.391c0 .605-.738 1.098-1.647 1.098l-32.832 2.906c-.91 0-1.647-.492-1.647-1.098v-3.07c0-.605.737-1.097 1.647-1.097h32.832c.909 0 1.647.491 1.647 1.097v.164z"/><path fill="#B3B3B3" d="M46.629-1.395c0 .602-.733 1.09-1.638 1.09l-32.699 2.879c-.905 0-1.638-.488-1.638-1.091v-3.042c0-.602.733-1.091 1.638-1.091h32.699c.904 0 1.638.489 1.638 1.091v.164z"/><path fill="#B2B2B2" d="M46.609-1.4c0 .599-.729 1.084-1.628 1.084l-32.566 2.852c-.9 0-1.628-.486-1.628-1.085v-3.013c0-.599.728-1.085 1.628-1.085h32.566c.899 0 1.628.486 1.628 1.085v.162z"/><path fill="#B1B1B1" d="M46.59-1.406c0 .596-.725 1.079-1.619 1.079l-32.433 2.824c-.895 0-1.619-.483-1.619-1.079v-2.983c0-.596.725-1.079 1.619-1.079h32.433c.895 0 1.619.483 1.619 1.079v.159z"/><path fill="#B0B0B0" d="M46.57-1.411c0 .592-.721 1.072-1.609 1.072l-32.3 2.798c-.89 0-1.609-.48-1.609-1.073v-2.955c0-.591.72-1.072 1.609-1.072h32.3c.889 0 1.609.481 1.609 1.072v.158z"/><path fill="#AFAFAF" d="M46.552-1.416c0 .588-.717 1.066-1.601 1.066l-32.167 2.771c-.884 0-1.6-.478-1.6-1.066v-2.927c0-.588.715-1.066 1.6-1.066h32.167c.884 0 1.601.478 1.601 1.066v.156z"/><path fill="#AFAEAE" d="M46.531-1.421c0 .584-.712 1.06-1.59 1.06l-32.033 2.744c-.879 0-1.591-.476-1.591-1.062v-2.897c0-.585.711-1.06 1.591-1.06h32.034c.878 0 1.59.475 1.59 1.06v.155z"/><path fill="#AEADAD" d="M46.512-1.426c0 .58-.708 1.053-1.581 1.053l-31.9 2.716c-.874 0-1.582-.472-1.582-1.054v-2.869c0-.581.708-1.054 1.582-1.054h31.9c.873 0 1.581.473 1.581 1.054v.154z"/><path fill="#ADACAC" d="M46.493-1.432c0 .578-.704 1.047-1.573 1.047l-31.766 2.69c-.869 0-1.572-.47-1.572-1.047v-2.841c0-.578.703-1.048 1.572-1.048h31.766c.869 0 1.573.47 1.573 1.048v.151z"/><path fill="#ACABAB" d="M46.474-1.436c0 .574-.7 1.041-1.563 1.041l-31.634 2.662c-.864 0-1.562-.467-1.562-1.042v-2.811c0-.575.698-1.042 1.562-1.042h31.633c.863 0 1.563.467 1.563 1.042v.15z"/><path fill="#ABAAAA" d="M46.454-1.441c0 .57-.695 1.035-1.554 1.035l-31.5 2.634c-.859 0-1.554-.464-1.554-1.034v-2.784c0-.572.695-1.035 1.554-1.035h31.5c.858 0 1.554.463 1.554 1.035v.149z"/><path fill="#AAA9A9" d="M46.435-1.447c0 .568-.691 1.029-1.544 1.029l-31.368 2.607c-.854 0-1.544-.461-1.544-1.029v-2.755c0-.567.691-1.028 1.544-1.028h31.368c.853 0 1.544.461 1.544 1.028v.148z"/><path fill="#A9A8A8" d="M46.415-1.452c0 .564-.687 1.022-1.535 1.022l-31.234 2.58c-.849 0-1.535-.457-1.535-1.022v-2.726c0-.564.687-1.022 1.535-1.022h31.234c.849 0 1.535.458 1.535 1.022v.146z"/><path fill="#A8A7A7" d="M46.396-1.456c0 .561-.684 1.016-1.525 1.016l-31.101 2.553c-.843 0-1.526-.456-1.526-1.018v-2.696c0-.562.683-1.017 1.526-1.017h31.101c.842 0 1.525.455 1.525 1.017v.145z"/><path fill="#A7A6A6" d="M46.376-1.462c0 .558-.679 1.01-1.517 1.01l-30.966 2.526c-.838 0-1.516-.453-1.516-1.011v-2.668c0-.558.678-1.011 1.516-1.011h30.966c.838 0 1.517.453 1.517 1.011v.143z"/><path fill="#A6A5A5" d="M46.356-1.467c0 .554-.675 1.003-1.507 1.003l-30.833 2.499c-.833 0-1.507-.45-1.507-1.004v-2.64c0-.554.674-1.004 1.507-1.004h30.834c.832 0 1.507.45 1.507 1.004v.142z"/><path fill="#A5A4A4" d="M46.338-1.473c0 .551-.671.998-1.498.998l-30.701 2.472c-.828 0-1.498-.447-1.498-.998v-2.61c0-.551.67-.998 1.498-.998h30.701c.827 0 1.498.447 1.498.998v.138z"/><path fill="#A4A3A3" d="M46.318-1.478c0 .547-.666.991-1.488.991l-30.567 2.446c-.823 0-1.489-.445-1.489-.992v-2.582c0-.547.666-.992 1.489-.992h30.567c.822 0 1.488.444 1.488.992v.137z"/><path fill="#A3A2A2" d="M46.299-1.482c0 .543-.662.984-1.479.984l-30.434 2.418c-.817 0-1.479-.441-1.479-.985v-2.554c0-.544.662-.985 1.479-.985h30.434c.816 0 1.479.441 1.479.985v.137z"/><path fill="#A2A1A1" d="M46.279-1.487c0 .54-.658.979-1.47.979l-30.3 2.39c-.812 0-1.47-.439-1.47-.979v-2.525c0-.54.657-.979 1.47-.979h30.301c.812 0 1.47.438 1.47.979v.135z"/><path fill="#A1A0A0" d="M46.26-1.493c0 .537-.653.974-1.46.974l-30.168 2.362c-.808 0-1.46-.436-1.46-.974v-2.496c0-.536.652-.973 1.46-.973h30.168c.807 0 1.46.437 1.46.973v.134z"/><path fill="#A09F9F" d="M46.24-1.498c0 .533-.649.967-1.451.967l-30.034 2.336c-.802 0-1.451-.434-1.451-.967v-2.468c0-.534.649-.967 1.451-.967h30.034c.802 0 1.451.433 1.451.967v.132z"/><path fill="#9F9E9E" d="M46.221-1.503c0 .529-.645.96-1.441.96l-29.902 2.309c-.797 0-1.441-.43-1.441-.96v-2.438c0-.531.645-.961 1.441-.961h29.901c.797 0 1.441.43 1.441.961v.129z"/><path fill="#9E9D9D" d="M46.201-1.508c0 .525-.641.954-1.432.954l-29.768 2.282c-.791 0-1.432-.428-1.432-.954v-2.41c0-.527.641-.954 1.432-.954h29.769c.791 0 1.432.427 1.432.954v.128z"/><path fill="#9D9C9C" d="M46.182-1.513c0 .522-.637.947-1.423.947l-29.634 2.255c-.787 0-1.422-.426-1.422-.948v-2.382c0-.523.636-.948 1.422-.948h29.634c.786 0 1.423.425 1.423.948v.128z"/><path fill="#9C9B9B" d="M46.162-1.519c0 .52-.633.942-1.413.942l-29.501 2.227c-.782 0-1.414-.422-1.414-.941v-2.354c0-.52.632-.941 1.414-.941h29.501c.78 0 1.413.422 1.413.941v.126z"/><path fill="#9B9A9A" d="M46.143-1.523c0 .516-.628.936-1.403.936l-29.368 2.2c-.777 0-1.404-.42-1.404-.936v-2.324c0-.517.627-.936 1.404-.936h29.368c.775 0 1.403.419 1.403.936v.124z"/><path fill="#9A9999" d="M46.123-1.528c0 .513-.624.929-1.395.929l-29.234 2.172c-.771 0-1.396-.417-1.396-.929v-2.296c0-.513.624-.929 1.396-.929h29.234c.771 0 1.395.416 1.395.929v.124z"/><path fill="#999898" d="M46.104-1.533c0 .509-.619.923-1.385.923l-29.102 2.145c-.766 0-1.386-.414-1.386-.924v-2.267c0-.509.62-.923 1.386-.923h29.102c.766 0 1.385.414 1.385.923v.123z"/><path fill="#989797" d="M46.085-1.539c0 .506-.616.917-1.376.917l-28.969 2.119c-.761 0-1.376-.412-1.376-.917v-2.238c0-.506.616-.917 1.376-.917h28.969c.76 0 1.376.411 1.376.917v.119z"/><path fill="#979696" d="M46.065-1.544c0 .502-.612.911-1.366.911l-28.836 2.091c-.755 0-1.367-.408-1.367-.911v-2.209c0-.502.611-.911 1.367-.911h28.836c.754 0 1.366.409 1.366.911v.118z"/><path fill="#969595" d="M46.046-1.549c0 .498-.607.904-1.357.904l-28.703 2.065c-.75 0-1.357-.406-1.357-.905v-2.181c0-.499.607-.904 1.357-.904h28.702c.75 0 1.357.405 1.357.904v.117z"/><path fill="#959494" d="M46.026-1.554c0 .495-.604.897-1.349.897l-28.567 2.038c-.746 0-1.348-.402-1.348-.898v-2.151c0-.496.603-.898 1.348-.898h28.568c.745 0 1.349.402 1.349.898v.114z"/><path fill="#949393" d="M46.007-1.559c0 .491-.599.892-1.339.892l-28.435 2.01c-.741 0-1.339-.399-1.339-.893v-2.123c0-.492.598-.892 1.339-.892h28.435c.74 0 1.339.399 1.339.892v.114z"/><path fill="#939292" d="M45.987-1.564c0 .488-.595.886-1.329.886l-28.302 1.983c-.735 0-1.33-.397-1.33-.887v-2.094c0-.489.595-.887 1.33-.887h28.302c.734 0 1.329.397 1.329.887v.112z"/><path fill="#929191" d="M45.969-1.569c0 .485-.591.88-1.32.88l-28.17 1.955c-.73 0-1.32-.395-1.32-.88v-2.066c0-.485.59-.88 1.32-.88h28.169c.729 0 1.32.395 1.32.88v.111z"/><path fill="#919090" d="M45.949-1.574c0 .481-.587.873-1.311.873l-28.035 1.928c-.725 0-1.311-.391-1.311-.873v-2.037c0-.481.586-.874 1.311-.874h28.036c.724 0 1.311.392 1.311.874v.109z"/><path fill="#908F8F" d="M45.93-1.579c0 .478-.582.866-1.302.866l-27.902 1.902c-.72 0-1.302-.39-1.302-.868v-2.008c0-.479.582-.868 1.302-.868h27.902c.72 0 1.302.388 1.302.868v.108z"/><path fill="#8F8E8E" d="M45.91-1.585c0 .476-.578.861-1.292.861l-27.769 1.874c-.715 0-1.292-.387-1.292-.861v-1.979c0-.476.577-.861 1.292-.861h27.77c.714 0 1.292.386 1.292.861v.105z"/><path fill="#8E8E8D" d="M45.891-1.59c0 .472-.574.854-1.283.854l-27.636 1.847c-.709 0-1.283-.383-1.283-.854v-1.951c0-.472.574-.854 1.283-.854h27.636c.709 0 1.283.383 1.283.854v.104z"/><path fill="#8D8D8C" d="M45.871-1.595c0 .468-.57.848-1.273.848l-27.503 1.82c-.704 0-1.273-.38-1.273-.849v-1.922c0-.469.569-.85 1.273-.85h27.503c.703 0 1.273.381 1.273.85v.103z"/><path fill="#8C8C8B" d="M45.852-1.6c0 .464-.565.842-1.264.842l-27.37 1.792c-.699 0-1.265-.377-1.265-.842v-1.894c0-.465.565-.843 1.265-.843h27.37c.698 0 1.264.378 1.264.843v.102z"/><path fill="#8B8B8A" d="M45.832-1.605c0 .461-.562.836-1.255.836l-27.235 1.765c-.694 0-1.255-.375-1.255-.836v-1.865c0-.461.561-.836 1.255-.836h27.235c.693 0 1.255.375 1.255.836v.1z"/><path fill="#8A8A89" d="M45.812-1.61c0 .458-.557.83-1.245.83l-27.102 1.738c-.689 0-1.246-.372-1.246-.83v-1.836c0-.459.557-.83 1.246-.83h27.103c.688 0 1.245.371 1.245.83v.098z"/><path fill="#898988" d="M45.793-1.615c0 .454-.553.823-1.235.823l-26.97 1.711c-.684 0-1.236-.369-1.236-.823v-1.808c0-.455.552-.824 1.236-.824h26.97c.683 0 1.235.369 1.235.824v.097z"/><path fill="#888887" d="M45.773-1.62c0 .45-.549.816-1.227.816l-26.835 1.685c-.679 0-1.227-.367-1.227-.817v-1.778c0-.452.548-.818 1.227-.818h26.836c.678 0 1.227.366 1.227.818v.094z"/><path fill="#878786" d="M45.755-1.625c0 .446-.545.811-1.218.811l-26.703 1.657c-.673 0-1.218-.364-1.218-.812v-1.75c0-.448.544-.812 1.218-.812h26.703c.673 0 1.218.364 1.218.812v.094z"/><path fill="#868685" d="M45.735-1.631c0 .443-.541.805-1.208.805l-26.57 1.63c-.668 0-1.208-.361-1.208-.806v-1.721c0-.444.54-.805 1.208-.805h26.57c.667 0 1.208.361 1.208.805v.092z"/><path fill="#858584" d="M45.716-1.636c0 .44-.536.799-1.198.799l-26.438 1.603c-.663 0-1.198-.358-1.198-.799v-1.693c0-.44.535-.799 1.198-.799h26.438c.662 0 1.198.358 1.198.799v.09z"/><path fill="#848483" d="M45.696-1.641c0 .437-.532.792-1.189.792l-26.304 1.576c-.658 0-1.189-.355-1.189-.793v-1.664c0-.438.531-.792 1.189-.792h26.304c.657 0 1.189.354 1.189.792v.089z"/><path fill="#838382" d="M45.677-1.646c0 .434-.528.786-1.18.786l-26.17 1.548c-.653 0-1.18-.352-1.18-.786v-1.635c0-.435.527-.787 1.18-.787h26.17c.651 0 1.18.353 1.18.787v.087z"/><path fill="#828281" d="M45.658-1.65c0 .43-.524.779-1.171.779l-26.037 1.521c-.648 0-1.172-.351-1.172-.781v-1.605c0-.431.523-.781 1.172-.781h26.037c.646 0 1.171.35 1.171.781v.086z"/><path fill="#818180" d="M45.639-1.656c0 .426-.52.773-1.162.773l-25.904 1.494c-.643 0-1.162-.348-1.162-.773v-1.578c0-.427.52-.774 1.162-.774h25.903c.643 0 1.162.347 1.162.774v.084z"/><path fill="#80807F" d="M45.619-1.662c0 .424-.516.768-1.152.768l-25.771 1.466c-.637 0-1.152-.344-1.152-.768v-1.549c0-.424.515-.768 1.152-.768h25.771c.637 0 1.152.344 1.152.768v.083z"/><path fill="#7F7F7E" d="M45.6-1.666c0 .419-.512.761-1.144.761l-25.637 1.439c-.632 0-1.143-.342-1.143-.761v-1.521c0-.42.511-.762 1.143-.762h25.637c.632 0 1.144.342 1.144.762v.082z"/><path fill="#7E7E7D" d="M45.58-1.672c0 .416-.508.756-1.134.756l-25.504 1.412c-.627 0-1.134-.34-1.134-.756v-1.492c0-.416.507-.755 1.134-.755h25.504c.626 0 1.134.339 1.134.755v.08z"/><path fill="#7D7D7C" d="M45.561-1.677c0 .413-.503.749-1.124.749l-25.372 1.385c-.622 0-1.124-.336-1.124-.748v-1.464c0-.414.502-.75 1.124-.75h25.371c.621 0 1.124.336 1.124.75v.078z"/><path fill="#7C7C7B" d="M45.541-1.682c0 .409-.499.742-1.115.742l-25.238 1.359c-.617 0-1.115-.333-1.115-.743v-1.435c0-.41.498-.743 1.115-.743h25.237c.616 0 1.115.333 1.115.743v.077z"/><path fill="#7B7B7A" d="M45.521-1.688c0 .406-.494.736-1.105.736l-25.104 1.332c-.612 0-1.106-.33-1.106-.736v-1.405c0-.407.494-.737 1.106-.737h25.104c.611 0 1.105.331 1.105.737v.073z"/><path fill="#7A7A79" d="M45.502-1.691c0 .401-.49.729-1.096.729l-24.971 1.304c-.606 0-1.096-.328-1.096-.73v-1.377c0-.403.49-.73 1.096-.73h24.971c.605 0 1.096.327 1.096.73v.074z"/><path fill="#797978" d="M45.482-1.697c0 .398-.486.725-1.086.725l-24.837 1.276c-.602 0-1.087-.325-1.087-.725v-1.349c0-.399.485-.725 1.087-.725h24.838c.6 0 1.086.325 1.086.725v.073z"/><path fill="#787877" d="M45.463-1.702c0 .396-.481.718-1.076.718l-24.705 1.249c-.596 0-1.078-.322-1.078-.718v-1.32c0-.396.482-.718 1.078-.718h24.705c.595 0 1.076.322 1.076.718v.071z"/><path fill="#777776" d="M45.443-1.707c0 .392-.478.711-1.067.711l-24.572 1.223c-.591 0-1.068-.319-1.068-.712v-1.291c0-.393.477-.712 1.068-.712h24.572c.59 0 1.067.319 1.067.712v.069z"/><path fill="#767675" d="M45.424-1.713c0 .39-.473.705-1.058.705l-24.438 1.196c-.586 0-1.059-.316-1.059-.705v-1.263c0-.389.473-.706 1.059-.706h24.438c.585 0 1.058.316 1.058.706v.067z"/><path fill="#757574" d="M45.404-1.718c0 .386-.469.699-1.049.699l-24.304 1.168c-.581 0-1.05-.313-1.05-.699v-1.234c0-.385.469-.699 1.05-.699h24.305c.58 0 1.049.314 1.049.699v.066z"/><path fill="#747473" d="M45.385-1.723c0 .382-.465.693-1.039.693l-24.172 1.141c-.575 0-1.041-.312-1.041-.693v-1.205c0-.383.465-.693 1.041-.693h24.172c.574 0 1.039.311 1.039.693v.064z"/><path fill="#737372" d="M45.365-1.728c0 .378-.46.687-1.03.687l-24.038 1.113c-.571 0-1.031-.308-1.031-.687v-1.177c0-.379.46-.687 1.031-.687h24.038c.57 0 1.03.308 1.03.687v.064z"/><path fill="#727271" d="M45.347-1.733c0 .376-.457.681-1.021.681l-23.906 1.086c-.565 0-1.021-.306-1.021-.681v-1.148c0-.375.457-.68 1.021-.68h23.905c.564 0 1.021.305 1.021.68v.062z"/><path fill="#717170" d="M45.327-1.738c0 .372-.452.674-1.012.674l-23.771 1.06c-.561 0-1.013-.303-1.013-.674v-1.119c0-.373.452-.675 1.013-.675h23.771c.56 0 1.012.302 1.012.675v.059z"/><path fill="#70706F" d="M45.308-1.743c0 .368-.448.668-1.002.668l-23.639 1.032c-.556 0-1.003-.3-1.003-.668v-1.091c0-.369.448-.668 1.003-.668h23.638c.554 0 1.002.299 1.002.668v.059z"/><path fill="#6F6F6E" d="M45.288-1.748c0 .364-.444.661-.993.661l-23.505 1.005c-.55 0-.994-.297-.994-.661v-1.062c0-.366.444-.663.994-.663h23.506c.548 0 .993.297.993.663v.057z"/><path fill="#6E6E6D" d="M45.269-1.754c0 .361-.439.656-.983.656l-23.373.978c-.545 0-.984-.294-.984-.655v-1.033c0-.362.439-.656.984-.656h23.372c.544 0 .983.294.983.656v.054z"/><path fill="#6D6D6C" d="M45.249-1.759c0 .358-.436.649-.975.649l-23.238.952c-.54 0-.975-.292-.975-.65v-1.004c0-.358.435-.649.975-.649h23.238c.539 0 .975.291.975.649v.053z"/><path fill="#6C6C6B" d="M45.23-1.764c0 .354-.433.644-.966.644l-23.105.923c-.534 0-.966-.289-.966-.643v-.976c0-.355.432-.644.966-.644h23.105c.533 0 .966.289.966.644v.052z"/><path fill="#6B6B6A" d="M45.211-1.769c0 .351-.428.637-.956.637l-22.973.897c-.529 0-.956-.286-.956-.638v-.946c0-.352.427-.638.956-.638h22.973c.528 0 .956.286.956.638v.05z"/><path fill="#6A6A69" d="M45.191-1.774c0 .348-.424.631-.947.631l-22.838.869c-.524 0-.947-.283-.947-.631v-.918c0-.348.423-.631.947-.631h22.839c.523 0 .947.283.947.631v.049z"/><path fill="#696968" d="M45.172-1.779c0 .344-.419.625-.938.625l-22.705.842c-.519 0-.938-.28-.938-.625v-.889c0-.345.419-.625.938-.625h22.706c.519 0 .938.28.938.625v.047z"/><path fill="#686867" d="M45.152-1.784c0 .341-.415.618-.928.618l-22.572.814c-.514 0-.929-.277-.929-.618v-.86c0-.341.415-.619.929-.619h22.572c.513 0 .928.277.928.619v.046z"/><path fill="#676766" d="M45.133-1.789c0 .337-.41.612-.918.612l-22.44.787c-.508 0-.919-.274-.919-.612v-.832c0-.338.411-.612.919-.612h22.439c.508 0 .918.274.918.612v.045z"/><path fill="#666665" d="M45.113-1.794c0 .333-.406.605-.909.605l-22.306.761c-.503 0-.909-.272-.909-.606v-.803c0-.335.406-.606.909-.606h22.307c.502 0 .909.271.909.606v.043z"/><path fill="#656564" d="M45.094-1.8c0 .33-.402.6-.899.6l-22.174.733c-.499 0-.9-.27-.9-.6v-.774c0-.331.402-.6.9-.6h22.173c.497 0 .899.269.899.6v.041z"/><path fill="#646463" d="M45.074-1.805c0 .327-.397.594-.89.594l-22.04.706c-.493 0-.891-.267-.891-.594v-.745c0-.328.398-.595.891-.595h22.04c.492 0 .89.267.89.595v.039z"/><path fill="#636362" d="M45.055-1.81c0 .323-.394.587-.881.587l-21.906.68c-.488 0-.882-.265-.882-.588v-.717c0-.324.394-.588.882-.588h21.906c.487 0 .881.264.881.588v.038z"/><path fill="#626261" d="M45.036-1.814c0 .319-.39.581-.872.581l-21.773.651c-.482 0-.872-.261-.872-.581v-.688c0-.32.39-.582.872-.582h21.773c.482 0 .872.261.872.582v.037z"/><path fill="#616160" d="M45.017-1.819c0 .315-.386.574-.863.574l-21.64.625c-.478 0-.863-.259-.863-.575v-.66c0-.317.385-.575.863-.575h21.64c.477 0 .863.258.863.575v.036z"/><path fill="#60605F" d="M44.997-1.825c0 .313-.382.568-.854.568l-21.506.598c-.473 0-.854-.256-.854-.568v-.631c0-.314.381-.569.854-.569h21.506c.472 0 .854.255.854.569v.033z"/><path fill="#5F5F5E" d="M44.978-1.83c0 .31-.378.562-.844.562l-21.373.57c-.468 0-.845-.253-.845-.562v-.603c0-.311.376-.563.845-.563h21.373c.466 0 .844.252.844.563v.033z"/><path fill="#5E5E5D" d="M44.958-1.835c0 .306-.373.556-.834.556l-21.24.544c-.462 0-.835-.251-.835-.557v-.574c0-.307.373-.556.835-.556h21.24c.461 0 .834.25.834.556v.031z"/><path fill="#5D5D5C" d="M44.938-1.841c0 .303-.369.551-.825.551l-21.107.516c-.457 0-.825-.247-.825-.55v-.545c0-.304.368-.551.825-.551h21.107c.456 0 .825.247.825.551v.028z"/><path fill="#5C5C5B" d="M44.919-1.846c0 .299-.364.544-.815.544l-20.974.49c-.452 0-.817-.245-.817-.544v-.517c0-.3.365-.544.817-.544h20.974c.451 0 .815.244.815.544v.027z"/><path fill="#5B5B5A" d="M44.899-1.851c0 .296-.36.537-.806.537l-20.84.462c-.447 0-.807-.242-.807-.537v-.488c0-.296.36-.538.807-.538h20.841c.445 0 .806.241.806.538v.026z"/><path fill="#5A5A59" d="M44.88-1.855c0 .292-.355.53-.796.53l-20.708.434c-.441 0-.797-.238-.797-.53v-.459c0-.293.356-.532.797-.532h20.708c.441 0 .796.238.796.532v.025z"/><path fill="#595958" d="M44.86-1.86c0 .289-.352.524-.788.524l-20.572.407c-.437 0-.789-.235-.789-.524v-.431c0-.29.352-.525.789-.525h20.573c.436 0 .788.236.788.525v.024z"/><path fill="#585857" d="M44.841-1.866c0 .286-.347.519-.778.519l-20.44.381c-.432 0-.779-.233-.779-.519v-.402c0-.287.348-.52.779-.52h20.44c.431 0 .778.233.778.52v.021z"/><path fill="#575756" d="M44.822-1.871c0 .282-.344.513-.77.513l-20.306.352c-.427 0-.771-.229-.771-.513v-.373c0-.283.344-.513.771-.513h20.307c.426 0 .77.23.77.513v.021z"/><path fill="#565655" d="M44.803-1.876c0 .278-.34.506-.76.506l-20.174.326c-.421 0-.76-.228-.76-.506v-.345c0-.279.339-.507.76-.507h20.174c.42 0 .76.228.76.507v.019z"/><path fill="#555554" d="M44.783-1.881c0 .276-.335.5-.75.5l-20.041.299c-.416 0-.75-.226-.75-.501v-.315c0-.276.335-.501.75-.501h20.041c.416 0 .75.225.75.501v.017z"/><path fill="#545453" d="M44.764-1.887c0 .272-.331.494-.741.494l-19.908.272c-.411 0-.742-.222-.742-.494v-.287c0-.272.332-.494.742-.494h19.908c.41 0 .741.222.741.494v.015z"/><path fill="#535352" d="M44.744-1.892c0 .269-.326.487-.731.487l-19.775.246c-.406 0-.732-.22-.732-.487v-.259c0-.269.327-.488.732-.488h19.774c.405 0 .731.219.731.488v.013z"/><path fill="#525251" d="M44.725-1.896c0 .265-.322.481-.722.481l-19.642.217c-.4 0-.723-.216-.723-.481v-.229c0-.266.323-.482.723-.482h19.642c.399 0 .722.216.722.482v.012z"/><path fill="#515150" d="M44.705-1.902c0 .261-.318.475-.712.475l-19.508.19c-.396 0-.714-.214-.714-.476v-.201c0-.262.318-.476.714-.476h19.508c.394 0 .712.213.712.476v.012z"/><path fill="#50504F" d="M44.686-1.907c0 .258-.314.469-.703.469l-19.375.164c-.391 0-.705-.211-.705-.47v-.172c0-.259.314-.469.705-.469h19.375c.389 0 .703.21.703.469v.009z"/><path fill="#4F4F4E" d="M44.666-1.912c0 .255-.31.463-.694.463l-19.241.136c-.385 0-.695-.208-.695-.463v-.144c0-.255.31-.463.695-.463h19.241c.384 0 .694.208.694.463v.008z"/><path fill="#4E4E4D" d="M44.646-1.917c0 .251-.305.456-.685.456l-19.107.109c-.38 0-.686-.206-.686-.457v-.114c0-.252.306-.458.686-.458h19.108c.379 0 .685.205.685.458v.006z"/><path fill="#4D4D4C" d="M44.627-1.922c0 .247-.301.45-.675.45l-18.975.081c-.375 0-.676-.202-.676-.45v-.086c0-.249.301-.451.676-.451h18.975c.374 0 .675.202.675.451v.005z"/><path fill="#4C4C4B" d="M44.608-1.927c0 .245-.298.444-.667.444l-18.841.054c-.37 0-.667-.2-.667-.444v-.058c0-.245.297-.444.667-.444h18.842c.369 0 .667.2.667.444v.004z"/><path fill="#4B4B4A" d="M44.589-1.932c0 .241-.293.438-.657.438l-18.708.027c-.365 0-.658-.197-.658-.438v-.028c0-.242.293-.438.658-.438h18.708c.363 0 .657.196.657.438v.001z"/><path fill="#262626" d="M44.569-1.938c0 .237-.289.432-.647.432h-18.575c-.359 0-.648-.194-.648-.432s.289-.432.648-.432h18.575c.358 0 .647.194.647.432z"/></g><g clip-path="url(#b)"><path fill="#fff" d="M32.334-1.007c0 .863 1.05 1.563 2.345 1.563l42.828 4.944c1.296 0 2.347-.7 2.347-1.564v-5.222c0-.863-1.051-1.563-2.347-1.563h-42.828c-1.295 0-2.345.7-2.345 1.563v.279z"/><path fill="#FEFEFE" d="M32.354-1.012c0 .859 1.046 1.558 2.335 1.558l42.695 4.916c1.29 0 2.337-.697 2.337-1.559v-5.193c0-.859-1.047-1.557-2.337-1.557h-42.695c-1.29 0-2.335.697-2.335 1.557v.278z"/><path fill="#FDFDFD" d="M32.373-1.018c0 .856 1.042 1.551 2.326 1.551l42.561 4.89c1.286 0 2.328-.694 2.328-1.552v-5.164c0-.857-1.042-1.552-2.328-1.552h-42.561c-1.285 0-2.326.695-2.326 1.552v.275z"/><path fill="#FCFCFC" d="M32.393-1.022c0 .854 1.037 1.545 2.316 1.545l42.428 4.862c1.281 0 2.319-.692 2.319-1.546v-5.136c0-.853-1.038-1.545-2.319-1.545h-42.428c-1.279 0-2.316.692-2.316 1.545v.275z"/><path fill="#FBFBFB" d="M32.412-1.027c0 .85 1.033 1.539 2.307 1.539l42.295 4.835c1.275 0 2.31-.689 2.31-1.54v-5.107c0-.849-1.034-1.538-2.31-1.538h-42.295c-1.274 0-2.307.689-2.307 1.538v.273z"/><path fill="#FAFAFA" d="M32.431-1.032c0 .846 1.029 1.532 2.298 1.532l42.162 4.808c1.27 0 2.3-.687 2.3-1.533v-5.078c0-.847-1.03-1.532-2.3-1.532h-42.162c-1.27 0-2.298.686-2.298 1.532v.271z"/><path fill="#F9F9F9" d="M32.45-1.038c0 .843 1.025 1.526 2.289 1.526l42.028 4.78c1.265 0 2.29-.684 2.29-1.527v-5.049c0-.843-1.025-1.526-2.29-1.526h-42.028c-1.264 0-2.289.684-2.289 1.526v.27z"/><path fill="#F8F8F8" d="M32.47-1.043c0 .84 1.021 1.521 2.279 1.521l41.896 4.752c1.26 0 2.281-.681 2.281-1.521v-5.021c0-.839-1.021-1.52-2.281-1.52h-41.895c-1.259 0-2.279.681-2.279 1.52v.269z"/><path fill="#F7F7F7" d="M32.49-1.048c0 .836 1.017 1.515 2.27 1.515l41.762 4.726c1.255 0 2.272-.678 2.272-1.515v-4.992c0-.836-1.018-1.514-2.272-1.514h-41.762c-1.253 0-2.27.678-2.27 1.514v.266z"/><path fill="#F6F6F6" d="M32.509-1.053c0 .832 1.012 1.508 2.26 1.508l41.629 4.698c1.249 0 2.263-.675 2.263-1.508v-4.964c0-.833-1.014-1.508-2.263-1.508h-41.628c-1.249 0-2.26.675-2.26 1.508v.266z"/><path fill="#F5F5F5" d="M32.528-1.058c0 .828 1.008 1.501 2.251 1.501l41.496 4.671c1.244 0 2.253-.672 2.253-1.502v-4.935c0-.829-1.009-1.501-2.253-1.501h-41.496c-1.243 0-2.251.672-2.251 1.501v.265z"/><path fill="#F4F4F4" d="M32.548-1.062c0 .825 1.004 1.494 2.242 1.494l41.363 4.645c1.239 0 2.244-.669 2.244-1.496v-4.906c0-.825-1.005-1.494-2.244-1.494h-41.363c-1.238 0-2.242.669-2.242 1.494v.263z"/><path fill="#F3F3F3" d="M32.567-1.068c0 .822 1 1.489 2.232 1.489l41.229 4.617c1.234 0 2.234-.667 2.234-1.489v-4.878c0-.822-1-1.488-2.234-1.488h-41.228c-1.233 0-2.232.667-2.232 1.488v.261z"/><path fill="#F2F2F2" d="M32.586-1.073c0 .818.996 1.482 2.223 1.482l41.096 4.59c1.229 0 2.226-.663 2.226-1.483v-4.849c0-.818-.996-1.482-2.226-1.482h-41.095c-1.228 0-2.223.664-2.223 1.482v.26z"/><path fill="#F1F1F1" d="M32.606-1.079c0 .815.991 1.477 2.214 1.477l40.962 4.563c1.224 0 2.217-.661 2.217-1.478v-4.82c0-.815-.993-1.476-2.217-1.476h-40.962c-1.223 0-2.214.661-2.214 1.476v.258z"/><path fill="#F0F0F0" d="M32.625-1.084c0 .812.987 1.471 2.206 1.471l40.829 4.536c1.219 0 2.207-.659 2.207-1.472v-4.791c0-.812-.988-1.47-2.207-1.47h-40.829c-1.218 0-2.206.658-2.206 1.47v.256z"/><path fill="#EFEFEF" d="M32.645-1.088c0 .808.983 1.463 2.196 1.463l40.696 4.51c1.213 0 2.197-.656 2.197-1.465v-4.763c0-.809-.984-1.465-2.197-1.465h-40.696c-1.213 0-2.196.656-2.196 1.465v.255z"/><path fill="#eee" d="M32.664-1.094c0 .805.979 1.458 2.187 1.458l40.562 4.481c1.209 0 2.188-.653 2.188-1.459v-4.733c0-.805-.979-1.458-2.188-1.458h-40.562c-1.208 0-2.187.653-2.187 1.458v.253z"/><path fill="#EDEDED" d="M32.684-1.1c0 .802.974 1.452 2.177 1.452l40.43 4.454c1.203 0 2.179-.649 2.179-1.452v-4.705c0-.802-.976-1.452-2.179-1.452h-40.431c-1.203 0-2.177.65-2.177 1.452v.251z"/><path fill="#ECECEC" d="M32.703-1.104c0 .799.97 1.446 2.167 1.446l40.296 4.427c1.198 0 2.169-.647 2.169-1.446v-4.677c0-.798-.971-1.445-2.169-1.445h-40.295c-1.197 0-2.167.647-2.167 1.445v.25z"/><path fill="#EBEBEB" d="M32.723-1.109c0 .795.967 1.439 2.158 1.439l40.163 4.4c1.193 0 2.16-.645 2.16-1.44v-4.647c0-.795-.967-1.439-2.16-1.439h-40.163c-1.191 0-2.158.645-2.158 1.439v.248z"/><path fill="#EAEAEA" d="M32.742-1.114c0 .791.962 1.433 2.149 1.433l40.03 4.373c1.188 0 2.15-.642 2.15-1.434v-4.619c0-.792-.963-1.433-2.15-1.433h-40.03c-1.187 0-2.149.641-2.149 1.433v.247z"/><path fill="#E9E9E9" d="M32.761-1.119c0 .787.958 1.427 2.139 1.427l39.896 4.346c1.183 0 2.142-.64 2.142-1.428v-4.591c0-.788-.959-1.427-2.142-1.427h-39.896c-1.182 0-2.139.639-2.139 1.427v.246z"/><path fill="#E8E8E8" d="M32.781-1.124c0 .783.954 1.42 2.13 1.42l39.763 4.319c1.178 0 2.133-.637 2.133-1.422v-4.562c0-.784-.955-1.421-2.133-1.421h-39.763c-1.177 0-2.13.637-2.13 1.421v.245z"/><path fill="#E7E7E7" d="M32.801-1.129c0 .78.949 1.414 2.121 1.414l39.629 4.291c1.173 0 2.123-.633 2.123-1.415v-4.533c0-.78-.95-1.414-2.123-1.414h-39.629c-1.172 0-2.121.634-2.121 1.414v.243z"/><path fill="#E6E6E6" d="M32.819-1.135c0 .777.946 1.408 2.112 1.408l39.496 4.265c1.168 0 2.113-.631 2.113-1.409v-4.504c0-.778-.945-1.408-2.113-1.408h-39.495c-1.167 0-2.112.63-2.112 1.408v.24z"/><path fill="#E5E5E5" d="M32.839-1.141c0 .774.941 1.402 2.103 1.402l39.363 4.237c1.162 0 2.104-.628 2.104-1.403v-4.475c0-.774-.941-1.402-2.104-1.402h-39.364c-1.161 0-2.103.628-2.103 1.402v.239z"/><path fill="#E4E4E4" d="M32.858-1.146c0 .771.937 1.396 2.093 1.396l39.23 4.211c1.157 0 2.095-.625 2.095-1.396v-4.447c0-.771-.938-1.396-2.095-1.396h-39.23c-1.156 0-2.093.625-2.093 1.396v.236z"/><path fill="#E3E3E3" d="M32.878-1.149c0 .767.933 1.389 2.083 1.389l39.097 4.183c1.151 0 2.085-.622 2.085-1.39v-4.418c0-.768-.934-1.39-2.085-1.39h-39.096c-1.151 0-2.083.622-2.083 1.39v.236z"/><path fill="#E2E2E2" d="M32.897-1.155c0 .764.929 1.384 2.074 1.384l38.964 4.155c1.146 0 2.076-.62 2.076-1.384v-4.39c0-.764-.93-1.384-2.076-1.384h-38.963c-1.146 0-2.074.62-2.074 1.384v.235z"/><path fill="#E1E1E1" d="M32.917-1.16c0 .76.924 1.377 2.065 1.377l38.83 4.128c1.142 0 2.067-.616 2.067-1.378v-4.36c0-.76-.926-1.377-2.067-1.377h-38.83c-1.141 0-2.065.617-2.065 1.377v.233z"/><path fill="#E0E0E0" d="M32.936-1.165c0 .757.92 1.37 2.056 1.37l38.697 4.102c1.137 0 2.058-.613 2.058-1.371v-4.332c0-.757-.921-1.371-2.058-1.371h-38.697c-1.135 0-2.056.614-2.056 1.371v.231z"/><path fill="#DFDFDF" d="M32.956-1.17c0 .753.916 1.364 2.046 1.364l38.564 4.074c1.131 0 2.048-.611 2.048-1.365v-4.303c0-.753-.917-1.364-2.048-1.364h-38.564c-1.13 0-2.046.611-2.046 1.364v.23z"/><path fill="#DEDEDE" d="M32.975-1.176c0 .75.912 1.358 2.037 1.358l38.431 4.047c1.125 0 2.038-.608 2.038-1.358v-4.275c0-.75-.913-1.358-2.038-1.358h-38.431c-1.125 0-2.037.608-2.037 1.358v.228z"/><path fill="#ddd" d="M32.994-1.181c0 .746.908 1.352 2.028 1.352l38.297 4.021c1.121 0 2.029-.606 2.029-1.354v-4.246c0-.746-.908-1.352-2.029-1.352h-38.297c-1.12 0-2.028.605-2.028 1.352v.227z"/><path fill="#DCDCDC" d="M33.014-1.186c0 .743.904 1.346 2.019 1.346l38.164 3.992c1.116 0 2.021-.603 2.021-1.347v-4.217c0-.743-.904-1.346-2.021-1.346h-38.165c-1.115 0-2.019.603-2.019 1.346v.226z"/><path fill="#DBDBDB" d="M33.034-1.19c0 .739.899 1.34 2.009 1.34l38.03 3.965c1.11 0 2.011-.6 2.011-1.34v-4.189c0-.739-.9-1.34-2.011-1.34h-38.03c-1.11 0-2.009.601-2.009 1.34v.224z"/><path fill="#DADADA" d="M33.053-1.196c0 .736.895 1.334 2 1.334l37.897 3.938c1.105 0 2.001-.598 2.001-1.335v-4.16c0-.736-.896-1.333-2.001-1.333h-37.897c-1.105 0-2 .597-2 1.333v.223z"/><path fill="#D9D9D9" d="M33.072-1.201c0 .732.891 1.327 1.99 1.327l37.765 3.911c1.1 0 1.991-.595 1.991-1.328v-4.131c0-.733-.892-1.328-1.991-1.328h-37.765c-1.1 0-1.99.595-1.99 1.328v.221z"/><path fill="#D8D8D8" d="M33.092-1.206c0 .729.887 1.32 1.981 1.32l37.631 3.885c1.095 0 1.982-.592 1.982-1.322v-4.103c0-.729-.888-1.321-1.982-1.321h-37.631c-1.094 0-1.981.592-1.981 1.321v.22z"/><path fill="#D7D7D7" d="M33.111-1.211c0 .726.883 1.314 1.972 1.314l37.498 3.857c1.09 0 1.974-.59 1.974-1.316v-4.074c0-.725-.884-1.314-1.974-1.314h-37.498c-1.089 0-1.972.589-1.972 1.314v.219z"/><path fill="#D6D6D6" d="M33.13-1.217c0 .723.878 1.309 1.963 1.309l37.364 3.83c1.085 0 1.965-.586 1.965-1.31v-4.045c0-.723-.88-1.309-1.965-1.309h-37.364c-1.084 0-1.963.586-1.963 1.309v.216z"/><path fill="#D5D5D5" d="M33.15-1.222c0 .719.875 1.302 1.953 1.302l37.231 3.803c1.08 0 1.955-.583 1.955-1.303v-4.017c0-.719-.875-1.303-1.955-1.303h-37.231c-1.079 0-1.953.583-1.953 1.303v.215z"/><path fill="#D4D4D4" d="M33.169-1.227c0 .715.87 1.296 1.944 1.296l37.098 3.775c1.074 0 1.945-.581 1.945-1.297v-3.987c0-.715-.871-1.296-1.945-1.296h-37.098c-1.074 0-1.944.581-1.944 1.296v.213z"/><path fill="#D3D3D3" d="M33.189-1.231c0 .712.866 1.29 1.934 1.29l36.965 3.748c1.069 0 1.936-.578 1.936-1.291v-3.959c0-.712-.866-1.29-1.936-1.29h-36.964c-1.068 0-1.934.578-1.934 1.29v.212z"/><path fill="#D2D2D2" d="M33.208-1.237c0 .709.862 1.284 1.925 1.284l36.832 3.721c1.064 0 1.927-.575 1.927-1.284v-3.931c0-.708-.862-1.283-1.927-1.283h-36.832c-1.063 0-1.925.575-1.925 1.283v.21z"/><path fill="#D1D1D1" d="M33.228-1.242c0 .705.857 1.277 1.916 1.277l36.699 3.693c1.059 0 1.917-.572 1.917-1.277v-3.902c0-.705-.858-1.277-1.917-1.277h-36.7c-1.058 0-1.916.572-1.916 1.277v.209z"/><path fill="#D0D0D0" d="M33.247-1.247c0 .701.854 1.271 1.906 1.271l36.566 3.666c1.054 0 1.908-.569 1.908-1.271v-3.874c0-.701-.854-1.271-1.908-1.271h-36.566c-1.053 0-1.906.569-1.906 1.271v.208z"/><path fill="#CFCFCF" d="M33.267-1.252c0 .698.85 1.265 1.897 1.265l36.432 3.64c1.049 0 1.898-.566 1.898-1.266v-3.844c0-.699-.85-1.266-1.898-1.266h-36.432c-1.048 0-1.897.566-1.897 1.266v.205z"/><path fill="#CECECE" d="M33.286-1.258c0 .695.845 1.26 1.888 1.26l36.298 3.611c1.044 0 1.89-.563 1.89-1.259v-3.815c0-.695-.846-1.26-1.89-1.26h-36.298c-1.043 0-1.888.564-1.888 1.26v.203z"/><path fill="#CDCDCD" d="M33.306-1.263c0 .691.84 1.253 1.878 1.253l36.166 3.585c1.037 0 1.879-.562 1.879-1.254v-3.787c0-.691-.842-1.252-1.879-1.252h-36.166c-1.038 0-1.878.561-1.878 1.252v.203z"/><path fill="#ccc" d="M33.325-1.268c0 .688.837 1.246 1.87 1.246l36.032 3.559c1.033 0 1.87-.559 1.87-1.247v-3.759c0-.688-.837-1.246-1.87-1.246h-36.033c-1.033 0-1.87.558-1.87 1.246v.201z"/><path fill="#CBCBCB" d="M33.345-1.272c0 .685.832 1.24 1.859 1.24l35.899 3.53c1.028 0 1.861-.555 1.861-1.24v-3.729c0-.685-.833-1.24-1.861-1.24h-35.899c-1.027 0-1.859.555-1.859 1.24v.199z"/><path fill="#CACACA" d="M33.363-1.277c0 .681.829 1.233 1.851 1.233l35.765 3.504c1.023 0 1.853-.553 1.853-1.235v-3.701c0-.681-.829-1.233-1.853-1.233h-35.765c-1.022 0-1.851.553-1.851 1.233v.199z"/><path fill="#C9C9C9" d="M33.383-1.283c0 .678.824 1.228 1.841 1.228l35.631 3.477c1.019 0 1.844-.55 1.844-1.228v-3.673c0-.678-.825-1.228-1.844-1.228h-35.631c-1.017 0-1.841.55-1.841 1.228v.196z"/><path fill="#C8C8C8" d="M33.402-1.288c0 .675.82 1.222 1.832 1.222l35.499 3.449c1.013 0 1.833-.547 1.833-1.223v-3.643c0-.675-.82-1.222-1.833-1.222h-35.499c-1.012 0-1.832.547-1.832 1.222v.195z"/><path fill="#C7C7C7" d="M33.422-1.293c0 .671.815 1.215 1.822 1.215l35.366 3.423c1.008 0 1.824-.545 1.824-1.216v-3.615c0-.671-.816-1.216-1.824-1.216h-35.365c-1.007 0-1.822.545-1.822 1.216v.193z"/><path fill="#C6C6C6" d="M33.441-1.299c0 .668.812 1.21 1.813 1.21l35.233 3.395c1.003 0 1.814-.542 1.814-1.21v-3.586c0-.667-.812-1.209-1.814-1.209h-35.233c-1.001 0-1.813.542-1.813 1.209v.191z"/><path fill="#C5C5C5" d="M33.461-1.304c0 .664.808 1.202 1.803 1.202l35.099 3.369c.998 0 1.806-.539 1.806-1.204v-3.558c0-.664-.808-1.203-1.806-1.203h-35.099c-.996 0-1.803.539-1.803 1.203v.191z"/><path fill="#C4C4C4" d="M33.48-1.309c0 .66.803 1.197 1.795 1.197l34.965 3.34c.993 0 1.797-.535 1.797-1.197v-3.528c0-.661-.804-1.197-1.797-1.197h-34.965c-.992 0-1.795.536-1.795 1.197v.188z"/><path fill="#C3C3C3" d="M33.5-1.313c0 .657.799 1.19 1.785 1.19l34.832 3.313c.987 0 1.787-.533 1.787-1.19v-3.501c0-.657-.8-1.19-1.787-1.19h-34.832c-.986 0-1.785.533-1.785 1.19v.188z"/><path fill="#C2C2C2" d="M33.519-1.318c0 .652.795 1.184 1.776 1.184l34.699 3.287c.982 0 1.777-.531 1.777-1.186v-3.471c0-.654-.795-1.185-1.777-1.185h-34.699c-.98 0-1.776.53-1.776 1.185v.186z"/><path fill="#C1C1C1" d="M33.539-1.324c0 .65.791 1.178 1.766 1.178l34.566 3.26c.977 0 1.768-.528 1.768-1.179v-3.442c0-.651-.791-1.179-1.768-1.179h-34.566c-.976 0-1.766.527-1.766 1.179v.183z"/><path fill="#C0C0C0" d="M33.558-1.329c0 .646.787 1.172 1.758 1.172l34.433 3.231c.972 0 1.759-.524 1.759-1.172v-3.414c0-.647-.787-1.172-1.759-1.172h-34.434c-.971 0-1.758.525-1.758 1.172v.183z"/><path fill="#BFBFBF" d="M33.578-1.334c0 .644.782 1.166 1.747 1.166l34.3 3.204c.967 0 1.75-.521 1.75-1.166v-3.385c0-.644-.783-1.166-1.75-1.166h-34.3c-.965 0-1.747.522-1.747 1.166v.181z"/><path fill="#BEBEBE" d="M33.597-1.339c0 .64.778 1.159 1.739 1.159l34.167 3.178c.961 0 1.74-.52 1.74-1.16v-3.356c0-.641-.779-1.159-1.74-1.159h-34.168c-.96 0-1.739.519-1.739 1.159v.179z"/><path fill="#BDBDBD" d="M33.616-1.345c0 .637.773 1.153 1.729 1.153l34.033 3.15c.957 0 1.731-.517 1.731-1.153v-3.328c0-.637-.774-1.153-1.731-1.153h-34.033c-.956 0-1.729.517-1.729 1.153v.178z"/><path fill="#BCBCBC" d="M33.636-1.35c0 .633.77 1.146 1.72 1.146l33.9 3.124c.951 0 1.721-.515 1.721-1.147v-3.299c0-.634-.77-1.147-1.721-1.147h-33.9c-.95 0-1.72.514-1.72 1.147v.176z"/><path fill="#bbb" d="M33.655-1.354c0 .63.766 1.141 1.711 1.141l33.767 3.097c.945 0 1.712-.512 1.712-1.142v-3.271c0-.63-.767-1.141-1.712-1.141h-33.767c-.945 0-1.711.511-1.711 1.141v.175z"/><path fill="#BABABA" d="M33.675-1.359c0 .626.761 1.134 1.701 1.134l33.634 3.069c.94 0 1.702-.508 1.702-1.135v-3.242c0-.626-.762-1.135-1.702-1.135h-33.634c-.94 0-1.701.509-1.701 1.135v.174z"/><path fill="#B9B9B9" d="M33.694-1.365c0 .623.757 1.129 1.692 1.129l33.5 3.041c.936 0 1.693-.505 1.693-1.129v-3.213c0-.623-.758-1.128-1.693-1.128h-33.5c-.935 0-1.692.505-1.692 1.128v.172z"/><path fill="#B8B8B8" d="M33.713-1.37c0 .619.753 1.122 1.683 1.122l33.366 3.015c.931 0 1.685-.503 1.685-1.122v-3.185c0-.619-.754-1.122-1.685-1.122h-33.366c-.93 0-1.683.503-1.683 1.122v.17z"/><path fill="#B7B7B7" d="M33.733-1.375c0 .615.749 1.116 1.673 1.116l33.234 2.988c.926 0 1.675-.5 1.675-1.116v-3.156c0-.615-.749-1.115-1.675-1.115h-33.234c-.924 0-1.673.5-1.673 1.115v.168z"/><path fill="#B6B6B6" d="M33.752-1.38c0 .612.745 1.109 1.664 1.109l33.101 2.96c.92 0 1.665-.497 1.665-1.109v-3.128c0-.612-.745-1.109-1.665-1.109h-33.101c-.919 0-1.664.497-1.664 1.109v.168z"/><path fill="#B5B5B5" d="M33.771-1.386c0 .608.74 1.104 1.654 1.104l32.968 2.934c.915 0 1.655-.495 1.655-1.104v-3.099c0-.609-.74-1.104-1.655-1.104h-32.967c-.914 0-1.654.494-1.654 1.104v.165z"/><path fill="#B4B4B4" d="M33.791-1.391c0 .605.736 1.098 1.646 1.098l32.834 2.906c.909 0 1.646-.492 1.646-1.098v-3.07c0-.605-.737-1.097-1.646-1.097h-32.834c-.909 0-1.646.491-1.646 1.097v.164z"/><path fill="#B3B3B3" d="M33.811-1.395c0 .602.732 1.09 1.635 1.09l32.701 2.879c.905 0 1.638-.488 1.638-1.091v-3.042c0-.602-.732-1.091-1.638-1.091h-32.701c-.903 0-1.635.489-1.635 1.091v.164z"/><path fill="#B2B2B2" d="M33.83-1.4c0 .599.729 1.084 1.627 1.084l32.566 2.853c.9 0 1.629-.486 1.629-1.085v-3.013c0-.599-.729-1.085-1.629-1.085h-32.566c-.898 0-1.627.486-1.627 1.085v.161z"/><path fill="#B1B1B1" d="M33.85-1.406c0 .596.724 1.079 1.617 1.079l32.433 2.824c.895 0 1.619-.483 1.619-1.079v-2.983c0-.596-.725-1.079-1.619-1.079h-32.433c-.894 0-1.617.483-1.617 1.079v.159z"/><path fill="#B0B0B0" d="M33.869-1.411c0 .592.72 1.072 1.608 1.072l32.3 2.798c.89 0 1.609-.48 1.609-1.073v-2.955c0-.591-.72-1.072-1.609-1.072h-32.3c-.888 0-1.608.481-1.608 1.072v.158z"/><path fill="#AFAFAF" d="M33.889-1.416c0 .588.716 1.066 1.599 1.066l32.167 2.771c.885 0 1.601-.478 1.601-1.066v-2.927c0-.588-.716-1.066-1.601-1.066h-32.168c-.883 0-1.599.478-1.599 1.066v.156z"/><path fill="#AFAEAE" d="M33.908-1.421c0 .584.711 1.06 1.589 1.06l32.034 2.744c.879 0 1.591-.476 1.591-1.062v-2.897c0-.585-.712-1.06-1.591-1.06h-32.034c-.878 0-1.589.475-1.589 1.06v.155z"/><path fill="#AEADAD" d="M33.927-1.426c0 .58.707 1.053 1.58 1.053l31.901 2.716c.873 0 1.581-.472 1.581-1.054v-2.869c0-.581-.708-1.054-1.581-1.054h-31.901c-.873 0-1.58.473-1.58 1.054v.154z"/><path fill="#ADACAC" d="M33.946-1.432c0 .578.703 1.047 1.571 1.047l31.768 2.689c.869 0 1.572-.47 1.572-1.047v-2.841c0-.578-.703-1.048-1.572-1.048h-31.767c-.868 0-1.571.47-1.571 1.048v.152z"/><path fill="#ACABAB" d="M33.967-1.436c0 .574.698 1.041 1.561 1.041l31.635 2.661c.863 0 1.562-.467 1.562-1.042v-2.811c0-.575-.699-1.042-1.562-1.042h-31.636c-.862 0-1.561.467-1.561 1.042v.151z"/><path fill="#ABAAAA" d="M33.985-1.441c0 .57.694 1.035 1.552 1.035l31.502 2.634c.857 0 1.553-.464 1.553-1.034v-2.784c0-.572-.695-1.035-1.553-1.035h-31.502c-.857 0-1.552.463-1.552 1.035v.149z"/><path fill="#AAA9A9" d="M34.005-1.447c0 .568.69 1.029 1.543 1.029l31.367 2.607c.854 0 1.544-.461 1.544-1.029v-2.755c0-.567-.69-1.028-1.544-1.028h-31.367c-.853 0-1.543.461-1.543 1.028v.148z"/><path fill="#A9A8A8" d="M34.024-1.452c0 .564.686 1.022 1.533 1.022l31.234 2.58c.849 0 1.535-.457 1.535-1.022v-2.726c0-.564-.687-1.022-1.535-1.022h-31.233c-.847 0-1.533.458-1.533 1.022v.146z"/><path fill="#A8A7A7" d="M34.044-1.456c0 .561.682 1.016 1.524 1.016l31.101 2.554c.844 0 1.526-.456 1.526-1.018v-2.696c0-.562-.683-1.017-1.526-1.017h-31.101c-.842 0-1.524.455-1.524 1.017v.144z"/><path fill="#A7A6A6" d="M34.063-1.462c0 .558.678 1.01 1.515 1.01l30.968 2.526c.839 0 1.517-.453 1.517-1.011v-2.668c0-.558-.678-1.011-1.517-1.011h-30.968c-.837 0-1.515.453-1.515 1.011v.143z"/><path fill="#A6A5A5" d="M34.083-1.467c0 .554.673 1.003 1.505 1.003l30.835 2.499c.833 0 1.507-.45 1.507-1.004v-2.64c0-.554-.674-1.004-1.507-1.004h-30.835c-.832 0-1.505.45-1.505 1.004v.142z"/><path fill="#A5A4A4" d="M34.102-1.473c0 .551.669.998 1.496.998l30.702 2.472c.827 0 1.497-.447 1.497-.998v-2.61c0-.551-.67-.998-1.497-.998h-30.702c-.827 0-1.496.447-1.496.998v.138z"/><path fill="#A4A3A3" d="M34.121-1.478c0 .547.666.991 1.487.991l30.568 2.445c.822 0 1.488-.445 1.488-.992v-2.582c0-.547-.666-.992-1.488-.992h-30.568c-.821 0-1.487.444-1.487.992v.138z"/><path fill="#A3A2A2" d="M34.141-1.482c0 .543.661.984 1.477.984l30.435 2.418c.818 0 1.479-.441 1.479-.985v-2.554c0-.544-.661-.985-1.479-.985h-30.435c-.816 0-1.477.441-1.477.985v.137z"/><path fill="#A2A1A1" d="M34.16-1.487c0 .54.657.979 1.469.979l30.302 2.391c.812 0 1.47-.439 1.47-.979v-2.525c0-.54-.658-.979-1.47-.979h-30.302c-.812 0-1.469.438-1.469.979v.134z"/><path fill="#A1A0A0" d="M34.18-1.493c0 .537.653.974 1.459.974l30.168 2.362c.808 0 1.461-.436 1.461-.974v-2.496c0-.536-.653-.973-1.461-.973h-30.168c-.806 0-1.459.437-1.459.973v.134z"/><path fill="#A09F9F" d="M34.199-1.498c0 .533.648.967 1.449.967l30.035 2.336c.803 0 1.451-.434 1.451-.967v-2.468c0-.534-.648-.967-1.451-.967h-30.035c-.801 0-1.449.433-1.449.967v.132z"/><path fill="#9F9E9E" d="M34.219-1.503c0 .529.644.96 1.439.96l29.902 2.309c.797 0 1.441-.43 1.441-.96v-2.438c0-.531-.645-.961-1.441-.961h-29.902c-.795 0-1.439.43-1.439.961v.129z"/><path fill="#9E9D9D" d="M34.238-1.508c0 .525.64.954 1.431.954l29.769 2.281c.792 0 1.432-.428 1.432-.954v-2.41c0-.527-.64-.954-1.432-.954h-29.769c-.791 0-1.431.427-1.431.954v.129z"/><path fill="#9D9C9C" d="M34.257-1.513c0 .522.636.947 1.422.947l29.635 2.255c.786 0 1.423-.426 1.423-.948v-2.382c0-.523-.637-.948-1.423-.948h-29.635c-.786 0-1.422.425-1.422.948v.128z"/><path fill="#9C9B9B" d="M34.277-1.519c0 .52.631.942 1.412.942l29.502 2.227c.781 0 1.414-.422 1.414-.941v-2.354c0-.52-.633-.941-1.414-.941h-29.502c-.78 0-1.412.422-1.412.941v.126z"/><path fill="#9B9A9A" d="M34.296-1.523c0 .516.627.936 1.403.936l29.369 2.2c.776 0 1.404-.42 1.404-.936v-2.324c0-.517-.628-.936-1.404-.936h-29.369c-.775 0-1.403.419-1.403.936v.124z"/><path fill="#9A9999" d="M34.315-1.528c0 .513.624.929 1.394.929l29.236 2.173c.771 0 1.395-.417 1.395-.929v-2.296c0-.513-.624-.929-1.395-.929h-29.236c-.77 0-1.394.416-1.394.929v.123z"/><path fill="#999898" d="M34.335-1.533c0 .509.619.923 1.384.923l29.103 2.146c.766 0 1.385-.414 1.385-.924v-2.267c0-.509-.619-.923-1.385-.923h-29.102c-.765 0-1.384.414-1.384.923v.122z"/><path fill="#989797" d="M34.354-1.539c0 .506.615.917 1.375.917l28.97 2.119c.76 0 1.376-.412 1.376-.917v-2.238c0-.506-.616-.917-1.376-.917h-28.97c-.76 0-1.375.411-1.375.917v.119z"/><path fill="#979696" d="M34.374-1.544c0 .502.611.911 1.365.911l28.837 2.091c.755 0 1.366-.408 1.366-.911v-2.209c0-.502-.611-.911-1.366-.911h-28.837c-.754 0-1.365.409-1.365.911v.118z"/><path fill="#969595" d="M34.394-1.549c0 .498.606.904 1.356.904l28.702 2.065c.751 0 1.358-.406 1.358-.905v-2.181c0-.499-.607-.904-1.358-.904h-28.702c-.75 0-1.356.405-1.356.904v.117z"/><path fill="#959494" d="M34.413-1.554c0 .495.603.897 1.347.897l28.569 2.037c.745 0 1.349-.402 1.349-.898v-2.151c0-.496-.604-.898-1.349-.898h-28.569c-.744 0-1.347.402-1.347.898v.115z"/><path fill="#949393" d="M34.433-1.559c0 .491.598.892 1.337.892l28.436 2.01c.74 0 1.339-.399 1.339-.893v-2.123c0-.492-.599-.892-1.339-.892h-28.436c-.74 0-1.337.399-1.337.892v.114z"/><path fill="#939292" d="M34.452-1.564c0 .488.594.886 1.328.886l28.303 1.983c.735 0 1.329-.397 1.329-.887v-2.094c0-.489-.594-.887-1.329-.887h-28.303c-.734 0-1.328.397-1.328.887v.112z"/><path fill="#929191" d="M34.472-1.569c0 .485.589.88 1.318.88l28.17 1.955c.729 0 1.32-.395 1.32-.88v-2.066c0-.485-.591-.88-1.32-.88h-28.17c-.729 0-1.318.395-1.318.88v.111z"/><path fill="#919090" d="M34.491-1.574c0 .481.585.873 1.31.873l28.037 1.928c.725 0 1.311-.391 1.311-.873v-2.037c0-.481-.586-.874-1.311-.874h-28.038c-.724 0-1.31.392-1.31.874v.109z"/><path fill="#908F8F" d="M34.51-1.579c0 .478.582.866 1.301.866l27.903 1.902c.72 0 1.302-.39 1.302-.868v-2.008c0-.479-.582-.868-1.302-.868h-27.903c-.719 0-1.301.388-1.301.868v.108z"/><path fill="#8F8E8E" d="M34.529-1.585c0 .476.578.861 1.291.861l27.77 1.874c.715 0 1.293-.387 1.293-.861v-1.979c0-.476-.578-.861-1.293-.861h-27.77c-.713 0-1.291.386-1.291.861v.105z"/><path fill="#8E8E8D" d="M34.549-1.59c0 .472.573.854 1.281.854l27.637 1.847c.71 0 1.283-.383 1.283-.854v-1.951c0-.472-.573-.854-1.283-.854h-27.637c-.708 0-1.281.383-1.281.854v.104z"/><path fill="#8D8D8C" d="M34.568-1.595c0 .468.569.848 1.272.848l27.503 1.82c.705 0 1.274-.38 1.274-.849v-1.922c0-.469-.569-.85-1.274-.85h-27.502c-.703 0-1.272.381-1.272.85v.103z"/><path fill="#8C8C8B" d="M34.588-1.6c0 .464.565.842 1.263.842l27.37 1.792c.699 0 1.265-.377 1.265-.842v-1.894c0-.465-.565-.843-1.265-.843h-27.37c-.698 0-1.263.378-1.263.843v.102z"/><path fill="#8B8B8A" d="M34.607-1.605c0 .461.561.836 1.253.836l27.237 1.766c.694 0 1.255-.375 1.255-.836v-1.865c0-.461-.561-.836-1.255-.836h-27.236c-.693 0-1.253.375-1.253.836v.099z"/><path fill="#8A8A89" d="M34.627-1.61c0 .458.557.83 1.244.83l27.104 1.738c.689 0 1.245-.372 1.245-.83v-1.836c0-.459-.556-.83-1.245-.83h-27.104c-.688 0-1.244.371-1.244.83v.098z"/><path fill="#898988" d="M34.646-1.615c0 .454.552.823 1.235.823l26.971 1.711c.684 0 1.236-.369 1.236-.823v-1.808c0-.455-.553-.824-1.236-.824h-26.971c-.683 0-1.235.369-1.235.824v.097z"/><path fill="#888887" d="M34.666-1.62c0 .45.548.816 1.225.816l26.837 1.685c.678 0 1.227-.367 1.227-.817v-1.778c0-.452-.549-.818-1.227-.818h-26.837c-.677 0-1.225.366-1.225.818v.094z"/><path fill="#878786" d="M34.685-1.625c0 .446.543.811 1.216.811l26.704 1.657c.673 0 1.217-.364 1.217-.812v-1.75c0-.448-.544-.812-1.217-.812h-26.704c-.673 0-1.216.364-1.216.812v.094z"/><path fill="#868685" d="M34.704-1.631c0 .443.54.805 1.207.805l26.571 1.63c.668 0 1.208-.361 1.208-.806v-1.721c0-.444-.54-.805-1.208-.805h-26.571c-.667 0-1.207.361-1.207.805v.092z"/><path fill="#858584" d="M34.724-1.636c0 .44.536.799 1.198.799l26.437 1.603c.663 0 1.199-.358 1.199-.799v-1.693c0-.44-.536-.799-1.199-.799h-26.437c-.662 0-1.198.358-1.198.799v.09z"/><path fill="#848483" d="M34.743-1.641c0 .437.531.792 1.188.792l26.304 1.575c.658 0 1.19-.355 1.19-.793v-1.663c0-.438-.532-.792-1.19-.792h-26.303c-.657 0-1.188.354-1.188.792v.089z"/><path fill="#838382" d="M34.763-1.646c0 .434.527.786 1.179.786l26.171 1.548c.652 0 1.18-.352 1.18-.786v-1.635c0-.435-.527-.787-1.18-.787h-26.171c-.652 0-1.179.353-1.179.787v.087z"/><path fill="#828281" d="M34.782-1.65c0 .43.523.779 1.169.779l26.038 1.521c.647 0 1.171-.351 1.171-.781v-1.605c0-.431-.523-.781-1.171-.781h-26.037c-.646 0-1.169.35-1.169.781v.086z"/><path fill="#818180" d="M34.802-1.656c0 .426.519.773 1.16.773l25.904 1.494c.643 0 1.161-.348 1.161-.773v-1.578c0-.427-.519-.774-1.161-.774h-25.904c-.642 0-1.16.347-1.16.774v.084z"/><path fill="#80807F" d="M34.821-1.662c0 .424.514.768 1.151.768l25.771 1.467c.638 0 1.152-.344 1.152-.768v-1.549c0-.424-.515-.768-1.152-.768h-25.771c-.637 0-1.151.344-1.151.768v.082z"/><path fill="#7F7F7E" d="M34.84-1.666c0 .419.511.761 1.142.761l25.638 1.439c.632 0 1.143-.342 1.143-.761v-1.521c0-.42-.511-.762-1.143-.762h-25.638c-.631 0-1.142.342-1.142.762v.082z"/><path fill="#7E7E7D" d="M34.86-1.672c0 .416.506.756 1.132.756l25.505 1.412c.626 0 1.134-.34 1.134-.756v-1.492c0-.416-.508-.755-1.134-.755h-25.505c-.626 0-1.132.339-1.132.755v.08z"/><path fill="#7D7D7C" d="M34.879-1.677c0 .413.502.749 1.123.749l25.371 1.385c.622 0 1.125-.336 1.125-.748v-1.464c0-.414-.503-.75-1.125-.75h-25.371c-.62 0-1.123.336-1.123.75v.078z"/><path fill="#7C7C7B" d="M34.898-1.682c0 .409.499.742 1.114.742l25.238 1.359c.617 0 1.115-.333 1.115-.743v-1.435c0-.41-.498-.743-1.115-.743h-25.237c-.616 0-1.114.333-1.114.743v.077z"/><path fill="#7B7B7A" d="M34.918-1.688c0 .406.494.736 1.104.736l25.105 1.332c.611 0 1.105-.33 1.105-.736v-1.405c0-.407-.494-.737-1.105-.737h-25.105c-.61 0-1.104.331-1.104.737v.073z"/><path fill="#7A7A79" d="M34.938-1.691c0 .401.49.729 1.095.729l24.971 1.304c.606 0 1.097-.328 1.097-.73v-1.377c0-.403-.49-.73-1.097-.73h-24.971c-.605 0-1.095.327-1.095.73v.074z"/><path fill="#797978" d="M34.957-1.697c0 .398.485.725 1.086.725l24.838 1.276c.602 0 1.088-.325 1.088-.725v-1.349c0-.399-.486-.725-1.088-.725h-24.838c-.601 0-1.086.325-1.086.725v.073z"/><path fill="#787877" d="M34.977-1.702c0 .396.481.718 1.076.718l24.705 1.249c.596 0 1.078-.322 1.078-.718v-1.32c0-.396-.482-.718-1.078-.718h-24.705c-.595 0-1.076.322-1.076.718v.071z"/><path fill="#777776" d="M34.996-1.707c0 .392.477.711 1.067.711l24.572 1.223c.591 0 1.068-.319 1.068-.712v-1.291c0-.393-.478-.712-1.068-.712h-24.572c-.59 0-1.067.319-1.067.712v.069z"/><path fill="#767675" d="M35.015-1.713c0 .39.473.705 1.058.705l24.439 1.195c.585 0 1.059-.316 1.059-.705v-1.262c0-.389-.474-.706-1.059-.706h-24.439c-.584 0-1.058.316-1.058.706v.067z"/><path fill="#757574" d="M35.035-1.718c0 .386.469.699 1.048.699l24.306 1.168c.58 0 1.049-.313 1.049-.699v-1.234c0-.385-.469-.699-1.049-.699h-24.306c-.58 0-1.048.314-1.048.699v.066z"/><path fill="#747473" d="M35.054-1.723c0 .382.464.693 1.04.693l24.172 1.141c.575 0 1.04-.312 1.04-.693v-1.205c0-.383-.465-.693-1.04-.693h-24.172c-.575 0-1.04.311-1.04.693v.064z"/><path fill="#737372" d="M35.074-1.728c0 .378.46.687 1.03.687l24.038 1.113c.57 0 1.031-.308 1.031-.687v-1.177c0-.379-.461-.687-1.031-.687h-24.038c-.57 0-1.03.308-1.03.687v.064z"/><path fill="#727271" d="M35.093-1.733c0 .376.457.681 1.021.681l23.906 1.086c.564 0 1.021-.306 1.021-.681v-1.148c0-.375-.457-.68-1.021-.68h-23.906c-.564 0-1.021.305-1.021.68v.062z"/><path fill="#717170" d="M35.112-1.738c0 .372.452.674 1.011.674l23.772 1.06c.561 0 1.013-.303 1.013-.674v-1.119c0-.373-.452-.675-1.013-.675h-23.771c-.559 0-1.011.302-1.011.675v.059z"/><path fill="#70706F" d="M35.132-1.743c0 .368.448.668 1.002.668l23.639 1.032c.555 0 1.003-.3 1.003-.668v-1.091c0-.369-.448-.668-1.003-.668h-23.639c-.554 0-1.002.299-1.002.668v.059z"/><path fill="#6F6F6E" d="M35.151-1.748c0 .364.444.661.992.661l23.506 1.005c.55 0 .994-.297.994-.661v-1.062c0-.366-.444-.663-.994-.663h-23.505c-.548 0-.992.297-.992.663v.057z"/><path fill="#6E6E6D" d="M35.17-1.754c0 .361.44.656.983.656l23.373.978c.545 0 .984-.294.984-.655v-1.033c0-.362-.439-.656-.984-.656h-23.372c-.543 0-.983.294-.983.656v.054z"/><path fill="#6D6D6C" d="M35.19-1.759c0 .358.435.649.974.649l23.239.951c.539 0 .975-.292.975-.65v-1.004c0-.358-.436-.649-.975-.649h-23.239c-.539 0-.974.291-.974.649v.054z"/><path fill="#6C6C6B" d="M35.209-1.764c0 .354.431.644.964.644l23.105.923c.535 0 .966-.289.966-.643v-.976c0-.355-.431-.644-.966-.644h-23.104c-.533 0-.964.289-.964.644v.052z"/><path fill="#6B6B6A" d="M35.229-1.769c0 .351.427.637.956.637l22.973.896c.529 0 .956-.286.956-.638v-.946c0-.352-.427-.638-.956-.638h-22.973c-.528 0-.956.286-.956.638v.051z"/><path fill="#6A6A69" d="M35.248-1.774c0 .348.423.631.946.631l22.84.869c.523 0 .946-.283.946-.631v-.918c0-.348-.423-.631-.946-.631h-22.84c-.523 0-.946.283-.946.631v.049z"/><path fill="#696968" d="M35.268-1.779c0 .344.418.625.936.625l22.706.842c.52 0 .938-.28.938-.625v-.889c0-.345-.418-.625-.938-.625h-22.706c-.518 0-.936.28-.936.625v.047z"/><path fill="#686867" d="M35.287-1.784c0 .341.415.618.928.618l22.572.814c.515 0 .929-.277.929-.618v-.86c0-.341-.414-.619-.929-.619h-22.572c-.513 0-.928.277-.928.619v.046z"/><path fill="#676766" d="M35.307-1.789c0 .337.41.612.918.612l22.439.787c.509 0 .919-.274.919-.612v-.832c0-.338-.41-.612-.919-.612h-22.439c-.508 0-.918.274-.918.612v.045z"/><path fill="#666665" d="M35.326-1.794c0 .333.406.605.909.605l22.306.761c.504 0 .91-.272.91-.606v-.803c0-.335-.406-.606-.91-.606h-22.306c-.502 0-.909.271-.909.606v.043z"/><path fill="#656564" d="M35.346-1.8c0 .33.401.6.899.6l22.173.733c.498 0 .9-.27.9-.6v-.774c0-.331-.402-.6-.9-.6h-22.173c-.498 0-.899.269-.899.6v.041z"/><path fill="#646463" d="M35.365-1.805c0 .327.398.594.89.594l22.04.706c.493 0 .891-.267.891-.594v-.745c0-.328-.397-.595-.891-.595h-22.04c-.492 0-.89.267-.89.595v.039z"/><path fill="#636362" d="M35.385-1.81c0 .323.393.587.88.587l21.907.68c.488 0 .881-.265.881-.588v-.717c0-.324-.393-.588-.881-.588h-21.907c-.487 0-.88.264-.88.588v.038z"/><path fill="#626261" d="M35.404-1.814c0 .319.39.581.871.581l21.774.651c.482 0 .872-.261.872-.581v-.688c0-.32-.39-.582-.872-.582h-21.774c-.481 0-.871.261-.871.582v.037z"/><path fill="#616160" d="M35.423-1.819c0 .315.385.574.862.574l21.641.625c.478 0 .862-.259.862-.575v-.66c0-.317-.385-.575-.862-.575h-21.641c-.477 0-.862.258-.862.575v.036z"/><path fill="#60605F" d="M35.442-1.825c0 .313.381.568.853.568l21.507.598c.472 0 .854-.256.854-.568v-.631c0-.314-.382-.569-.854-.569h-21.507c-.472 0-.853.255-.853.569v.033z"/><path fill="#5F5F5E" d="M35.462-1.83c0 .31.376.562.843.562l21.373.57c.468 0 .845-.253.845-.562v-.603c0-.311-.377-.563-.845-.563h-21.372c-.467 0-.843.252-.843.563v.033z"/><path fill="#5E5E5D" d="M35.481-1.835c0 .306.373.556.834.556l21.24.544c.463 0 .835-.251.835-.557v-.574c0-.307-.372-.556-.835-.556h-21.24c-.461 0-.834.25-.834.556v.031z"/><path fill="#5D5D5C" d="M35.501-1.841c0 .303.369.551.825.551l21.107.516c.457 0 .826-.247.826-.55v-.545c0-.304-.369-.551-.826-.551h-21.107c-.456 0-.825.247-.825.551v.028z"/><path fill="#5C5C5B" d="M35.521-1.846c0 .299.364.544.815.544l20.974.49c.452 0 .816-.245.816-.544v-.517c0-.3-.364-.544-.816-.544h-20.974c-.451 0-.815.244-.815.544v.027z"/><path fill="#5B5B5A" d="M35.54-1.851c0 .296.36.537.806.537l20.841.462c.446 0 .807-.242.807-.537v-.488c0-.296-.36-.538-.807-.538h-20.841c-.446 0-.806.241-.806.538v.026z"/><path fill="#5A5A59" d="M35.559-1.855c0 .292.356.53.797.53l20.708.435c.441 0 .798-.238.798-.53v-.46c0-.293-.356-.532-.798-.532h-20.708c-.441 0-.797.238-.797.532v.025z"/><path fill="#595958" d="M35.579-1.86c0 .289.352.524.787.524l20.574.407c.437 0 .788-.235.788-.524v-.431c0-.29-.352-.525-.788-.525h-20.574c-.435 0-.787.236-.787.525v.024z"/><path fill="#585857" d="M35.598-1.866c0 .286.347.519.778.519l20.441.381c.431 0 .778-.233.778-.519v-.402c0-.287-.348-.52-.778-.52h-20.441c-.431 0-.778.233-.778.52v.021z"/><path fill="#575756" d="M35.618-1.871c0 .282.343.513.769.513l20.307.353c.427 0 .77-.229.77-.513v-.373c0-.283-.343-.513-.77-.513h-20.308c-.425 0-.769.23-.769.513v.02z"/><path fill="#565655" d="M35.637-1.876c0 .278.339.506.76.506l20.173.326c.421 0 .761-.228.761-.506v-.345c0-.279-.34-.507-.761-.507h-20.174c-.42 0-.76.228-.76.507v.019z"/><path fill="#555554" d="M35.657-1.881c0 .276.334.5.75.5l20.041.299c.416 0 .751-.226.751-.501v-.315c0-.276-.335-.501-.751-.501h-20.041c-.416 0-.75.225-.75.501v.017z"/><path fill="#545453" d="M35.676-1.887c0 .272.331.494.741.494l19.908.271c.411 0 .742-.222.742-.494v-.287c0-.272-.331-.494-.742-.494h-19.908c-.41 0-.741.222-.741.494v.016z"/><path fill="#535352" d="M35.695-1.892c0 .269.327.487.731.487l19.774.245c.405 0 .732-.22.732-.487v-.259c0-.269-.327-.488-.732-.488h-19.773c-.405 0-.731.219-.731.488v.014z"/><path fill="#525251" d="M35.715-1.896c0 .265.323.481.722.481l19.642.217c.4 0 .723-.216.723-.481v-.229c0-.266-.322-.482-.723-.482h-19.642c-.399 0-.722.216-.722.482v.012z"/><path fill="#515150" d="M35.734-1.902c0 .261.318.475.712.475l19.508.19c.395 0 .714-.214.714-.476v-.201c0-.262-.319-.476-.714-.476h-19.507c-.395 0-.712.213-.712.476v.012z"/><path fill="#50504F" d="M35.753-1.907c0 .258.314.469.704.469l19.374.163c.391 0 .705-.211.705-.47v-.172c0-.259-.314-.469-.705-.469h-19.374c-.389 0-.704.21-.704.469v.01z"/><path fill="#4F4F4E" d="M35.773-1.912c0 .255.31.463.693.463l19.242.136c.385 0 .694-.208.694-.463v-.144c0-.255-.31-.463-.694-.463h-19.241c-.384 0-.693.208-.693.463v.008z"/><path fill="#4E4E4D" d="M35.792-1.917c0 .251.306.456.685.456l19.108.109c.379 0 .685-.206.685-.457v-.114c0-.252-.306-.458-.685-.458h-19.107c-.379 0-.685.205-.685.458v.006z"/><path fill="#4D4D4C" d="M35.812-1.922c0 .247.301.45.675.45l18.975.081c.375 0 .677-.202.677-.45v-.086c0-.249-.302-.451-.677-.451h-18.975c-.374 0-.675.202-.675.451v.005z"/><path fill="#4C4C4B" d="M35.831-1.927c0 .245.298.444.667.444l18.841.055c.37 0 .667-.2.667-.444v-.058c0-.245-.297-.444-.667-.444h-18.841c-.369 0-.667.2-.667.444v.003z"/><path fill="#4B4B4A" d="M35.851-1.932c0 .241.292.438.656.438l18.708.027c.364 0 .658-.197.658-.438v-.028c0-.242-.294-.438-.658-.438h-18.708c-.364 0-.656.196-.656.438v.001z"/><path fill="#262626" d="M35.87-1.938c0 .237.289.432.647.432h18.575c.359 0 .648-.194.648-.432s-.289-.432-.648-.432h-18.574c-.359 0-.648.194-.648.432z"/></g></g></svg>