<svg xmlns="http://www.w3.org/2000/svg" width="300.549" height="286.884" viewBox="162.297 154.196 300.549 286.884" enable-background="new 162.297 154.196 300.549 286.884"><path fill="#009B5B" d="M384.452 335.047l30.911 30.898h-61.809c-18.918 0-34.154-20.505-48.162-45.895-4.775 9.474-9.711 19.064-15.021 28.336 16.17 25.574 35.461 44.879 63.186 44.879h61.819l-30.91 30.911 16.902 16.903 61.478-61.477-61.478-61.477-16.916 16.922zm-133.009-59.821c4.773-9.473 9.711-19.063 15.021-28.336-16.17-25.574-35.461-44.879-63.185-44.879h-40.981v27.322h40.981c18.92.001 34.155 20.506 48.164 45.893zm102.112-45.892h61.819l-30.91 30.91 16.901 16.903 61.479-61.477-61.479-61.475-16.915 16.916 30.911 30.897h-61.809c-42.6 0-65.346 45.507-87.357 89.519-18.291 36.582-37.207 74.417-62.916 74.417h-40.982v27.32h40.982c42.598 0 65.345-45.506 87.357-89.518 18.292-36.578 37.21-74.412 62.919-74.412z"/></svg>