<svg xmlns="http://www.w3.org/2000/svg" width="456.915" height="348.451" viewBox="76.292 146.796 456.915 348.451" enable-background="new 76.292 146.796 456.915 348.451"><path stroke="#222426" stroke-width="25" stroke-miterlimit="10" d="M455.587 164.411l-24.195 28.46c32.535 27.631 51.947 74.776 51.947 126.1 0 53.02-21.363 102.529-55.781 129.21l22.898 29.53c44.002-34.105 70.251-93.461 70.251-158.74 0-62.152-24.35-119.935-65.12-154.56zm-104.155 96.847l-26.249 26.595c7.185 7.099 11.467 18.722 11.467 31.119 0 14.041-5.63 27.218-14.333 33.572l22.035 30.188c18.582-13.573 29.669-37.405 29.669-63.761 0-22.501-8.237-43.552-22.589-57.713zm-262.64-3.454v128.242l83.065.553 98.375 81.961v-292.716l-98.375 81.96h-83.065zm311.168-48.51l-24.453 28.253c20.654 17.874 32.984 48.319 32.984 81.424 0 34.246-13.608 66.229-35.472 83.498l23.142 29.34c31.119-24.539 49.701-66.729 49.701-112.838 0-43.794-17.166-84.809-45.902-109.677z" fill="none"/></svg>