<svg xmlns="http://www.w3.org/2000/svg" width="287.29" height="287.288" viewBox="153.993 141.057 287.29 287.288" enable-background="new 153.993 141.057 287.29 287.288"><path fill="#F7F7F7" d="M438.054 284.703c0 77.547-62.869 140.416-140.416 140.416-77.548 0-140.415-62.869-140.415-140.416s62.867-140.416 140.415-140.416c77.547 0 140.416 62.869 140.416 140.416z"/><path fill="#C5C5C5" d="M297.638 428.345c-79.204 0-143.646-64.438-143.646-143.645 0-79.203 64.438-143.644 143.646-143.644s143.645 64.438 143.645 143.644c0 79.208-64.439 143.645-143.645 143.645zm0-280.831c-75.648 0-137.188 61.538-137.188 137.188 0 75.646 61.539 137.188 137.188 137.188 75.647 0 137.188-61.539 137.188-137.188.001-75.65-61.538-137.188-137.188-137.188z"/><polygon fill="#009B5B" points="373.313,285.477 303.105,244.958 303.105,281.064 240.538,244.958 240.538,326.009 303.105,289.89 303.105,326.009"/></svg>