<svg xmlns="http://www.w3.org/2000/svg" width="569.428" height="547.356" viewBox="0 0 569.42823 547.35621" enable-background="new 0 0 595.279 595.279"><path d="M475.864 192.88c-11.883 93.54-23.329 186.64-35.026 279.745-.594 4.725-.793 9.848-2.058 13.617-2.457 7.318-8.3 13.211-15.993 15.357-3.98 1.115-8.883.951-14.569.951-82.694.002-167.377 0-250.025 0-11.527 0-17.688-2.18-23.119-8.234-2.407-2.682-4.387-6.494-5.225-10.449-.866-4.088-.957-8.834-1.583-13.934-11.318-92.244-23.317-184.359-34.771-277.054h-26.849c-.21.031-.196.286-.181.542 13.09 105.965 26.808 211.264 39.747 316.709.714 5.818.819 11.234 1.807 15.898.956 4.512 3.216 8.863 5.962 11.924 6.197 6.906 13.226 9.395 26.377 9.395h285.272c6.487 0 12.081.184 16.621-1.084 8.779-2.451 15.445-9.178 18.248-17.525 1.444-4.303 1.671-10.148 2.349-15.537 13.394-106.611 26.497-213.211 40.107-320.321h-27.091z" fill="#e2e2e2"/><path d="M566.895 91.198c-4.604-11.411-15.057-16.466-29.518-18.213-.528-9.866-3.551-15.839-8.374-21.142-4.704-5.173-11.021-9.108-19.677-10.048-8.943-.971-18.446-.209-27.842-.209h-70.415c.109-9.39-.356-17.979-3.48-24.083-3.792-7.408-9.974-12.63-18.421-15.491-8.382-2.838-21.112-1.675-32.238-1.675h-135.44c-11.495 0-22.919-.758-33.913 0-10.996.758-19.486 6.778-24.492 14.444-4.602 7.046-5.375 15.985-5.2 26.805h-83.14c-4.771 0-9.843-.528-14.234 0-16.874 2.027-27.665 14.054-28.889 31.609-14.612 1.417-24.559 6.905-29.097 18.212-4.705 11.722-1.171 29.392-2.302 45.216h568.974c-1.1-15.833 2.398-33.771-2.302-45.425zm-49.805 22.193h-465.241c.925-7.985-1.965-16.902 1.884-22.818 3.71-5.706 11.845-8.475 23.791-9.19 1.001-8.859 9.824-14.928 23.622-15.951 3.591-.267 7.738 0 11.64 0h70.129c-.187-10.633.367-19.38 4.16-26.238 4.017-7.261 10.829-12.962 19.652-13.68 8.819-.719 17.987 0 27.21 0 36.081 0 72.44-.001 108.672 0 8.928 0 19.143-1.103 25.866 1.586 6.778 2.709 11.739 7.655 14.78 14.671 2.586 5.964 2.899 14.437 2.782 23.661h59.331c7.684 0 15.452-.384 22.765.105 7.077.474 12.245 2.459 16.091 5.071 3.942 2.676 6.414 5.691 6.846 10.669 11.826.881 20.372 3.432 24.135 9.19 3.845 5.882.986 14.934 1.885 22.924z" fill="#e2e2e2"/></svg>