<svg xmlns="http://www.w3.org/2000/svg" width="417.686" height="389.361"><g fill="#009B5B"><path d="M171.372 0h245.312v231.616h-66.326v-33.242h22.468c5.842 0 10.021.294 10.618-5.232.657-6.106 0-12.969 0-19.699-.002-38.978.003-79.099 0-118.192 0-6.49.349-12.914-.461-19.084-.709-.932-1.53-1.752-2.463-2.462-6.862-.815-14.061-.461-21.237-.461h-140.973c-6.811 0-13.116-1.036-13.85 5.079-.767 6.367.584 16.283 0 22.16-11.03-.102-22.47.206-33.242-.153v-59.867c-.013-.22-.026-.438.154-.463zM71.646 92.8h245.004c.721 76.611.104 154.57.31 231.771h-66.328v-33.241h14.618c4.89 0 10.285.763 14.312-.308 5.027-1.338 4.155-6.521 4.155-13.235-.002-45.958.003-91.101 0-137.585 0-6.818 1.082-12.967-4.769-14.004-3.179-.562-6.901-.154-10.621-.154h-150.357c-5.583 0-10.909-.73-12.62 2.771-1.363 2.789-.616 8.104-.616 12.004v12.619h-33.24v-60.174c-.015-.22-.026-.438.152-.464zM-.839 184.83h216.069c-.103 68.123.205 136.666-.151 204.531h-216.072v-204.069c-.013-.218-.027-.436.154-.462zm33.703 36.32c-.769 1.77-.616 4.925-.616 7.693v108.80799999999999c0 4.818-.699 13.501.77 16.006.274.467 1.09 1.167 1.385 1.385 2.807 2.068 12.072 1.077 17.237 1.077 37.604-.002 73.426.003 110.806 0 5.177-.001 14.51 1.052 17.393-1.077 3.18-2.35 2.154-11.144 2.154-17.391v-101.573c0-4.925.624-13.489-1.077-15.852-2.442-3.39-11.925-2.153-18.775-2.153h-106.805c-5.922 0-12.846-.538-18.006.153-1.638.22-3.541.787-4.466 2.924z"/></g></svg>