<svg xmlns="http://www.w3.org/2000/svg" width="450.943" height="360.496"><path fill="#009B5B" d="M405.842-1h-360.741c-24.904 0-45.102 20.189-45.102 45.096v214.188c0 24.903 20.195 45.097 45.103 45.097h145.043c6.854 3.325 11.248 8.429 11.248 14.149 0 5.615-4.235 10.609-10.86 13.938-43.245 1.945-74.32 7.312-74.32 13.623 0 7.959 49.354 14.404 110.229 14.404 60.887 0 110.23-6.445 110.23-14.404 0-6.18-29.738-11.441-71.521-13.495-7.521-3.304-12.404-8.646-12.404-14.691 0-5.375 3.896-10.197 10.052-13.522h143.047c24.91 0 45.1-20.19 45.1-45.097v-214.19c-.007-24.905-20.193-45.096-45.104-45.096zm18.79 263.043h-398.325v-226.048h398.321l.004 226.048z"/></svg>