<svg xmlns="http://www.w3.org/2000/svg" width="450.943" height="360.496" viewBox="80.003 122.145 450.943 360.496" enable-background="new 80.003 122.145 450.943 360.496"><path fill="#009B5B" d="M485.844 122.145h-360.74c-24.904 0-45.102 20.189-45.102 45.095v214.188c0 24.903 20.195 45.096 45.102 45.096h145.043c6.854 3.326 11.248 8.429 11.248 14.15 0 5.615-4.235 10.609-10.86 13.938-43.245 1.946-74.32 7.312-74.32 13.623 0 7.959 49.353 14.405 110.229 14.405 60.887 0 110.231-6.446 110.231-14.405 0-6.179-29.739-11.441-71.522-13.495-7.521-3.303-12.404-8.646-12.404-14.691 0-5.375 3.896-10.197 10.052-13.523h143.046c24.91 0 45.1-20.19 45.1-45.096v-214.19c-.005-24.904-20.192-45.095-45.103-45.095zm18.79 263.043h-398.324v-226.049h398.321l.003 226.049z"/></svg>