<svg xmlns="http://www.w3.org/2000/svg" width="466.63" height="320.319" viewBox="51.484 136.757 466.63 320.319" enable-background="new 51.484 136.757 466.63 320.319"><path fill="#009B5B" d="M334.628 381.857c-6.319-5.882-4.726-21.868-2.658-26.321 2.073-4.447 10.63-6.521 19.016-4.609 8.377 1.938 17.432-5.915 20.074-17.467 2.649-11.541-2.066-22.562-10.451-24.463-8.433-1.94-15.068-16.494-15.492-21.417-.434-4.915 5.943-11.028 14.221-13.544 8.225-2.535 12.128-13.851 8.639-25.176-3.48-11.318-13.059-18.495-21.31-15.979-8.224 2.533-21.218-6.664-24.066-10.74-2.85-4.078-.387-12.58 5.481-18.875 5.871-6.33 3.572-18.071-5.096-26.15-8.646-8.053-20.551-9.487-26.4-3.165-5.89 6.311-14.177 9.387-18.44 6.861-4.274-2.552-14.41-14.834-12.498-23.238 1.938-8.396-5.935-17.431-17.484-20.083-11.524-2.641-22.554 2.074-24.465 10.479-1.921 8.413-16.483 15.031-21.39 15.492-4.924.415-11.021-5.961-13.562-14.202-2.524-8.233-13.859-12.156-25.159-8.675-11.325 3.49-18.504 13.074-15.987 21.307 2.535 8.226-6.672 21.227-10.767 24.078-4.05 2.839-12.553.377-18.864-5.492-6.304-5.861-18.044-3.554-26.123 5.112-8.062 8.675-9.486 20.569-3.185 26.422 6.304 5.861 4.726 21.866 2.661 26.321-2.083 4.436-10.641 6.51-19.036 4.59-8.377-1.922-17.403 5.941-20.062 17.475-2.651 11.524 2.073 22.545 10.451 24.465 8.44 1.957 15.068 16.503 15.492 21.408.433 4.933-5.961 11.027-14.192 13.534-8.261 2.544-12.155 13.869-8.666 25.195 3.479 11.299 13.074 18.504 21.299 15.952 8.224-2.544 21.226 6.7 24.076 10.757 2.85 4.085.379 12.57-5.482 18.884-5.861 6.32-3.571 18.069 5.085 26.114 8.675 8.069 20.569 9.495 26.439 3.191 5.86-6.312 21.856-4.726 26.321-2.65 4.445 2.056 6.502 10.613 4.58 19.026-1.901 8.395 5.961 17.422 17.478 20.063 11.532 2.649 22.552-2.074 24.473-10.471 1.93-8.396 16.484-15.04 21.407-15.455 4.916-.442 11.012 5.94 13.554 14.202 2.542 8.224 13.868 12.129 25.187 8.629 11.317-3.472 18.477-13.057 15.953-21.288-2.545-8.226 6.689-21.22 10.746-24.078 4.104-2.83 12.58-.36 18.892 5.521 6.312 5.853 18.062 3.544 26.125-5.112 8.063-8.681 9.496-20.566 3.185-26.428zm-186.887-16.169c-37.979-35.283-40.164-94.7-4.869-132.683 35.303-37.981 94.729-40.135 132.71-4.851 37.962 35.293 40.138 94.709 4.833 132.683-35.295 37.991-94.701 40.145-132.674 4.851z"/><path fill="#009B5B" d="M388.332 322.319h129.782v-49.359h-129.58c1.052 7.838 1.605 15.833 1.605 23.959 0 8.625-.625 17.102-1.807 25.4z"/><path fill="#009B5B" d="M518.114 223.649v-49.359h-176.774c13.616 14.396 24.865 31.056 33.114 49.359h143.66z"/><path fill="#009B5B" d="M518.114 420.989v-49.359h-144.327c-8.468 18.348-19.956 35.013-33.831 49.359h178.158z"/></svg>