<svg xmlns="http://www.w3.org/2000/svg" width="398.918" height="398.904" viewBox="96.834 98.188 398.918 398.904" enable-background="new 96.834 98.188 398.918 398.904"><path fill="#fff" d="M491.273 297.64c0 107.676-87.305 194.976-194.981 194.976-107.676 0-194.97-87.3-194.97-194.976 0-107.677 87.294-194.977 194.97-194.977 107.677.001 194.981 87.301 194.981 194.977z"/><path fill="#C5C5C5" d="M296.292 497.092c-109.978 0-199.458-89.475-199.458-199.452s89.48-199.452 199.458-199.452c109.983 0 199.46 89.475 199.46 199.452s-89.477 199.452-199.46 199.452zm0-389.94c-105.041 0-190.493 85.446-190.493 190.488 0 105.04 85.452 190.486 190.493 190.486s190.493-85.446 190.493-190.486c0-105.042-85.452-190.488-190.493-190.488z"/><path stroke="#009B5B" stroke-width="7" stroke-miterlimit="10" d="M258.016 342.686h26.984v-90.094h-26.982v90.094h-.002zm53.091-90.093v90.095h26.982v-90.095h-26.982z" fill="none"/></svg>