<svg xmlns="http://www.w3.org/2000/svg" width="398.919" height="398.904" viewBox="88.337 86.004 398.919 398.904" enable-background="new 88.337 86.004 398.919 398.904"><path fill="#fff" d="M482.764 285.456c0 107.676-87.293 194.976-194.971 194.976-107.676 0-194.969-87.3-194.969-194.976s87.294-194.976 194.97-194.976c107.677 0 194.97 87.3 194.97 194.976z"/><path fill="#C5C5C5" d="M287.795 484.908c-109.982 0-199.458-89.477-199.458-199.452 0-109.977 89.475-199.452 199.458-199.452 109.979 0 199.461 89.475 199.461 199.452s-89.485 199.452-199.461 199.452zm0-389.939c-105.04 0-190.492 85.446-190.492 190.487s85.452 190.487 190.492 190.487c105.041 0 190.492-85.446 190.492-190.487s-85.451-190.487-190.492-190.487z"/><polygon stroke="#009B5B" stroke-width="7" stroke-miterlimit="10" points="258.762,235.706 258.762,335.206 344.959,285.462" fill="none"/></svg>