<svg xmlns="http://www.w3.org/2000/svg" width="287.289" height="287.288" viewBox="153.994 143.745 287.289 287.288" enable-background="new 153.994 143.745 287.289 287.288"><path fill="#fff" d="M438.057 287.389c0 77.546-62.871 140.415-140.416 140.415-77.547 0-140.416-62.869-140.416-140.415 0-77.548 62.869-140.416 140.416-140.416 77.545 0 140.416 62.87 140.416 140.416z"/><path fill="#C5C5C5" d="M297.641 431.033c-79.211 0-143.646-64.438-143.646-143.644 0-79.204 64.436-143.644 143.646-143.644 79.196 0 143.643 64.439 143.643 143.644-.001 79.204-64.445 143.644-143.643 143.644zm0-280.83c-75.656 0-137.188 61.539-137.188 137.188s61.532 137.188 137.188 137.188c75.643 0 137.188-61.539 137.188-137.188s-61.546-137.188-137.188-137.188z"/><polygon stroke="#009B5B" stroke-width="7" stroke-miterlimit="10" points="294.027,283.751 294.027,247.645 223.82,288.166 294.027,328.697 294.027,292.578 356.594,328.697 356.594,247.645" fill="none"/></svg>