<svg xmlns="http://www.w3.org/2000/svg" width="118.979" height="155.68"><g><path fill="#E8E8E8" d="M69.146.099c.093 0 .074.112.093.187 1.097 1.617 2.151 3.278 3.187 4.965-.007.155.068.242.187.278.267.292.438.677.65 1.029 0 .161.073.236.191.279.211.191.335.477.465.75.112.037.192.118.188.279.31.26.452.675.656 1.028-.007.155.067.242.186.279.311.446.676.825.844 1.407.545.545.911 1.276 1.309 1.965.117.037.197.124.191.279 11.324 17.541 22.63 35.095 33.887 52.697.111.043.187.124.18.285.359.428.632.937.941 1.401.268.391.539.773.75 1.221-.006.155.068.242.187.279.359.353.559.874.844 1.308-.007.167.068.248.187.285.267.292.445.676.655 1.029-.006.154.068.242.188.278 1.189 1.742 2.312 3.553 3.458 5.338.104.241.342.347.379.656.267.094-.025.396 0 .559h-.094l-.472.75c-1.01 1.604-2.032 3.205-3.086 4.772-.11.043-.191.118-.187.279-.268.458-.509.93-.843 1.313.024.149-.087.161-.095.279h-.092c-.18.384-.396.731-.658 1.029-.116.043-.19.118-.186.279l-.187.378c-.297.241-.341.719-.656.936.007.161-.067.242-.188.285-12.173 18.991-24.377 37.958-36.6 56.906.006.154-.068.241-.188.278-.081.322-.292.521-.472.75-.247.472-.532.904-.842 1.309-.112.043-.193.117-.188.285-1.519 2.473-3.087 4.896-4.68 7.302.019.104-.02.161-.093.186v.094c-11.584.197-23.511.062-35.263.087-1.588.013-3.174.013-4.761.013-.261.006-.509.006-.757 0-7.982.006-16.027-.05-23.986-.007-1.399-.062-3.05.124-4.302-.093-.112-.024-.099-.187 0-.187-.013-.081.037-.093.099-.093.074-.329.285-.521.459-.75.867-1.481 1.849-2.839 2.716-4.31 1.389-2.106 2.752-4.244 4.128-6.364l.187-.372h.086c12.312-19.185 24.62-38.35 36.979-57.478-.024-.147.087-.154.087-.278h.1c.445-.855 1.028-1.587 1.5-2.431-.024-.148.086-.161.086-.278h.101c.073-.175.234-.261.271-.472.979-1.494 1.935-3 2.907-4.494l.1-.372c-.131-.062-.181-.204-.192-.378-1.021-1.5-1.996-3.062-2.986-4.587l-.199-.372c.014-.16-.062-.24-.186-.278-.162-.341-.447-.552-.56-.942-.136-.074-.297-.13-.284-.372-.545-.824-1.078-1.667-1.586-2.529 0-.154-.074-.241-.187-.278-12.01-18.586-23.971-37.236-35.947-55.881-.186-.025-.186-.248-.271-.372-.284-.372-.509-.8-.756-1.216.013-.16-.062-.241-.188-.278-1.028-1.493-1.982-3.074-2.987-4.586-.843-1.444-1.86-2.709-2.628-4.215-.26-.365-.596-.657-.744-1.122-.087.019-.087-.037-.1-.094-.111-.024-.098-.185.001-.191"/><path d="M74.762 8.895"/><path d="M72.426 5.25"/><path d="M69.146 0v.099"/><g opacity=".86"><path fill="#fff" d="M97.46 77.665c-.023-.199-.18-.273-.24-.435-.764-1.165-1.5-2.36-2.281-3.508-.074-.024-.124-.074-.117-.18-.143-.229-.255-.483-.435-.675-.074-.025-.124-.081-.124-.187-.187-.285-.316-.632-.553-.862-.081-.024-.124-.08-.124-.186-.137-.291-.315-.545-.496-.799-.196-.311-.377-.64-.612-.924.006-.105-.043-.155-.124-.187-7.396-11.572-14.826-23.114-22.271-34.636.006-.105-.043-.161-.123-.187-.262-.451-.503-.936-.861-1.288-.105-.385-.354-.633-.553-.931-.08-.024-.123-.074-.123-.18-.137-.236-.229-.508-.428-.676 0-.111-.051-.161-.125-.187-.093-.18-.167-.366-.31-.496-.074-.024-.124-.075-.124-.18-.138-.229-.254-.49-.429-.676-.079-.025-.124-.081-.124-.187-.675-1.108-1.376-2.193-2.095-3.26-.013-.05 0-.124-.062-.124v-.062c-8.14-.144-16.543-.02-24.793-.062-.979.043-2.133-.081-3.013.062-.062 0-.073.104 0 .124l.062.062c.099.304.322.496.496.738.495.992 1.165 1.821 1.724 2.764.656.998 1.276 2.039 1.958 3.02.087.024.124.08.124.186.161.267.312.552.496.799.062.081.062.229.186.242 7.865 12.254 15.726 24.514 23.629 36.731.073.023.124.08.124.186.334.564.682 1.122 1.04 1.661-.012.155.101.191.187.248.075.254.261.396.366.614.081.024.13.08.124.186l.124.242c.663 1.004 1.296 2.033 1.972 3.019.006.118.037.21.123.248l-.068.248c-.632.979-1.264 1.971-1.901 2.951-.025.136-.131.198-.187.31h-.062l-.057.181c-.314.558-.693 1.035-.99 1.599h-.058l-.062.187c-8.126 12.576-16.215 25.172-24.305 37.777h-.062l-.123.242c-.905 1.396-1.798 2.802-2.703 4.184-.582.968-1.227 1.866-1.785 2.833-.11.154-.26.278-.31.496l-.062.062c-.062 0-.073.104 0 .118.818.147 1.908.023 2.826.062 8.312-.037 16.779.087 24.979-.062v-.057c.049-.02.073-.057.062-.124 1.047-1.581 2.082-3.174 3.08-4.798-.006-.11.044-.161.125-.186.197-.273.39-.56.551-.862.118-.154.254-.285.305-.495.081-.024.13-.081.124-.187 8.039-12.452 16.061-24.917 24.062-37.4.074-.031.123-.087.117-.192.211-.143.242-.452.434-.613l.124-.248c-.006-.105.044-.155.124-.181.174-.197.312-.428.429-.676h.062l.062-.186c.217-.254.378-.564.552-.862 0-.104.049-.161.124-.186.693-1.029 1.362-2.083 2.032-3.137l.305-.496h.062c-.02-.099.173-.297-.001-.359z"/><defs><filter filterUnits="userSpaceOnUse" x="36.87" y="26.587" width="60.663" height="102.403"><feColorMatrix values="1 0 0 0 0 0 1 0 0 0 0 0 1 0 0 0 0 0 1 0"/></filter></defs><path d="M97.46 77.665c-.023-.199-.18-.273-.24-.435-.764-1.165-1.5-2.36-2.281-3.508-.074-.024-.124-.074-.117-.18-.143-.229-.255-.483-.435-.675-.074-.025-.124-.081-.124-.187-.187-.285-.316-.632-.553-.862-.081-.024-.124-.08-.124-.186-.137-.291-.315-.545-.496-.799-.196-.311-.377-.64-.612-.924.006-.105-.043-.155-.124-.187-7.396-11.572-14.826-23.114-22.271-34.636.006-.105-.043-.161-.123-.187-.262-.451-.503-.936-.861-1.288-.105-.385-.354-.633-.553-.931-.08-.024-.123-.074-.123-.18-.137-.236-.229-.508-.428-.676 0-.111-.051-.161-.125-.187-.093-.18-.167-.366-.31-.496-.074-.024-.124-.075-.124-.18-.138-.229-.254-.49-.429-.676-.079-.025-.124-.081-.124-.187-.675-1.108-1.376-2.193-2.095-3.26-.013-.05 0-.124-.062-.124v-.062c-8.14-.144-16.543-.02-24.793-.062-.979.043-2.133-.081-3.013.062-.062 0-.073.104 0 .124l.062.062c.099.304.322.496.496.738.495.992 1.165 1.821 1.724 2.764.656.998 1.276 2.039 1.958 3.02.087.024.124.08.124.186.161.267.312.552.496.799.062.081.062.229.186.242 7.865 12.254 15.726 24.514 23.629 36.731.073.023.124.08.124.186.334.564.682 1.122 1.04 1.661-.012.155.101.191.187.248.075.254.261.396.366.614.081.024.13.08.124.186l.124.242c.663 1.004 1.296 2.033 1.972 3.019.006.118.037.21.123.248l-.068.248c-.632.979-1.264 1.971-1.901 2.951-.025.136-.131.198-.187.31h-.062l-.057.181c-.314.558-.693 1.035-.99 1.599h-.058l-.062.187c-8.126 12.576-16.215 25.172-24.305 37.777h-.062l-.123.242c-.905 1.396-1.798 2.802-2.703 4.184-.582.968-1.227 1.866-1.785 2.833-.11.154-.26.278-.31.496l-.062.062c-.062 0-.073.104 0 .118.818.147 1.908.023 2.826.062 8.312-.037 16.779.087 24.979-.062v-.057c.049-.02.073-.057.062-.124 1.047-1.581 2.082-3.174 3.08-4.798-.006-.11.044-.161.125-.186.197-.273.39-.56.551-.862.118-.154.254-.285.305-.495.081-.024.13-.081.124-.187 8.039-12.452 16.061-24.917 24.062-37.4.074-.031.123-.087.117-.192.211-.143.242-.452.434-.613l.124-.248c-.006-.105.044-.155.124-.181.174-.197.312-.428.429-.676h.062l.062-.186c.217-.254.378-.564.552-.862 0-.104.049-.161.124-.186.693-1.029 1.362-2.083 2.032-3.137l.305-.496h.062c-.02-.099.173-.297-.001-.359z" mask="url(#SVGID_1_)"/></g></g></svg>