<svg xmlns="http://www.w3.org/2000/svg" width="529.793" height="538.119"><defs><clipPath id="a"><path d="M0 430.495h423.834v-430.495h-423.834v430.495z"/></clipPath></defs><g clip-path="url(#a)" transform="matrix(1.25 0 0 -1.25 0 538.119)"><path d="M211.917 423.495c-112.993 0-204.917-91.923-204.917-204.911 0-112.986 91.924-204.91 204.917-204.91 37.421 0 72.521 10.098 102.747 27.692-4.147.94-8.208 2.191-12.109 3.816-27.115-14.23-57.949-22.297-90.638-22.297-107.915 0-195.706 87.777-195.706 195.699 0 107.91 87.791 195.701 195.706 195.701 107.915 0 195.706-87.791 195.706-195.701 0-36.256-9.935-70.214-27.194-99.348 1.461-1.65 1.644-4.304.55-6.205 1.42-1.709 2.467-3.535 3.076-5.466 20.722 32.012 32.779 70.13 32.779 111.019 0 112.988-91.93 204.911-204.917 204.911" fill="#009b5b"/><path d="M0 0c-112.993 0-204.917-91.923-204.917-204.911 0-112.986 91.924-204.91 204.917-204.91 37.421 0 72.521 10.098 102.747 27.692-4.147.94-8.208 2.191-12.109 3.816-27.115-14.23-57.949-22.297-90.638-22.297-107.915 0-195.706 87.777-195.706 195.699 0 107.91 87.791 195.701 195.706 195.701 107.915 0 195.706-87.791 195.706-195.701 0-36.256-9.935-70.214-27.194-99.348 1.461-1.65 1.644-4.304.55-6.205 1.42-1.709 2.467-3.535 3.076-5.466 20.722 32.012 32.779 70.13 32.779 111.019 0 112.988-91.93 204.911-204.917 204.911z" stroke="#009b5b" stroke-width="14" stroke-miterlimit="10" fill="none" transform="translate(211.917 423.495)"/><path d="M390.452 155.388c-4.064-11.904-12.548-21.765-20.482-31.813l7.273-92.05-72.032 22.297c-1.457-.546-2.91-1.104-4.356-1.678-.71-.52-1.432-1.022-2.168-1.507l-.694-.639c-.544-.588-1.083-1.18-1.611-1.783-.744-.848-1.573-1.326-2.411-1.52-1.911-1.417-3.928-2.693-6.101-3.762-1.119-.551-2.211-.666-3.203-.479l-.547-.271c-.915-.436-1.812-.586-2.65-.522-2.5-1.224-5.01-2.33-7.573-3.242l128.836-38.419-12.281 155.388z" fill="#009b5b"/><path d="M0 0c0-15.832-12.834-28.667-28.667-28.667-15.832 0-28.667 12.835-28.667 28.667s12.835 28.667 28.667 28.667c15.833 0 28.667-12.835 28.667-28.667z" stroke="#009b5b" stroke-width="10" stroke-miterlimit="10" fill="none" transform="translate(158.309 210.815)"/><path d="M0 0c0-15.832-12.834-28.667-28.667-28.667-15.832 0-28.667 12.835-28.667 28.667s12.835 28.667 28.667 28.667c15.833 0 28.667-12.835 28.667-28.667z" stroke="#009b5b" stroke-width="10" stroke-miterlimit="10" fill="none" transform="translate(240.584 210.815)"/><path d="M0 0c0-15.832-12.834-28.667-28.667-28.667-15.832 0-28.667 12.835-28.667 28.667s12.835 28.667 28.667 28.667c15.833 0 28.667-12.835 28.667-28.667z" stroke="#009b5b" stroke-width="10" stroke-miterlimit="10" fill="none" transform="translate(325.556 210.815)"/></g></svg>