<svg xmlns="http://www.w3.org/2000/svg" width="1038.104" height="1038.102"><rect fill="#91CBCE" width="1038.102" height="1038.102"/><rect x="40.87" y="42.048" fill="#6EB7B7" width="958.91" height="958.918"/><g opacity=".59" fill="#91CBCE"><g><rect x="42.033" y="98.154" width="955.583" height="8.425"/><path d="M228.131 102.368c0 10.01-8.111 18.127-18.123 18.127h-64.44c-10.011 0-18.127-8.117-18.127-18.127 0-10.021 8.116-18.134 18.127-18.134h64.44c10.012.001 18.123 8.112 18.123 18.134z"/><path d="M914.848 102.368c0 10.01-8.111 18.127-18.123 18.127h-64.439c-10.012 0-18.123-8.117-18.123-18.127 0-10.021 8.111-18.134 18.123-18.134h64.439c10.012.001 18.123 8.112 18.123 18.134z"/></g><g><rect x="42.033" y="375.963" width="955.583" height="8.419"/><path d="M352.987 380.172c0 10.012-8.11 18.133-18.123 18.133h-64.438c-10.012 0-18.123-8.121-18.123-18.133 0-10.011 8.111-18.128 18.123-18.128h64.438c10.012 0 18.123 8.117 18.123 18.128z"/></g><g><rect x="42.033" y="514.865" width="955.583" height="8.419"/><path d="M868.536 519.074c0 10.021-8.117 18.133-18.129 18.133h-64.438c-10.012 0-18.125-8.111-18.125-18.133 0-10.018 8.113-18.123 18.125-18.123h64.438c10.012 0 18.129 8.106 18.129 18.123z"/></g><g><rect x="42.033" y="653.778" width="955.583" height="8.407"/><path d="M647.009 657.975c0 10.021-8.115 18.134-18.121 18.134h-64.448c-10.01 0-18.121-8.111-18.121-18.134 0-10.011 8.111-18.127 18.121-18.127h64.447c10.006 0 18.122 8.117 18.122 18.127z"/><path d="M234.174 657.975c0 10.021-8.117 18.134-18.128 18.134h-64.44c-10.011 0-18.123-8.111-18.123-18.134 0-10.011 8.112-18.127 18.123-18.127h64.44c10.011 0 18.128 8.117 18.128 18.127z"/></g><g><rect x="42.033" y="792.679" width="955.583" height="8.419"/><path d="M510.073 796.883c0 10.018-8.117 18.133-18.128 18.133h-64.444c-10.006 0-18.123-8.116-18.123-18.133s8.116-18.127 18.123-18.127h64.444c10.011 0 18.128 8.11 18.128 18.127z"/></g><g><rect x="42.033" y="931.581" width="955.583" height="8.419"/><path d="M352.987 935.79c0 10.012-8.11 18.133-18.123 18.133h-64.438c-10.012 0-18.123-8.121-18.123-18.133 0-10.021 8.111-18.133 18.123-18.133h64.438c10.012 0 18.123 8.111 18.123 18.133z"/><path d="M781.938 935.79c0 10.012-8.117 18.133-18.123 18.133h-64.445c-10.006 0-18.123-8.121-18.123-18.133 0-10.021 8.117-18.133 18.123-18.133h64.445c10.006 0 18.123 8.111 18.123 18.133z"/></g><g><rect x="42.033" y="237.061" width="955.583" height="8.419"/><path d="M606.733 241.271c0 10.015-8.109 18.132-18.121 18.132h-64.441c-10.011 0-18.121-8.117-18.121-18.132 0-10.018 8.109-18.135 18.121-18.135h64.441c10.01.001 18.121 8.118 18.121 18.135z"/><path d="M161.674 241.271c0 10.015-8.112 18.132-18.118 18.132h-64.446c-10.011 0-18.127-8.117-18.127-18.132 0-10.018 8.116-18.135 18.127-18.135h64.446c10.006.001 18.118 8.118 18.118 18.135z"/></g></g><g><path fill="#fff" d="M545.143 197.907l-15.752 2.331-15.858 1.454-2.184 3.362s.813 5.705 1.955 13.664l-1.605.191s-.277-3.869-3.078-3.535c-2.805.336-3.907 2.224-3.469 5.881.438 3.655 2.305 4.996 4.737 4.705 2.43-.291 2.317-4.377 2.317-4.377l1.486-.179c.768 5.338 1.646 11.429 2.516 17.402l-2.096.25s-.275-3.873-3.078-3.537c-2.805.336-3.907 2.226-3.469 5.881.438 3.658 2.305 4.998 4.737 4.708 2.43-.292 2.319-4.383 2.319-4.383l1.979-.238c.948 6.499 1.859 12.682 2.571 17.394l-2.646.319s-.275-3.87-3.078-3.535c-2.805.338-3.907 2.224-3.469 5.881.439 3.657 2.305 4.995 4.735 4.702 2.432-.29 2.321-4.377 2.321-4.377l2.547-.305c.139.903.27 1.724.385 2.446 2.096 13.195 6.092 16.333 6.092 16.333l17.193 173.774s-83.876 12.116-45.367 65.94c38.509 53.824-20.442 36.58-11.894 107.953 8.549 71.38 101.606 58.165 101.606 58.165s93.541-9.135 84.992-80.513c-8.549-71.375-61.758-40.698-37.053-102.093 24.711-61.396-59.654-53.361-59.654-53.361l-24.33-172.917s3.143-3.995 2.064-17.312c-.059-.729-.129-1.557-.209-2.468l2.551-.305s.855 3.997 3.289 3.708c2.434-.291 3.928-2.033 3.49-5.69-.438-3.657-1.955-5.229-4.758-4.893-2.807.336-2.158 4.161-2.158 4.161l-2.65.317c-.418-4.747-.992-10.973-1.604-17.51l1.977-.236s.857 4 3.291 3.708c2.432-.292 3.93-2.035 3.492-5.693-.439-3.654-1.955-5.231-4.76-4.895-2.805.336-2.156 4.165-2.156 4.165l-2.098.253c-.566-6.013-1.152-12.136-1.664-17.503l1.484-.18s.857 4 3.289 3.709c2.432-.292 3.93-2.034 3.49-5.692-.439-3.655-1.953-5.229-4.758-4.893-2.805.336-2.154 4.161-2.154 4.161l-1.611.192c-.768-8.002-1.326-13.738-1.326-13.738l-2.919-2.752zm53.367 330.376c0 17.07-13.838 30.907-30.908 30.907-17.068 0-30.906-13.837-30.906-30.907s13.838-30.908 30.906-30.908c17.071.001 30.908 13.838 30.908 30.908z"/><g stroke="#fff" stroke-width="3" stroke-miterlimit="10" fill="none"><line x1="562.548" y1="624.356" x2="542.294" y2="429.78"/><line x1="569.911" y1="623.592" x2="548.975" y2="422.457"/><line x1="578.878" y1="629.287" x2="559.081" y2="439.081"/><line x1="586.469" y1="630.705" x2="568.038" y2="453.619"/><line x1="594.757" y1="629.844" x2="575.184" y2="441.826"/></g></g><rect x="116.608" y="694.711" width="812" height="188" fill="none"/><g fill="#fff"><path d="M789.198 443.861c-1.383-.56-4.883.485-5.232.608s-1.529-.05-2.096-.174c-.57-.125-3.043-.435-5.672-.818-2.627-.377-5.674-.812-11.986-4.741-6.316-3.93-8.85-7.57-14.299-15.348-5.447-7.784-10.75-20.345-10.75-20.345l-8.289-18.395-16.893-41.014-14.334-36.015s-10.953-27.954-11.465-29.217c-.512-1.259-.744-2.096-.611-2.275.135-.181.188-.397.188-.397s-1.961-5.539-2.307-6.335c-.348-.792-.74-.789-.74-.789s-6.379-17.629-6.766-18.542c-.391-.914-.553-1.376-.527-2.044.027-.664-.602-.769-.602-.769s-1.754-4.764-2.205-5.852c-.449-1.085-.904-1.45-.904-1.45s-.576-1.435-2.086-4.773c-1.512-3.337-5.178-7.755-6.385-8.57-1.207-.816-8.648-6.257-17.629-3.998-8.977 2.266-13.123 6.495-17.621 13.994-4.496 7.498.586 21.842 1 23.008l2.559 8.156c.391 1.105.875.803.875.803s6.592 17.681 6.779 18.213c.186.522.27.947.123 1.46-.146.512 2.332 6.396 2.695 7.056.365.655.537.4 1.656 2.633 1.117 2.227 8.166 21.191 9.053 23.699.889 2.506 8.871 27.638 9.191 28.91.316 1.264.355 1.377.107 1.603-.25.216-.367.258-.367.258s5.316 16.491 5.068 16.717c-.252.217-.438.616-.473.886-.033.276.018.98.352 2.107.336 1.127.75 1.374.75 1.374l.93.399s.551 1.377.578 1.631c.02.25.033.843-.066 1.86-.098 1.018.205 1.5.205 1.5s-1.201.495-1.432.772c-.23.28-.012.526-.012.526l-12.729 4.646s-.906-3.295-1.281-4.537c-.375-1.249-.873-.61-.873-.61s-.65-2.59-.922-3.353c-.266-.751-.48-.61-.605-.964-.125-.349-.27-.76-.08-1.15.186-.399.006-.722-.393-1.11-.396-.38-.533-.399-.533-.399s-.238-1.234-.461-1.479c-.219-.251-.025-.452-.025-.452s.758-.073 1.404-2.138c.648-2.067-.543-5.061-.666-5.407-.123-.349.066-.553.066-.553s.428-.083.221-.668-.221-.443.457-.752c.678-.308.527-1.102.148-2.548-.377-1.438-1.953-.881-2.244-.778-.291.104-5.318 1.294-8.838 2.473-3.521 1.179-3.281 1.295-3.127 2.292.152.992.355 2.298.863 2.254.506-.051 1.08.276 1.443.737.359.461.49 1.201 1.021 2.521.535 1.323.586 1.832 1.244 2.581.662.749 2.529 1.206 3.186 1.76.654.555.777.904.785 1.295s-.234 1.007-.229 1.393c.01.394.445.701.445.701s.439.499.521.73c.082.234-.209.338-.209.338l1.525 4.119-.387.205s1.963 6.653 2.211 7.352c.248.702.357 1.382.035 1.958-.32.574.066 1.289.066 1.289s3.5 11.364 3.643 11.768c.146.409.148.604-.312.97-.467.357-.406.531-.469 1.084-.068.546.674 3.566.941 4.324.268.76 2.258.448 2.361.74l.416.251 3.26 9.015 4.887 15.268 15.191 48.634 14.27 46.211 15.922 50.869 9.945 31.596s8.967 28.458 9.053 28.697c.08.227-.445.413-.32.767.123.345 1.744 4.37 1.744 4.37s.547 2.1 1.65 4.662c1.105 2.565 6.938 7.716 13.891 3.086 6.963-4.626 7.773-14.564 7.809-14.841.035-.27.523-1.301.93-1.445.41-.145.762-1.188.533-1.83-.227-.642-1.201-1.544-1.201-1.544s-.26-1.284-.43-3.062c-.17-1.777-1.354-6.412-1.686-7.537-.336-1.13-.588-.912-.588-.912l-3.188-10.485-11.576-37.123-10.633-34.825-10.91-35.064-9.129-30.037-8.736-28.545-5.154-16.225.244-.414-4.607-15.234-5.303-17.752.99-.351c.467-.167.594-.732.383-1.508-.211-.784-1.352-1.035-1.352-1.035s-3.539-11.283-3.764-11.922c-.229-.641-.934-.784-.934-.784s-2.473-7.726-2.598-8.08c-.121-.341-.324-.538-.324-.538l.33-.181-.428-1.028s.107-.435.432-.812c.324-.38-.09-1.736-.357-2.497-.27-.759-1.492-1.24-1.492-1.24s-1.223-3.836-1.348-4.188c-.125-.351.139-.705.139-.705s2.623-1.128 3.146-1.314c.525-.186 2.49-.746 3-.798.506-.051.553-.658.553-.658s11.934-4.483 12.984-4.855c1.051-.371 2.756-1.113 3.459-1.162.703-.058 4.719-1.873 5.885-2.286l1.316.191 3.416 10.013s7.879 22.617 13.295 40.12c5.414 17.512 5.869 26.019 7.164 35.602s-.918 13.708-2.613 19.3c-1.697 5.593-8.67 11.477-9.83 12.278-1.158.802-4.43 2.687-5.217 3.427-.791.736-1.266 1.433-.6 2.573.666 1.141 4.494.644 9.021-.11 4.523-.748 22.418-6.563 27.744-8.385 5.328-1.824 19.203-7.127 28.053-10.86 8.854-3.728 14.283-7.484 15.477-8.56 1.2-1.08.604-2.577-.777-3.142zm-151.322-184.062s-.465-.757-.609-1.161c-.145-.409-.637-.501-.637-.501s-.686-2.311-1.557-4.765c-.867-2.451-1.207-7.118-.012-11.152s3.729-7.819 9.672-11.234c5.941-3.421 13.109-1.169 16.309 1.377 3.197 2.542 5.422 9.564 5.422 9.564l-.107.431s-.191.392-.129.568c.064.178.678 1.729.826 2.331.148.606-.301.636-.301.636l-6.729 3.239s-.445-.697-1.021-1.215c-.578-.518-2.318-1.541-2.906-1.53-.586.011-4.469-.382-5.094-.297-.623.088-3.033-.046-5.711 3.339-2.676 3.374-1.574 7.966-1.574 7.966s-4.264 2.04-4.959 2.483c-.698.446-.883-.079-.883-.079zm10.064 27.484c-.178-.148-3.33-8.546-5.611-14.664l-2.328-6.085.07.009-.08-.213s.262.02.361-.067l.029-.134c-.066-.188-.088-.232-.262-.423-.045-.028-.094-.071-.139-.153-.32-.348-.947-1.37-.098-1.937.85-.565 4.691-2.516 4.691-2.516s.113-.073.295-.104l.266-.163.129.188c.178.047.375.146.586.349.326.313.859 1.123 1.758 1.836.482.295 1.027.55 1.635.704 1.609.407 2.699.491 3.781.371l.785-.121c.416-.08.848-.182 1.324-.304 1.271-.326 2.578-.616 3.584-1.08.639-.362 1.18-.83 1.637-1.438.771-1.326 1.619-3.712 1.699-5.182.084-1.571-.191-2.567-.043-2.854.021-.106.066-.2.178-.28.205-.146 2.113-1.161 3.768-2.031 1.186-.654 2.18-1.194 2.18-1.194s.082-.092.201-.056l.094-.049s.111-.232.201.391c.197.422.113.984.182 1.194.033.067.078.097.135.077.293-.104.434.104.434.104l7.525 19.391s-.088.171-.184.423c.008.133.01.292-.016.5-.029.239-.125.501-.211.762l.031.219c.191.706.367 1.088-.254 1.485-.15.129-.391.258-.783.397l-.105.039c-1.152.513-3.266 1.409-4.432 1.901-.441.213-.781.392-.963.515l-.154.184c-.031.257-.115.528-1.863 1.336-1.865.852-13.355 5.845-13.355 5.845s-.564.073-1.305.394c-.678.309-5.094 2.662-5.373 2.434zm33.242 120.157l7.447 24.988s.104-.211.322.411c.221.624 20.377 66.193 20.377 66.193l16.926 54.696 16.916 56.182 4.803 14.791s-.117.917.16 1.699.84 2.855 1.188 3.348c.352.491.717 2.026.541 2.267-.18.237-.758.091-1.225.258-.469.166-1.096.123-1.096.123l-2.156-7.564s-1.131-.476-1.031.542c.096 1.016 1.578 8.91 1.771 9.457.193.543-.127 1.622.293 1.826.424.197.996.084.996.084l.094.754s.168.729.354.753c.18.022-.398 1.107-.551 1.426-.15.311-.174 1.729.553 1.558.729-.173 1.33-.211 1.213.446 0 0-1.152 4.177-2.334 5.3-1.182 1.12-3.721 3.856-5.834 2.595-2.119-1.272-2.52-1.916-2.934-3.086l-.855-2.415s.283-.187-.031-1.57c-.312-1.376-.969-2.989-.969-2.989s-.33.557-.496.09c-.166-.471-19.203-62.134-19.203-62.134l-20.879-66.359-19.703-63.538-7.52-24.692s.34-.035.09-.738c-.248-.703-2.973-9.382-2.973-9.382l4.824-1.978s.387-.393.775-.531c.391-.137 5.406-1.83 5.406-1.83s.477.36.945.195c.47-.168 3.796-1.176 3.796-1.176zm-4.369-11.007s-1.096.453-.846 1.159c.25.705.311 1.809.686 1.936.381.135.852.165 1.379-.023.527-.186.863.947.863.947s.279 1.158.467 1.685c.188.532.674 1.155.105 1.42-.568.266-3.783 1.072-3.783 1.072s-.129.379-.658.566c-.527.188-5.635 2.193-5.635 2.193s-.609-.045-1.49.267c-.879.312-3.285 1.361-3.285 1.361l-1.293-3.837 1.365-.616s.141-1.104-.17-1.79c-.309-.685-1.021-.826-1.299-.865-.273-.03-3.922-12.754-3.922-12.754s-.836-.49-.014-.782l12.445-3.486s1.193-.355 1.357-.087l3.728 11.634zm23.727-48.496c-.934.331-4.703 1.733-4.703 1.733s-.424.475-1.006.681c-.586.208-15.666 5.619-15.666 5.619s-.162-.271-1.832.384c-1.672.657-4.979 1.892-4.979 1.892s-.354-.267-.418-.634c-.068-.374-2.1-6.474-2.1-6.474s.133-.183-.223-.451c-.357-.266-.59-1.106-.732-1.51-.145-.409-19.262-55.667-19.262-55.667l.428-.281s.018-.134-.107-.487c-.123-.353-.516-1.266.201-1.649.721-.382 4.189-2.073 4.189-2.073s.922.007 1.521-.342c.6-.345 1.096-.978 1.797-1.226.699-.249 12.738-6.286 12.738-6.286s.939.064 1.736-.287c.795-.35 6.223-2.992 6.223-2.992s.459.361.66.554c.199.189.691.477.691.477l22.777 68.004c.002 0-1 .684-1.933 1.015z"/><path d="M669.844 277.224l-.008.051.154-.184-.146.133z"/><path d="M660.141 261.693l.213-.354c-.457.608-.998 1.076-1.637 1.438.614-.28 1.116-.626 1.424-1.084z"/><path d="M647.608 263.208c-.898-.713-1.432-1.522-1.758-1.836-.211-.204-.408-.302-.586-.349.289.406 1.098 1.427 2.344 2.185z"/><path d="M668.632 250.085c-.09-.623-.201-.391-.201-.391l-.094.049c.084.025.185.111.295.342z"/><path d="M675.385 274.675c-.85.312-3.07 1.245-4.432 1.901 1.167-.492 3.28-1.388 4.432-1.901z"/><path d="M676.389 273.463c.105.302.158.54-.115.777.621-.397.445-.779.254-1.485l-.031-.219c-.11.333-.201.663-.108.927z"/><path d="M668.948 251.356c-.057.021-.102-.009-.135-.077.024.071.063.102.135.077z"/><path d="M676.723 271.274c.096-.252.184-.423.184-.423l-7.525-19.391 7.291 19.474s.037.123.05.34z"/><path d="M665.956 250.992c-1.654.871-3.562 1.886-3.768 2.031-.111.08-.156.174-.178.28l.01-.023c.1-.151 2.219-1.341 3.936-2.288z"/><path d="M640.352 266.264c-.1.086-.361.067-.361.067l.08.213c.092.007.231-.045.281-.28z"/><path d="M653.024 264.282c.26-.029.52-.071.785-.121l-.785.121z"/><path d="M647.94 287.283l-5.611-14.664c2.281 6.118 5.433 14.516 5.611 14.664z"/><path d="M647.94 287.283c.279.228 4.695-2.125 5.373-2.434-.736.33-5.373 2.434-5.373 2.434z"/><path d="M639.813 263.973c.502-.178 4.061-2.362 5.057-2.976-.182.031-.295.104-.295.104s-3.842 1.951-4.691 2.516c-.85.567-.223 1.589.098 1.937-.186-.332-.753-1.375-.169-1.581z"/><path d="M640.12 265.707c.174.19.195.235.262.423.005-.395-.122-.34-.262-.423z"/><path d="M640.001 266.534l2.328 6.085c-1.102-2.952-1.996-5.371-2.258-6.076l-.07-.009z"/><path d="M654.772 284.334s-.777.215-1.459.516c.74-.321 1.305-.394 1.305-.394s11.49-4.993 13.355-5.845c1.748-.808 1.832-1.08 1.863-1.336l-.355.405c-.193.196-14.709 6.654-14.709 6.654z"/><path d="M668.135 249.798s-.994.54-2.18 1.194c1.105-.583 2.09-1.099 2.381-1.25-.118-.036-.201.056-.201.056z"/><path d="M655.134 263.858c-.477.123-.908.225-1.324.304 2.07-.33 3.668-.677 4.908-1.384-1.006.463-2.313.753-3.584 1.08z"/><path d="M640.12 265.707l-.139-.153c.045.082.094.125.139.153z"/><path d="M668.632 250.085c.066.469.08.996.182 1.194-.069-.21.015-.772-.182-1.194z"/><path d="M645.264 261.023l-.129-.188-.266.163c.11-.018.243-.017.395.025z"/><path d="M662.139 254.55c-.053-.662-.174-1.006-.129-1.247-.148.287.127 1.283.043 2.854-.08 1.47-.928 3.856-1.699 5.182l.264-.34c1.521-2.377 1.598-5.488 1.521-6.449z"/><path d="M652.366 264.384l.658-.101c-1.082.12-2.172.036-3.781-.371-.607-.154-1.152-.409-1.635-.704 1.026.816 2.527 1.508 4.758 1.176z"/><path d="M640.382 266.13l-.029.134c.032-.03.05-.073.029-.134z"/><path d="M669.991 277.091c.182-.123.521-.302.963-.515l-.824.347-.139.168z"/><path d="M675.385 274.675l.105-.039c.393-.139.633-.268.783-.397l-.221.128-.667.308z"/><path d="M669.382 251.46s-.141-.208-.434-.104c.234-.084.434.104.434.104z"/><path d="M676.497 272.535c.086-.261.182-.523.211-.762.025-.208.023-.366.016-.5-.13.342-.266.829-.227 1.262z"/></g><g fill="#fff"><path d="M293.613 262.337c.389-.588.587-.035 1.24-.169s3.093-1.909 4.035-3.119c.939-1.212 1.846-3.012 2.498-2.72.656.29 2.645-1.044 2.733-2.579.107-1.828-3.877-3.744-7.524-6.122-4.158-2.709-4.352-.305-5.067.78-.713 1.08.729 2.312.729 2.312s-.613 1.571-2.301 3.701c-1.688 2.128-.275 4.473-.14 5.549.132 1.077-.939 2.06-1.463 1.999-.521-.065-1.954.398-1.493 1.408.46 1.01-.156 1.732-.643 2.256-.491.524-2.471 2.46-3.314 3.736-.843 1.276-2.045 2.882-2.045 2.882s-.522-.489-6.618 1.691c-6.094 2.184-12.735 14.156-12.735 14.156l-32.226 50.934s-3.694-1.876-3.437-2.268c.26-.392.159-.883.352-2.026.188-1.144-2.326-1.819-4.021-1.387-1.694.433-1.919 1.835-2.758 3.961-.839 2.127 1.483 3.52 2.532 4.07 1.047.55 2.405-1.937 2.405-1.937l3.635 2.401-5.836 8.837-3.537-2.335.546-1.895c.546-1.896-1.9-1.82-2.979-2.11-1.077-.289-3.03 1.387-3.742 2.891-.709 1.503-.018 3.656-.018 3.656s1.312 1.005 2.197 1.59c.881.581 2.506-1.448 2.506-1.448l3.763 2.203-5.641 8.543-3.242-2.142s.288-1.076.317-2.188c.029-1.108-2.129-1.686-3.014-1.844-.881-.162-2.146 1.544-2.793 2.524-.647.98-.972 2.744-.836 3.824.139 1.075 2.001 1.885 3.275 1.878 1.273-.007 1.558-1.509 1.558-1.509l3.341 2.206-4.475 6.776c-.715 1.08-.617.72-2.381.827-1.76.104-2.802.829-3.351 2.3-.551 1.472-1.695.855-2.019 1.344-.327.494-.093 1.21.528.915.617-.298 1.659-1.02 2.243-1.903.584-.884 1.266-1.282 2.342-1.84 1.078-.557 1.893.122 1.798.483-.099.358-22.365 36.854-29.109 47.49-6.741 10.638-28.056 41.414-29.87 44.165-1.814 2.75-9.065 10.518-15.633 16.193-6.568 5.678-12.186 4.786-12.186 4.786s-5.789-2.128-7.58-1.761c-1.796.365-3.194 1.415.834 4.924 4.03 3.511 15.49 11.358 27.695 18.29 12.205 6.934 14.84 7.962 20.693 9.75 3.139.957 5.291.814 5.707-.883.416-1.699-3.401-4.817-5.17-6.409-2.253-2.028-3.637-6.708-2.996-13.406.777-8.132 10.41-30.5 13.32-36.615 2.912-6.119 8.226-15.444 8.226-15.444s.988 1.92 2.138 3.81c1.152 1.888 7.011 6.042 7.011 6.042s.364.519.821.682c.456.161 1.311 1.005.892 2.279-.42 1.275-3.521 1.06-4.698.707-1.179-.355-6.249-3.14-6.609-3.235-.359-.097.233 1.141.233 1.141s1.41 1.494 8.376 3.977c6.964 2.484 9.667 1.592 13.712 1.017 4.048-.57 4.266-2.825 4.392-3.869s-1.249-1.528-1.965-1.299c-.719.233.062-.946.45-1.535.39-.589 2.28-.89 4.718-3.514 2.438-2.62 5.805-8.575 5.805-8.575s30.629-50.862 31.02-51.45c.388-.589.676-1.669 1.461-1.15.788.519 12.929 7.55 13.978 8.528 1.049.972 1.992.188 2.706-.473.717-.654 3.466-5.891 4.342-7.85.873-1.964-1.74-1.853-1.74-1.853s-2.221-.906-3.501-1.748c-1.273-.844-1.015-1.236-.826-2.381.191-1.141 1.041-.721 1.041-.721s.886.585 1.637.938c.752.357 1.868 1.657 3.343 2.631s2.312-.729 3.549-2.169c1.234-1.444 3.401-5.793 3.199-7.194-.2-1.405-1.733-1.008-1.733-1.008s-3.503-1.748-3.894-2.008c-.393-.258-.464-1.431.119-2.318.584-.881.914-.1.914-.1s3.961 2.331 4.716 3.115c.752.778 2.024.351 3.874-2.238 1.85-2.588 2.909-6.118 2.745-7.355-.171-1.241-1.637-.517-1.637-.517s-1.767-.741-4.419-2.495c-2.65-1.752-7.626-4.896-7.626-4.896l8.653-14.17s6.84-11.849 7.353-13.481c.514-1.638.109-4.441.109-4.441s10.155-14.733 14.356-24.934c4.198-10.206.756-13.746-2.994-19.605-3.744-5.861-10.314-7.66-10.314-7.66s.531-1.674 1-3.01c.533-1.523.704-3.201 1.39-3.17.687.03 1.76-.954 2.311-1.578.55-.622-.011-2.123-.011-2.123s.359-.327.748-.916zm-20.464 20.962c.07-.083.149-.144.232-.195l.247-.365s.799-.157.559.296c.095.058.139.142.076.235l-2.099 3.176c-1.244 2.115-2.603 4.437-2.603 4.437s-.181.057-.395.093c-.161.224-.344.148-.494-.001-.154-.041-.264-.136-.248-.336l-.056-.103s4.301-6.677 4.781-7.237zm-34.666 56.631l25.064-40.435s1.04-.081.587.604c-.453.686-24.839 40.258-24.839 40.258s-1.114.36-.812-.427zm-24.916 53.005c.743-1.203 9.422-15.305 9.422-15.305s.536-.173.571-.625c.037-.455.047-.87-.138-.992-.185-.125.605-1.398.605-1.398l10.421 5.925s-.109.566-.546 1.228c-.439.664-13.991 22.867-13.991 22.867s-.096.464-.834-.021c-.734-.489-4.149-2.529-4.149-2.529s.403-.527-.041-.819c-.44-.294-3.815-2.309-3.815-2.309s1.681-2.381 1.48-3.362c-.201-.977.274-1.458 1.015-2.66zm-4.049 8.854s.221-.329 1.334.459c1.119.792 2.359 1.718 2.702 1.519.342-.197.905.07 1.827.679.921.606 3.352 2.211 3.352 2.211l-3.066 4.641-4.417-2.601s.07-.425-.409-.745c-.479-.315-3.779-2.443-3.779-2.443l2.456-3.72zm-5.955 55.305l-.485.74.078.684s.491.854-.485 1.055c-.982.202-4.113.14-4.583-.274-.466-.412-1.202-1.537-.448-2.201.756-.665 2.495-.258 2.495-.258s1.808-.813 2.571-.523c.761.29 1.053.483.857.777zm-.364-24.564s-2.768 4.443-3.083 5.281c-.317.835-2.07 5.277-.937 7.339 1.132 2.062 1.536 2.732 2.271 3.353.733.62.979 1.179.979 1.179s-4.253 1.315-8.673-1.603c-4.419-2.918-6.075-6.339-5.769-9.205.308-2.864 1.4-4.682 1.4-4.682s1.803-1.77 2.409-3.167c.606-1.399 9.522-16.985 9.522-16.985l2.508-3.312 1.607-2.434s1.005.243 1.886.827l.068.011 2.182 1.137s.181.083.288-.08c.108-.165.781-.057 2.683 1.096 1.899 1.155 2.589 1.44 2.187 2.051-.402.612-11.528 19.194-11.528 19.194zm8.784 5.168c-.383.462-3.893 6.855-4.683 6.728-.786-.125-1.064-.781-1.158-1.241-.093-.457.14-1.41.14-1.41l14.92-24.748 1.653 1.091c0-.001-10.49 19.12-10.872 19.58zm13.382-23.146l-2.148-1.417 1.637-2.719 2.261 1.49-1.75 2.646zm3.353-5.071l-2.188-1.365 14.337-23.863 2.204 1.456-14.353 23.772zm21.605-34.043c-.299.55-1.003.743-1.569.433l-13.574-7.398c-.57-.311-.787-1.005-.487-1.554.298-.546.998-.739 1.567-.429l13.575 7.398c.569.307.784 1.004.488 1.55zm1.883-14.049c-.297.55-.855.82-1.243.61l-9.256-5.045c-.389-.21-.46-.829-.161-1.375.297-.55.853-.822 1.242-.611l9.257 5.046c.388.212.462.828.161 1.375zm9.001 20.33c-.299.549-.693.909-.881.807l-4.488-2.446c-.187-.099-.097-.63.2-1.176.299-.547.693-.91.881-.808l4.485 2.447c.191.102.101.632-.197 1.176zm6.709-11.436c-.301.545-.702.903-.899.795l-4.706-2.566c-.197-.104-.114-.638.184-1.185.299-.547.7-.904.897-.798l4.707 2.566c.196.109.114.64-.183 1.188zm25.613-85.484c2.559 3.715 3.479 9.248.632 14.227-2.85 4.981-11.839 21.122-11.839 21.122s-1.529-.219-3.218-.191c-1.688.029-4.257-.611-7.15 3.37-2.893 3.981-14.226 24.472-14.226 24.472s-.946 2.363-1.455 2.202c-.51-.159-12.857-7.437-12.857-7.437l24.439-39.799s1.301-.635 1.704-1.249c.405-.611.304-.856.26-1.324-.044-.467 1.147-2.409 2.142-4.042.986-1.632 11.637-15.622 11.637-15.622s-1.024-.849.178-1.203c1.196-.351 7.192 1.761 9.753 5.474z"/><path d="M211.249 408.698l4.417 2.601 3.066-4.641s-2.431-1.605-3.352-2.211c-.922-.609-1.485-.876-1.827-.679-.343.199-1.583-.727-2.702-1.519-1.113-.788-1.334-.459-1.334-.459l-2.457 3.722s3.3 2.128 3.779 2.443c.481.318.41.743.41.743z"/><path d="M274.187 283.035c.24-.454-.559-.296-.559-.296l-.247.365c.302-.184.639-.171.806-.069z"/><path d="M269.167 290.977c.214-.036.395-.093.395-.093s1.358-2.322 2.603-4.437l-2.98 4.514-.018.016z"/><path d="M268.425 290.639c-.016.201.094.295.248.336-.107-.107-.195-.241-.248-.336z"/><path d="M268.524 290.307l4.857-7.203c-.083.051-.162.112-.232.195-.479.56-4.779 7.237-4.779 7.237l.056.103c.006-.09.034-.198.098-.332z"/><path d="M268.673 290.976c.15.149.333.225.494.001-.166.027-.347.037-.494-.001z"/><path d="M272.164 286.447l2.099-3.176c.062-.094.019-.178-.076-.235l-.026.057c-.154.23-1.043 1.731-1.997 3.354z"/><path d="M268.425 290.639c.053.094.141.229.248.336.146.039.328.028.494.001l.017-.016 2.98-4.514c.954-1.623 1.843-3.125 1.996-3.355l.026-.057c-.167-.102-.504-.115-.806.069l-4.857 7.203c-.063.135-.091.243-.098.333z"/></g><path fill="#fff" d="M478.944 222.464c-2.037.531-16.763 3.4-16.763 3.4s-5.878.057-6.589.126c-.698.077-18.679 4.863-18.679 4.863s-.944 2.228-.568 2.399c.379.165.658.667-.063.908-.722.249-11.916 5.847-11.916 5.847s.167.426-.295.883c-.464.452-1.649 1.153-1.992 1.105s-1.059.143-.957.679c.102.53-20.594 7.413-20.594 7.413s-.386-.568-.855-.52c-.459.052-1.444.491-1.336-.296.108-.789 1.106-.939 1.081-1.579-.027-.64-.57-1.692-.913-1.739-.343-.047-1.467.2-2.027.532-.567.322-3.268 1.103-3.307 1.385l-.093.678-6.606 1.624s-1.072-1.012-1.766-.987c-.693.019-1.991.644-2.446 1.043-.456.399-.623.718-.305.936.32.218-6.39 2.06-7.06 2.371-.679.309-7.064 2.771-7.748 3.193-.695.425-3.532 1.762-5.809 4.557-2.286 2.798-6.798 7.936-6.934 15.228-.14 7.292 1.19 10.179 1.626 10.815.429.634.893 1.909.605 3.537-.286 1.635-.318 2.782-.318 2.782s-1.032.775-1.039 1.639c-.006.862.306 2.404.306 2.404s-.381.235-.399-.001c-.03-.231-.102-2.256-.73-2.69-.631-.429-2.275-.192-3.476 1.423-1.201 1.622-2.287 4.525-1.929 5.205.369.685.815 1.611 1.371 1.4.542-.214.776-.643 1.169-.589.395.054.281.5.786.569.504.069 2.112.117 2.346.149.221.03.424-.632.817-.116.392.509.361 8.278.315 8.62-.047.341-4.177 2.705-4.861 5.148-.675 2.439-.422 5.178.435 6.106.852.921-.413 4.662-.48 5.979-.067 1.31-1.026 6.19-1.198 7.893-.172 1.706-.756 7.148-.564 11.206.195 4.055.033 12.785-.601 14.484-.647 1.699-2.237 4.526-1.874 5.614.376 1.089.019 2.42-.39 3.289-.405.866-.75 2.546-.75 2.546s-2.26-.311-3.06 1.307c-.798 1.617-2.415 8.305-1.737 10.928.677 2.624.411 4.548 1.432 4.688 1.021.141.647 1.127.3 1.192-.358.066-1.911-.376-2.416.821-.514 1.195-2.262 7.174-1.582 10.608.682 3.427 1.071 5.669 1.858 5.777.788.108 1.163-.068 1.259.864.107.938-.142 1.94-.724 1.975-.579.034-2.618 2.292-2.202 5.107.415 2.821 1.464 4.464 1.169 4.888-.283.417-1.961.88-2.163 2.346-.203 1.472-.479 4.311-1.955 5.835-1.472 1.524-2.504 2.303-1.229 5.589 1.274 3.282 1.966 4.991 1.966 4.991s-1.884.316-1.014 1.472c.876 1.16.44 2.707.238 4.179-.203 1.471-1.453 5.557.965 6.35 2.421.796 2.719 1.18 2.86 2.696.129 1.512-.392 23.779-.392 23.779s-3.415 1.373-4.935 4.042c-1.519 2.67-3.353 5.994-3.725 8.702-.373 2.71-1.391 3.381-1.845 3.319-.454-.063-.986-.37-1.527-2.283-.538-1.917-4.82-14.37-6.031-17.298-1.202-2.923-4.817-11.027-5.183-11.652-.379-.627-.758-2.863-.758-2.863s4.387-5.153 5.652-7.63c1.257-2.479 1.804-5.624-3.209-5.163-5.015.462-15.979 4.827-24.966 10.729-8.984 5.908-31.294 21.606-34.325 30.286-3.046 8.684 2.304 6.649 3.887 6.065 1.571-.593 9.111-2.662 9.111-2.662s3.644 1.188 5.832 4.484c2.198 3.3 9.348 19.131 12.27 32.199 2.925 13.067 3.641 20.424 4.054 24.971.412 4.551 1.656 16.465 2.36 18.059.697 1.588 1.256 11.802 1.342 13.658.095 1.849.164 3.822-.104 4.123-.269.314-.716 2.672-.311 4.801.397 2.121 3.399 17.969 3.399 17.969s-.664 3.134.057 4.614c.723 1.478 5.889 14.159 9.334 17.513 3.456 3.354 5.529 7.56 13.291 11.387 7.77 3.834 12.871 4.418 16.904 4.395 4.034-.021 7.865-.297 8.254-.594.382-.291 6.018 3.133 7.743 3.143 1.726.006 8.179.773 12.376-2.904 4.187-3.685 5.782-5.193 6.311-9.04.528-3.841.201-6.536 1.7-8.174 1.488-1.634 3.719-2.828 4.218-3.911.499-1.081.733-1.969.733-1.969s.132 1.512.911 1.74c.773.22 1.26.861 2.045.16.794-.691 3.779.177 4.567.285.797.108 5.176.937 5.509.982.344.047 2.885-.863 3.104-2.451.217-1.581.333-7.44.222-8.367-.097-.938-.315-1.893.374-2.717 0 0 .948-1.773 1.147-3.229s.281-4.854.254-5.567c-.031-.72.415-1.623 1.269-2.663.851-1.038 1.879-4.31 2.018-5.326.14-1.008-1.942-2.262-2.853-2.646-.913-.379-2.996-1.631-3.947-1.763-.947-.13-2.494.362-2.589.093-.088-.268.098-8.236.098-8.236s1.079-.813.896-1.355c-.185-.54-.533-.778-.845-.891-.304-.1-.637-.019-.659-.798-.021-.776.099-4.495.099-4.495s.938-.705 1.016-1.276c.079-.567-.489-1.099-.831-1.46-.334-.371-.875-.189-.859-2.182.019-1.999.069-3.28.069-3.28s.569-.889.664-1.581c.097-.692-.108-2.463-1.122-2.602-1.013-.14-2.154-.232-2.411.184-.249.417-1.089-.021-2.156-.236-1.066-.207-2.286-.697-2.286-.697s-.446-7.084-.009-7.926c.438-.838 4.968-.989 5.511-1.17.544-.183.66.799 1.293.887.63.086 1.848.187 2.181-.41.342-.601 1.065-1.205.668-2.029-.399-.831-.421-1.158-.714-1.39-.287-.235-.007-1.354.045-1.733.053-.383.736-.673.505-1.287-.244-.608-.752-.678-.69-1.127.061-.439-.804-15.697-.804-15.697s.305-.34 1.029-.949c.734-.604 1.599-.81 1.504-1.98-.096-1.177-.915-1.805-1.513-2.14-.599-.341-1.229-.428-1.471-1.944-.242-1.514-.406-11.583-.406-11.583l-.443-5.214s.862-5.809 1.412-7.47c.556-1.665 1.332-3.554.462-4.255-.871-.694-1.372-1.283-1.627-1.768-.251-.49-1.135-1.128-1.788-1.531-.651-.416-1.788-.573-2.03-.67-.247-.095-.892-.123-1.284-.046-.395.073-.897-2.379-.749-3.455.147-1.071 1.267-1.243 1.436-1.542.167-.295.736-1.124.666-1.581-.062-.461-.341-1.27-1.29-1.401-.947-.13.027-.189.488-.258.462-.063 1.045-1.014.165-1.2-.875-.181-1.69-.358-1.699-.745-.012-.39-.073-1.814.18-1.779l1.455.2s.367 1.083 1.323 1.148c.958.066 2.016-.625 2.242-1.305.219-.677.183-2.29-.45-2.828-.635-.542-2.336-1.286-2.81-.642-.479.64-.893 1.29-.806 1.629.085.326-1.195.284-1.195.284l-.006-.907-.76-.104-.642-14.06s2.397-.124 3.625-2.465c1.22-2.346 1.013-5.529-.922-6.44-1.937-.91-2.737-1.152-2.737-1.152s.465-.578.78-.535c.312.043.504-.379.594-.56.085-.187.202-.555.202-.555s1.727.562 1.812-.073c.088-.629.165-1.201-.5-1.484-.669-.284-1.418-.454-1.418-.454l.017-.637s.428.183.425-1.682c0-1.873-.126-3.752-.126-3.752s1.338-.334 1.459-1.215c.122-.891.335-2.018-.587-2.336-.918-.326-1.645-.683-1.55-1.377.097-.694-.819-9.966-1.05-11.544-.237-1.573-1.008-2.971-.938-3.477.07-.505-.208-1.315-.495-1.548-.29-.232-.694-4.796-.694-4.796s-.32-.044.324-.022c.636.029 1.125-.229 1.458-.315.337-.08.39-.462.416-.651.025-.188.193-.937.193-.937s1.165.417 1.513.208c.352-.211.523-.959-.425-1.089l-1.52-.209s.559-1.273.342-1.561c-.219-.289-.471-.772-.357-1.597.113-.822.172-2.231.136-2.428-.032-.195.883-.327.908-.974.021-.637-.026-2.125-.026-2.125s-.228-.224-.675-.285c-.44-.061-.514-.46-.462-.837.052-.376.107-1.724-.104-2.976-.218-1.253-.718-3.71-.621-4.405.095-.694-.033-3.028-.367-4.812-.338-1.786-1.061-3.564-1.225-4.23-.166-.668-.412-1.667-.599-3.108-.192-1.442-.633-7.619-.633-7.619s.25-.417.81-.281c.564.145 1.063.279 1.202-.733.14-1.013.771-4.213.279-5.313-.5-1.091-1.569-3.111-1.891-3.604-.316-.493-.679-.228-.942-1.095-.267-.878-.378-10.872-.378-10.872s-.169-.154.46-.067c.637.087 1.422.003 1.761-.15.341-.144.787-.598.874-1.228.087-.631.169-1.651-.116-1.947-.28-.298-.36-.633-.335-.821.026-.188.541-.181.541-.181s.314-.409.172-.817c-.138-.402-.615-.661-.703-.48-.089.18-.658-.35-.633-.538.026-.188-.808-22.271-.808-22.271l.205-2.418s.541-.344.627-.964c.085-.624.021-.974-.383-1.03-.395-.055-.128-1.168-.128-1.168l-.71-.219.033-4.426s.495-.682.344-1.68c-.15-.998-.495-2.312-.554-3.53-.061-1.213-.505-3.866-.42-4.489.086-.625 1.303-.286 1.385-1.25.07-.968.154-1.13-.352-1.26-.498-.124-.397-.397-.231-1.237.178-.839.47-2.587-.753-3.271-1.233-.689-2.137-.005-2.502.172-.374.184-.368.585-.994.5-.615-.085-1.226-.281-1.226-.281s-.03-1.044.048-1.608c.077-.565-.312-3.21-.249-3.662.062-.454.253-.943.385-1.903.132-.965.134-1.42.662-1.523.538-.099 1.958-1.23 2.494-1.384.545-.158 1.376-.734.799-1.617-.568-.887-1.565-1.191-2.352-1.299-.788-.108-4.284-.709-4.284-.709l-.667-.146s.464-5.466 1.439-7.922c.961-2.459 5.67-10.676 12.504-13.94 6.844-3.265 12.168-5.584 12.542-5.761.365-.177 20.455-9.394 22.564-10.08 2.11-.693 3.816-.916 3.816-.916s.818.34 1.317.062c.491-.276 1.084-.77 1.538-.708.443.061 1.626.278 1.626.278s1.784.419 4.395-.547c2.61-.961 8.752-2.48 8.752-2.48s.569.02.783.569c.212.545.944.246.944.246s2.159-.682 2.354-.829c.195-.148.745.042 1.154-.016.408-.057.924-.449.924-.449s-.115 1.658.198 1.93c.312.271.786.568 1.3.579.52.018 1.635.284 1.635.284s.003.805.337.911c.327.1 1.55.039 1.55-.422.012-.46.694-1.687.643-2.964-.06-1.275-.149-2.726-.238-2.912-.086-.179.785-.234 1.381-.386l1.491-.37s.087 1.45.435 1.847c.346.395 1.045.779 1.745.7.698-.078 1.221-.065 1.786.012s.684.04 1.344.245c.661.204 1.215-.008 1.284-.514.07-.511-.309-1.943-.98-2.958-.666-1.011-1.26-1.325-1.205-1.721.055-.393 1.12-.595 1.183-1.042.062-.454-.916-2.088 2.282-4.412 3.197-2.32 16.479-12.705 16.479-12.705s-.112-2.097-2.137-1.572zm-141.156 342.784l-2.779 2.941-.281-4.218-.792-28.795 4.229-3.79-.377 33.862zm.546-40.672c-.171 1.238.162 2.552-1.111 3.879-1.27 1.322-4.095 3.404-4.189 2.816-.084-.588-.646-6.59-.538-8.648.117-2.061-1.632-9.902-1.855-12.462-.222-2.567-1.347-7.326-.521-7.5l1.55-.364s.562.942 1.402 2.379c.828 1.445 4.482 4.188 4.482 4.188.752-.012.981 1.232.981 1.232s-.03 13.235-.201 14.48zm.374-18.66s-1.437-1.289-2.397-2.234c-.962-.934-1.26-2.125-1.042-2.445.208-.312 1.781-.383 1.897-1.23.117-.848-.009-3.745-.917-5.078-.916-1.34-2.459-1.777-2.459-1.777s.092-3.217 1.212-5.079c1.119-1.861 3.336-4.603 3.336-4.603l.688-.369-.318 22.815zm8.104-123.618c-.357.928-1.639 1.574-1.881 1.169-.246-.414-.356-2.3-.063-4.43.293-2.131 1.913-1.979 1.913-1.979s1.235.84 1.086 1.348c-.141.502-.71 2.968-1.055 3.892zm15.944-114.414s-1.363 2.278-1.676 3.513c-.32 1.226.589 1.124.589 1.124s-3.062 9.235-3.348 9.124c-.281-.115-1.523-4.18-1.446-7.984.075-3.808 4.324-6.967 4.324-6.967s.398-.168 1.038.071c.641.236.519 1.119.519 1.119zm35.451 333.509c.394-.294 2.797-1.273 2.754-.32-.045.958-2.226 4.76-2.226 4.76l-.197-.464s-.432-.672-.792-.632c-.353.035-.604.613-1.058.725-.454.109-.771-.105-.7-.617.071-.51 1.829-3.156 2.219-3.452zm-4.579 19.364c.239-.487 1.977-1.033 2.259-.562l.069 5.863s-.339.565-.847-.206c-.508-.767-1.726-4.602-1.481-5.095zm-5.218-35.015l-.101-3.186s.292-.585.501-.639c.216-.053.415 1.559.489 2.823.079 1.263-.798 1.269-.889 1.002zm-.077-14.615c.535.072.881.867.881.867l-.096 6.458c-.17.647-1.384.103-1.384.103s-.321-5.881-.314-6.849c.006-.958.385-.653.913-.579zm.988-15.686l-2.82-.725 2.989-.507-.169 1.232zm-2.671-57.426c.532.073 1 .009 1.173-.009.169-.019.832-.304 1.37-.231.528.073.461 1.484.461 1.484-.26.049-1.213.292-1.577.828-.361.534-.422 1.281-1.048 1.231-.615-.046-.807-.191-.698-.973.107-.775-.284-1.539-.284-1.539s.072-.864.603-.791zm.411 28.318l.129-.941 1.963.271-.003.958-2.089-.288zm1.661 9.781s-.458 1.189-.536 1.471c-.078.283-.987-.135-.987-.135s-.854-7.76-.771-8.66c.084-.908.925-.629 1.38-.312.461.316.914 7.636.914 7.636zm.242-12.989c.027.668-.521.721-.931.664-.408-.057-.544-.907-.498-1.237.044-.321-.529-7.34-.47-8.116.069-.786.705-.572.754-.32.05.258.853.789.814 1.365-.034.582.331 7.644.331 7.644zm-3.058 26.174c.38-1.539.07-5.049.358-5.051.293.007 2.347-.047 2.347-.047s.441 1.061.43 2.355c-.013 1.285.431 5.645.431 5.645l-4.236.758c-.001 0 .292-2.129.67-3.66zm-.269-89.506c.477.887.95 2.903.358 3.942-.596 1.04-1.98 1.898-1.98 1.898l-.175-6.386c0 .001 1.319-.342 1.797.546zm-10.326-106.283s-.605-18.423-.505-19.153c.1-.734.662.091.662.091l.678 19.028c-.092.664-.835.034-.835.034zm.804 14.331s-.367-7.685-.136-8.253c.225-.56.717-.344.717-.344l.195 8.932-.776-.335zm3.088 54.316l-1.119-.006.1-5.597.713.246.306 5.357zm-1.528-19.892c.041-.295.852.345.852.345l-.048 5.756-.71.273s-.134-6.079-.094-6.374zm-2.385-90.523s1.033-.977 1.488-1.515c.442-.54.635 3.529.635 3.529s-.863-.271-1.545-.212c-.683.055-.578-1.802-.578-1.802zm-1.058 9.884c.12-.877.441-.46.441-.46l.865 11.122c-.08.583-.808-.111-.808-.111s-.619-9.668-.498-10.551zm3.396-63.902c-1.996.925-7.504 5.03-7.504 5.03l-2.11-2.609s1.782-1.548 3.633-2.494c1.853-.945 10.392-4.257 10.392-4.257l.359.644.134 1.746c-.001-.001-2.905 1.02-4.904 1.94zm17.571-6.412s-6.806 2.128-6.899 1.743c-.098-.385-1.333-1.232-1.333-1.232l6.238-1.764c.498.147 1.392.191 1.979.272.588.081.015.981.015.981z"/><g fill="#fff"><path d="M814.366 267.501l4.799 15.916 1.443 5.656s.92 2.311.986 2.611c.068.299-.178.593-.025 1.266.154.674 3.17 11.17 3.973 13.664.803 2.495 1.846 6.037 2.021 7.494.172 1.455.598 3.327.598 3.327s.389 1.016.525 1.614c.137.598.373 1.647.107 1.866-.264.216 2.729 14.417 3.154 16.29.426 1.871 5.885 26.221 5.885 26.221s3.742 3.638 4.441 5.682c.703 2.045 2.1 6.452 1.465 8.171-.633 1.719-.846 2.161-1.307 1.873-.459-.29-.84.112-.719.637l2.213 9.733s1.234.585 1.09 1.328c-.148.741-.273.534-.184 1.617.088 1.081.744 2.586.744 2.586l1.158-.107.561.739s.52.906.928.97c.41.065.186.116-.053.8-.238.683-.252 1.315-.316 1.724-.064.409-.48.661-.48.661s.113.84-.119 1.208c-.23.369-.328.627-.227 1.075l1.754 7.711s1.432.068 2.004 1.198c.572 1.13.74 1.879.096 2.5-.646.618-.844 1.135-.844 1.135l.504 2.563s.252.414.523-.12c.273-.533 2.244-2.95 4.586-2.695 2.34.255 2.311.812 2.307 1.837-.004 1.024-.156 2.083-1.17 2.471-1.014.388-2.494.803-2.494.803l.34 1.497s.518-1.534 1.541-1.531c1.025.002 3.193.533 3.732 3.246.537 2.712.293 5.445-.266 7.147-.559 1.702-.547 3.825-.561 4.458s-.377 1.109-.242 1.707c.137.599 1.164 6.509 1.062 7.791-.102 1.283-.053 2.533-.053 2.533s.309.323.834.204c.523-.12 1.18-.348 1.18-.348s1.062-.872 1.732 0c.672.872.715 1.412.059 1.641-.658.227-1.314.457-1.631.448l-1.156.105c-.391.011-1.035-.393-.83.505.203.898.482 1.781.482 1.781s.709-.005.939-.371c.23-.369 1.072-.48 1.371-.548.301-.068 1.447-.567 1.801.297.355.865.09 1.79-.615 1.795-.709.003-1.539.505-1.797.409-.258-.099-.719-.388-1.15-.211s-.617.062-.4 1.352c.213 1.287 4.48 18.667 4.48 18.667l-.807.261-.064.409s1.688-.542 1.975.023c.285.565.463.997-.379 1.11-.84.111-1.986.609-1.986.609l.312 1.031s1.332-.38 1.672 1.118c.34 1.497 1.137 2.575 1.023 3.466-.111.893.24 1.048.242 1.757.004.708-.102 1.283-.566 1.31-.469.027-.617.061-.158 2.083l4.883 20.779s1.91.433 2.48 2.586c.566 2.156.578 4.279.225 5.146-.354.869-.734 1.27-.133 3.574.604 2.303 6.018 22.648 6.018 22.648l.467 1.705s.795.37.561.736c-.23.369.215 1.289.266 1.515.051.224 5.406 18.93 7.449 24.448 2.043 5.52 5.676 13.906 7.797 16.652 2.123 2.747 3.51 3.689 4.484 3.919 3.557.839 3.559 1.244 4.004 1.868.457.637 2.455 2.827-7.428 6.808-9.883 3.979-20.916 6.067-28.174 5.097-3.775-.504-5.143-1.225-5.791-2.096-.812-1.09-.229-2.391.893-3.353 1.119-.966 2.402-.863 3.088-3.382.688-2.519 1.709-8.421.342-18.582-1.365-10.16-3.674-26.882-3.674-26.882l-1.545-9.569s-.848.429-1.674-.09c-.828-.521-1.949-1.291-2.426-3.386-.477-2.099-.736-3.929-.162-4.533.57-.601 1.303-.845 1.604-.913.299-.068.713-.32.594-.845-.119-.525-6.191-27.568-6.191-27.568s-1.43.638-1.975-.025c-.543-.664-1.514-1.466-1.975-3.488-.459-2.021-.506-3.271-.285-4.028.223-.76 1.535-1.217 1.76-1.269.223-.051.488-.269.234-1.392-.256-1.123-1.705-8.194-1.705-8.194s-1.084.089-1.658-.016c-.576-.105-4.629.423-5.354.35-.727-.071-2.557.188-3.496-1.174-.939-1.36-.527-2.32.344-2.99.871-.671 3.525-1.118 3.525-1.118s.48-.661.244-1c-.234-.34-3.109-.868-3.539-1.715-.428-.846-.611-2.695.891-3.353 1.506-.656 4.252-1.044 5.076-1.232.822-.187.742-.878.441-1.517-.303-.641-1.365.23-1.699.149-.334-.082-.908-.187-1.072-1.253-.164-1.066-.662-1.188-.748-1.562-.086-.373.049-.481.428-.884.381-.4-.006-1.416-.389-2.745-.379-1.332-1.598-8.063-1.598-8.063s-.988.147-.842-.596c.145-.743.32-1.019.32-1.019l-2.373-9.381s-1.17.738-1.08.088c.088-.649.527-1.144.527-1.144s-.475-1.389-.783-1.712c-.311-.324-.412-.771-.205-.898.209-.125-.51-.514-.68-1.262-.17-.75-.965-4.583-.965-4.583s1.041.077 1.049-.239c.006-.317-.314-1.031-.314-1.031s-.5-.123-.701-.312.008-.318.279-.851c.273-.537.09-.65-.037-.859-.127-.208-.607-.256-.631-1.038-.02-.783-.156-1.381.502-1.609.654-.229.109-.893.109-.893s-.504.195-.99.147c-.482-.048-.459-.289-.719-1.095-.266-.808-1.414-6.216-1.414-6.216s-.984-.17-.988-.877c-.002-.709.385-1.426.385-1.426s-.061-.616-.451-.606c-.393.011-.951-.021-1.139-.843l-.289-1.273s-1.051 1.263-.848 2.161c.205.898.781 4.469 1.105 5.89.322 1.424.561 2.471.197 2.947-.365.478.082 1.401.217 1.999.137.599 1.58 1.058 1.422 2.434-.162 1.376-1.115 2.38-1.914 2.324-.801-.054-2.094-.547-2.01-1.906.086-1.356.525-1.85.525-1.85s.25-.295.086-.652c-.158-.357-.938-1.361-.957-2.144-.021-.783.301-1.799.301-1.799s.277-.851-.043-1.565-.633-.014-.99.146c-.357.161-.271.535-.646.621-.373.085-1.525-.127-1.738-1.417-.217-1.288.662-2.276 1.312-2.188.648.089.699.312.699.312s.465-.734.104-1.282-.879-.746-1.109-.377c-.232.366-.229 1.075-.797.652-.566-.422-1.246-.976-1.283-1.834-.037-.857.525-1.853 1.141-1.912.615-.063.719.388.719.388s.492.438.49-.27c-.004-.709.443-2.543.342-2.992-.102-.448.152-2.79.555-4.141.4-1.353.939-2.104.852-3.187-.092-1.081-.273-2.93-1.057-4.641-.783-1.712-2-1.513-1.564-3.424.43-1.909.293-5.973-1.133-8.089-1.428-2.116-1.736-2.439-1.336-3.792.4-1.351-.068-5.496-.861-7.598-.793-2.104-2.133-3.846-2.611-4.211-.477-.363-.695-.629-.268-2.221.424-1.594.854-2.478.309-4.875l-2.08-10.865.463-.737-2.822-15.184.455-.419s-.104-2.182.482-2.392c.58-.212-.965-6.315-1.922-9.486-.957-3.168-2.248-6.417-2.793-8.813-.545-2.395-1.529-7.763-1.896-9.725-.367-1.965-2.283-13.497-2.453-14.245-.17-.75-.998-6.467-.998-6.467s-.688.786-1.062.871c-.373.085-2.07.235-2.518-.688-.447-.922-.938-2.385-.174-3.188.762-.803 2.125-1.036 2.529-.654.4.381-.453-3.362-.453-3.362s-1.277 2.144-2.893 1.129c-1.607-1.012-1.832-2.181-1.42-3.14.41-.96 1.213-1.931 2.365-1.719 1.148.211 1.65.332 1.65.332s-.896-6.015-1.383-8.502c-.488-2.489-.686-7.169-.33-9.061.357-1.891 1.375-3.304 3.604-3.889 2.23-.587 3.789-.312 5.311 2.572 1.521 2.883 3.107 8.114 3.107 8.114z"/><path d="M834.225 420.661s.795-.654 1.234-.281c.439.372.971 1.668 1.15 2.454.178.788.32 1.937-.104 2.15-.424.215-1.123.255-1.363-.28-.237-.537-.917-4.043-.917-4.043z"/></g></svg>