<?xml version="1.0" encoding="utf-8"?>
<!-- Generator: Adobe Illustrator 15.1.0, SVG Export Plug-In . SVG Version: 6.00 Build 0)  -->
<!DOCTYPE svg PUBLIC "-//W3C//DTD SVG 1.1//EN" "http://www.w3.org/Graphics/SVG/1.1/DTD/svg11.dtd">
<svg version="1.1" id="Ebene_1" xmlns="http://www.w3.org/2000/svg" xmlns:xlink="http://www.w3.org/1999/xlink" x="0px" y="0px"
	 width="81.25px" height="7.75px" viewBox="0 0 81.25 7.75" enable-background="new 0 0 81.25 7.75" xml:space="preserve">
<g opacity="0.5">
	<defs>
		<rect id="SVGID_1_" x="-6.75" opacity="0.5" width="95.75" height="18.735"/>
	</defs>
	<clipPath id="SVGID_2_">
		<use xlink:href="#SVGID_1_"  overflow="visible"/>
	</clipPath>
	<g clip-path="url(#SVGID_2_)">
		<path fill="#FFFFFF" d="M48.105-1.007c0,0.863-1.052,1.563-2.348,1.563L2.932,5.5c-1.296,0-2.347-0.7-2.347-1.564v-5.222
			c0-0.863,1.05-1.563,2.347-1.563h42.826c1.296,0,2.348,0.7,2.348,1.563V-1.007z"/>
		<path fill="#FEFEFE" d="M48.086-1.012c0,0.859-1.048,1.558-2.339,1.558L3.055,5.462c-1.292,0-2.338-0.697-2.338-1.559V-1.29
			c0-0.859,1.046-1.557,2.338-1.557h42.692c1.291,0,2.339,0.697,2.339,1.557V-1.012z"/>
		<path fill="#FDFDFD" d="M48.066-1.018c0,0.856-1.043,1.551-2.329,1.551l-42.56,4.89c-1.286,0-2.328-0.694-2.328-1.552v-5.164
			c0-0.857,1.042-1.552,2.328-1.552h42.56c1.286,0,2.329,0.695,2.329,1.552V-1.018z"/>
		<path fill="#FCFCFC" d="M48.047-1.022c0,0.854-1.039,1.545-2.319,1.545L3.301,5.385c-1.281,0-2.318-0.692-2.318-1.546v-5.136
			c0-0.853,1.037-1.545,2.318-1.545h42.426c1.28,0,2.319,0.692,2.319,1.545V-1.022z"/>
		<path fill="#FBFBFB" d="M48.028-1.027c0,0.85-1.035,1.539-2.311,1.539L3.425,5.347c-1.276,0-2.31-0.689-2.31-1.54v-5.107
			c0-0.849,1.034-1.538,2.31-1.538h42.293c1.275,0,2.311,0.689,2.311,1.538V-1.027z"/>
		<path fill="#FAFAFA" d="M48.008-1.032c0,0.846-1.03,1.532-2.301,1.532L3.547,5.308c-1.271,0-2.3-0.687-2.3-1.533v-5.078
			c0-0.847,1.029-1.532,2.3-1.532h42.16c1.271,0,2.301,0.686,2.301,1.532V-1.032z"/>
		<path fill="#F9F9F9" d="M47.988-1.038c0,0.843-1.026,1.526-2.291,1.526L3.67,5.269c-1.266,0-2.291-0.684-2.291-1.527v-5.049
			c0-0.843,1.025-1.526,2.291-1.526h42.027c1.265,0,2.291,0.684,2.291,1.526V-1.038z"/>
		<path fill="#F8F8F8" d="M47.97-1.043c0,0.84-1.022,1.521-2.282,1.521L3.794,5.23c-1.26,0-2.281-0.681-2.281-1.521v-5.021
			c0-0.839,1.021-1.52,2.281-1.52h41.894c1.26,0,2.282,0.681,2.282,1.52V-1.043z"/>
		<path fill="#F7F7F7" d="M47.95-1.048c0,0.836-1.019,1.515-2.272,1.515L3.917,5.192c-1.255,0-2.272-0.678-2.272-1.515v-4.992
			c0-0.836,1.017-1.514,2.272-1.514h41.761c1.254,0,2.272,0.678,2.272,1.514V-1.048z"/>
		<path fill="#F6F6F6" d="M47.931-1.053c0,0.832-1.014,1.508-2.264,1.508L4.04,5.153c-1.25,0-2.263-0.675-2.263-1.508v-4.964
			c0-0.833,1.013-1.508,2.263-1.508h41.627c1.25,0,2.264,0.675,2.264,1.508V-1.053z"/>
		<path fill="#F5F5F5" d="M47.911-1.058c0,0.828-1.01,1.501-2.255,1.501L4.163,5.114c-1.245,0-2.253-0.672-2.253-1.502v-4.935
			c0-0.829,1.009-1.501,2.253-1.501h41.493c1.245,0,2.255,0.672,2.255,1.501V-1.058z"/>
		<path fill="#F4F4F4" d="M47.892-1.062c0,0.825-1.006,1.494-2.245,1.494L4.287,5.076c-1.24,0-2.244-0.669-2.244-1.496v-4.906
			c0-0.825,1.004-1.494,2.244-1.494h41.36c1.239,0,2.245,0.669,2.245,1.494V-1.062z"/>
		<path fill="#F3F3F3" d="M47.872-1.068c0,0.822-1.001,1.489-2.235,1.489L4.41,5.038c-1.234,0-2.235-0.667-2.235-1.489v-4.878
			c0-0.822,1-1.488,2.235-1.488h41.227c1.234,0,2.235,0.667,2.235,1.488V-1.068z"/>
		<path fill="#F2F2F2" d="M47.853-1.073c0,0.818-0.997,1.482-2.226,1.482L4.533,4.999c-1.229,0-2.225-0.663-2.225-1.483v-4.849
			c0-0.818,0.996-1.482,2.225-1.482h41.094c1.229,0,2.226,0.664,2.226,1.482V-1.073z"/>
		<path fill="#F1F1F1" d="M47.833-1.079c0,0.815-0.993,1.477-2.217,1.477L4.656,4.961c-1.225,0-2.216-0.661-2.216-1.478v-4.82
			c0-0.815,0.992-1.476,2.216-1.476h40.96c1.224,0,2.217,0.661,2.217,1.476V-1.079z"/>
		<path fill="#F0F0F0" d="M47.813-1.084c0,0.812-0.988,1.471-2.207,1.471L4.779,4.923c-1.219,0-2.206-0.659-2.206-1.472V-1.34
			c0-0.812,0.987-1.47,2.206-1.47h40.828c1.219,0,2.207,0.658,2.207,1.47V-1.084z"/>
		<path fill="#EFEFEF" d="M47.795-1.088c0,0.808-0.984,1.463-2.198,1.463L4.902,4.885c-1.214,0-2.197-0.656-2.197-1.465v-4.763
			c0-0.809,0.983-1.465,2.197-1.465h40.694c1.214,0,2.198,0.656,2.198,1.465V-1.088z"/>
		<path fill="#EEEEEE" d="M47.775-1.094c0,0.805-0.98,1.458-2.189,1.458L5.025,4.846c-1.209,0-2.188-0.653-2.188-1.459v-4.733
			c0-0.805,0.979-1.458,2.188-1.458h40.561c1.209,0,2.189,0.653,2.189,1.458V-1.094z"/>
		<path fill="#EDEDED" d="M47.755-1.1c0,0.802-0.976,1.452-2.179,1.452L5.148,4.807c-1.204,0-2.179-0.649-2.179-1.452v-4.705
			c0-0.802,0.975-1.452,2.179-1.452h40.428c1.203,0,2.179,0.65,2.179,1.452V-1.1z"/>
		<path fill="#ECECEC" d="M47.736-1.104c0,0.799-0.973,1.446-2.17,1.446L5.272,4.769c-1.199,0-2.169-0.647-2.169-1.446v-4.677
			c0-0.798,0.971-1.445,2.169-1.445h40.294c1.197,0,2.17,0.647,2.17,1.445V-1.104z"/>
		<path fill="#EBEBEB" d="M47.717-1.109c0,0.795-0.968,1.439-2.16,1.439L5.395,4.73c-1.193,0-2.16-0.645-2.16-1.44v-4.647
			c0-0.795,0.967-1.439,2.16-1.439h40.162c1.192,0,2.16,0.645,2.16,1.439V-1.109z"/>
		<path fill="#EAEAEA" d="M47.697-1.114c0,0.791-0.964,1.433-2.151,1.433L5.518,4.691c-1.188,0-2.151-0.642-2.151-1.434v-4.619
			c0-0.792,0.962-1.433,2.151-1.433h40.028c1.188,0,2.151,0.641,2.151,1.433V-1.114z"/>
		<path fill="#E9E9E9" d="M47.678-1.119c0,0.787-0.959,1.427-2.142,1.427L5.641,4.653c-1.183,0-2.142-0.64-2.142-1.428v-4.591
			c0-0.788,0.958-1.427,2.142-1.427h39.895c1.183,0,2.142,0.639,2.142,1.427V-1.119z"/>
		<path fill="#E8E8E8" d="M47.658-1.124c0,0.783-0.955,1.42-2.133,1.42L5.764,4.615c-1.178,0-2.132-0.637-2.132-1.422v-4.562
			c0-0.784,0.954-1.421,2.132-1.421h39.761c1.178,0,2.133,0.637,2.133,1.421V-1.124z"/>
		<path fill="#E7E7E7" d="M47.64-1.129c0,0.78-0.951,1.414-2.124,1.414L5.888,4.576c-1.173,0-2.123-0.633-2.123-1.415v-4.533
			c0-0.78,0.95-1.414,2.123-1.414h39.628c1.173,0,2.124,0.634,2.124,1.414V-1.129z"/>
		<path fill="#E6E6E6" d="M47.62-1.135c0,0.777-0.947,1.408-2.114,1.408L6.011,4.538c-1.167,0-2.113-0.631-2.113-1.409v-4.504
			c0-0.778,0.946-1.408,2.113-1.408h39.495c1.167,0,2.114,0.63,2.114,1.408V-1.135z"/>
		<path fill="#E5E5E5" d="M47.601-1.141c0,0.774-0.943,1.402-2.105,1.402L6.133,4.499c-1.162,0-2.104-0.628-2.104-1.403v-4.475
			c0-0.774,0.942-1.402,2.104-1.402h39.362c1.162,0,2.105,0.628,2.105,1.402V-1.141z"/>
		<path fill="#E4E4E4" d="M47.581-1.146c0,0.771-0.938,1.396-2.096,1.396L6.257,4.461c-1.158,0-2.095-0.625-2.095-1.396v-4.447
			c0-0.771,0.938-1.396,2.095-1.396h39.228c1.157,0,2.096,0.625,2.096,1.396V-1.146z"/>
		<path fill="#E3E3E3" d="M47.562-1.149c0,0.767-0.935,1.389-2.086,1.389L6.38,4.422c-1.152,0-2.085-0.622-2.085-1.39v-4.418
			c0-0.768,0.934-1.39,2.085-1.39h39.095c1.151,0,2.086,0.622,2.086,1.39V-1.149z"/>
		<path fill="#E2E2E2" d="M47.542-1.155c0,0.764-0.931,1.384-2.076,1.384L6.503,4.384c-1.147,0-2.076-0.62-2.076-1.384v-4.39
			c0-0.764,0.929-1.384,2.076-1.384h38.963c1.146,0,2.076,0.62,2.076,1.384V-1.155z"/>
		<path fill="#E1E1E1" d="M47.522-1.16c0,0.76-0.926,1.377-2.067,1.377L6.626,4.345c-1.142,0-2.067-0.616-2.067-1.378v-4.36
			c0-0.76,0.925-1.377,2.067-1.377h38.829c1.142,0,2.067,0.617,2.067,1.377V-1.16z"/>
		<path fill="#E0E0E0" d="M47.503-1.165c0,0.757-0.921,1.37-2.058,1.37L6.75,4.307c-1.137,0-2.057-0.613-2.057-1.371v-4.332
			c0-0.757,0.92-1.371,2.057-1.371h38.696c1.137,0,2.058,0.614,2.058,1.371V-1.165z"/>
		<path fill="#DFDFDF" d="M47.484-1.17c0,0.753-0.918,1.364-2.049,1.364L6.873,4.269c-1.132,0-2.048-0.611-2.048-1.365V-1.4
			c0-0.753,0.917-1.364,2.048-1.364h38.562c1.131,0,2.049,0.611,2.049,1.364V-1.17z"/>
		<path fill="#DEDEDE" d="M47.465-1.176c0,0.75-0.914,1.358-2.04,1.358L6.996,4.229c-1.127,0-2.039-0.608-2.039-1.358v-4.275
			c0-0.75,0.912-1.358,2.039-1.358h38.429c1.126,0,2.04,0.608,2.04,1.358V-1.176z"/>
		<path fill="#DDDDDD" d="M47.444-1.181c0,0.746-0.909,1.352-2.029,1.352L7.119,4.191c-1.121,0-2.029-0.606-2.029-1.354v-4.246
			c0-0.746,0.908-1.352,2.029-1.352h38.296c1.12,0,2.029,0.605,2.029,1.352V-1.181z"/>
		<path fill="#DCDCDC" d="M47.426-1.186c0,0.743-0.905,1.346-2.021,1.346L7.243,4.152c-1.117,0-2.021-0.603-2.021-1.347v-4.217
			c0-0.743,0.904-1.346,2.021-1.346h38.162c1.116,0,2.021,0.603,2.021,1.346V-1.186z"/>
		<path fill="#DBDBDB" d="M47.406-1.19c0,0.739-0.9,1.34-2.012,1.34L7.366,4.114c-1.111,0-2.011-0.6-2.011-1.34v-4.189
			c0-0.739,0.9-1.34,2.011-1.34h38.029c1.111,0,2.012,0.601,2.012,1.34V-1.19z"/>
		<path fill="#DADADA" d="M47.387-1.196c0,0.736-0.896,1.334-2.002,1.334L7.488,4.076c-1.105,0-2.001-0.598-2.001-1.335v-4.16
			c0-0.736,0.896-1.333,2.001-1.333h37.896c1.105,0,2.002,0.597,2.002,1.333V-1.196z"/>
		<path fill="#D9D9D9" d="M47.367-1.201c0,0.732-0.893,1.327-1.993,1.327L7.612,4.037c-1.101,0-1.993-0.595-1.993-1.328v-4.131
			c0-0.733,0.892-1.328,1.993-1.328h37.762c1.101,0,1.993,0.595,1.993,1.328V-1.201z"/>
		<path fill="#D8D8D8" d="M47.348-1.206c0,0.729-0.889,1.32-1.983,1.32L7.735,3.999c-1.095,0-1.983-0.592-1.983-1.322v-4.103
			c0-0.729,0.888-1.321,1.983-1.321h37.629c1.095,0,1.983,0.592,1.983,1.321V-1.206z"/>
		<path fill="#D7D7D7" d="M47.328-1.211c0,0.726-0.884,1.314-1.974,1.314L7.858,3.961c-1.09,0-1.973-0.59-1.973-1.316V-1.43
			c0-0.725,0.883-1.314,1.973-1.314h37.496c1.09,0,1.974,0.589,1.974,1.314V-1.211z"/>
		<path fill="#D6D6D6" d="M47.309-1.217c0,0.723-0.88,1.309-1.965,1.309L7.981,3.922c-1.085,0-1.964-0.586-1.964-1.31v-4.045
			c0-0.723,0.879-1.309,1.964-1.309h37.362c1.085,0,1.965,0.586,1.965,1.309V-1.217z"/>
		<path fill="#D5D5D5" d="M47.289-1.222c0,0.719-0.876,1.302-1.955,1.302L8.104,3.883c-1.08,0-1.955-0.583-1.955-1.303v-4.017
			c0-0.719,0.875-1.303,1.955-1.303h37.23c1.079,0,1.955,0.583,1.955,1.303V-1.222z"/>
		<path fill="#D4D4D4" d="M47.27-1.227c0,0.715-0.871,1.296-1.945,1.296L8.228,3.845c-1.075,0-1.945-0.581-1.945-1.297V-1.44
			c0-0.715,0.871-1.296,1.945-1.296h37.097c1.074,0,1.945,0.581,1.945,1.296V-1.227z"/>
		<path fill="#D3D3D3" d="M47.251-1.231c0,0.712-0.867,1.29-1.937,1.29L8.351,3.807c-1.07,0-1.936-0.578-1.936-1.291v-3.959
			c0-0.712,0.866-1.29,1.936-1.29h36.963c1.069,0,1.937,0.578,1.937,1.29V-1.231z"/>
		<path fill="#D2D2D2" d="M47.231-1.237c0,0.709-0.863,1.284-1.928,1.284L8.474,3.768c-1.064,0-1.927-0.575-1.927-1.284v-3.931
			c0-0.708,0.862-1.283,1.927-1.283h36.83c1.064,0,1.928,0.575,1.928,1.283V-1.237z"/>
		<path fill="#D1D1D1" d="M47.211-1.242c0,0.705-0.858,1.277-1.918,1.277L8.597,3.729c-1.06,0-1.917-0.572-1.917-1.277v-3.902
			c0-0.705,0.858-1.277,1.917-1.277h36.696c1.06,0,1.918,0.572,1.918,1.277V-1.242z"/>
		<path fill="#D0D0D0" d="M47.192-1.247c0,0.701-0.854,1.271-1.908,1.271L8.72,3.69c-1.055,0-1.908-0.569-1.908-1.271v-3.874
			c0-0.701,0.853-1.271,1.908-1.271h36.564c1.054,0,1.908,0.569,1.908,1.271V-1.247z"/>
		<path fill="#CFCFCF" d="M47.173-1.252c0,0.698-0.851,1.265-1.899,1.265l-36.43,3.64c-1.05,0-1.898-0.566-1.898-1.266v-3.844
			c0-0.699,0.849-1.266,1.898-1.266h36.43c1.049,0,1.899,0.566,1.899,1.266V-1.252z"/>
		<path fill="#CECECE" d="M47.153-1.258c0,0.695-0.847,1.26-1.89,1.26L8.966,3.613c-1.044,0-1.889-0.563-1.889-1.259v-3.815
			c0-0.695,0.845-1.26,1.889-1.26h36.297c1.043,0,1.89,0.564,1.89,1.26V-1.258z"/>
		<path fill="#CDCDCD" d="M47.134-1.263c0,0.691-0.843,1.253-1.881,1.253L9.09,3.575c-1.04,0-1.881-0.562-1.881-1.254v-3.787
			c0-0.691,0.841-1.252,1.881-1.252h36.163c1.038,0,1.881,0.561,1.881,1.252V-1.263z"/>
		<path fill="#CCCCCC" d="M47.114-1.268c0,0.688-0.838,1.246-1.871,1.246L9.213,3.537c-1.034,0-1.871-0.559-1.871-1.247v-3.759
			c0-0.688,0.837-1.246,1.871-1.246h36.03c1.033,0,1.871,0.558,1.871,1.246V-1.268z"/>
		<path fill="#CBCBCB" d="M47.096-1.272c0,0.685-0.834,1.24-1.862,1.24L9.336,3.498c-1.029,0-1.862-0.555-1.862-1.24v-3.729
			c0-0.685,0.833-1.24,1.862-1.24h35.897c1.028,0,1.862,0.555,1.862,1.24V-1.272z"/>
		<path fill="#CACACA" d="M47.076-1.277c0,0.681-0.83,1.233-1.854,1.233L9.459,3.46c-1.023,0-1.852-0.553-1.852-1.235v-3.701
			c0-0.681,0.829-1.233,1.852-1.233h35.764c1.023,0,1.854,0.553,1.854,1.233V-1.277z"/>
		<path fill="#C9C9C9" d="M47.056-1.283c0,0.678-0.825,1.228-1.843,1.228L9.582,3.421c-1.019,0-1.843-0.55-1.843-1.228v-3.673
			c0-0.678,0.824-1.228,1.843-1.228h35.631c1.018,0,1.843,0.55,1.843,1.228V-1.283z"/>
		<path fill="#C8C8C8" d="M47.037-1.288c0,0.675-0.821,1.222-1.834,1.222L9.706,3.383c-1.013,0-1.833-0.547-1.833-1.223v-3.643
			c0-0.675,0.82-1.222,1.833-1.222h35.498c1.013,0,1.834,0.547,1.834,1.222V-1.288z"/>
		<path fill="#C7C7C7" d="M47.018-1.293c0,0.671-0.816,1.215-1.824,1.215L9.829,3.345c-1.008,0-1.824-0.545-1.824-1.216v-3.615
			c0-0.671,0.816-1.216,1.824-1.216h35.364c1.008,0,1.824,0.545,1.824,1.216V-1.293z"/>
		<path fill="#C6C6C6" d="M46.998-1.299c0,0.668-0.812,1.21-1.815,1.21L9.952,3.306c-1.002,0-1.815-0.542-1.815-1.21V-1.49
			c0-0.667,0.812-1.209,1.815-1.209h35.231c1.003,0,1.815,0.542,1.815,1.209V-1.299z"/>
		<path fill="#C5C5C5" d="M46.979-1.304c0,0.664-0.809,1.202-1.807,1.202L10.075,3.268c-0.998,0-1.806-0.539-1.806-1.204v-3.558
			c0-0.664,0.808-1.203,1.806-1.203h35.097c0.998,0,1.807,0.539,1.807,1.203V-1.304z"/>
		<path fill="#C4C4C4" d="M46.959-1.309c0,0.66-0.805,1.197-1.797,1.197l-34.964,3.34c-0.993,0-1.796-0.535-1.796-1.197v-3.528
			c0-0.661,0.803-1.197,1.796-1.197h34.964c0.992,0,1.797,0.536,1.797,1.197V-1.309z"/>
		<path fill="#C3C3C3" d="M46.939-1.313c0,0.657-0.8,1.19-1.787,1.19L10.321,3.19C9.334,3.19,8.535,2.657,8.535,2v-3.501
			c0-0.657,0.799-1.19,1.786-1.19h34.831c0.987,0,1.787,0.533,1.787,1.19V-1.313z"/>
		<path fill="#C2C2C2" d="M46.92-1.318c0,0.652-0.796,1.184-1.777,1.184L10.444,3.152c-0.982,0-1.777-0.531-1.777-1.186v-3.471
			c0-0.654,0.795-1.185,1.777-1.185h34.698c0.981,0,1.777,0.53,1.777,1.185V-1.318z"/>
		<path fill="#C1C1C1" d="M46.9-1.324c0,0.65-0.792,1.178-1.769,1.178l-34.564,3.26c-0.978,0-1.769-0.528-1.769-1.179v-3.442
			c0-0.651,0.791-1.179,1.769-1.179h34.564c0.977,0,1.769,0.527,1.769,1.179V-1.324z"/>
		<path fill="#C0C0C0" d="M46.881-1.329c0,0.646-0.787,1.172-1.758,1.172L10.69,3.074c-0.972,0-1.759-0.524-1.759-1.172v-3.414
			c0-0.647,0.787-1.172,1.759-1.172h34.433c0.971,0,1.758,0.525,1.758,1.172V-1.329z"/>
		<path fill="#BFBFBF" d="M46.862-1.334c0,0.644-0.783,1.166-1.75,1.166L10.814,3.036c-0.967,0-1.75-0.521-1.75-1.166v-3.385
			c0-0.644,0.783-1.166,1.75-1.166h34.298c0.967,0,1.75,0.522,1.75,1.166V-1.334z"/>
		<path fill="#BEBEBE" d="M46.842-1.339c0,0.64-0.778,1.159-1.739,1.159L10.937,2.998c-0.962,0-1.74-0.52-1.74-1.16v-3.356
			c0-0.641,0.778-1.159,1.74-1.159h34.166c0.961,0,1.739,0.519,1.739,1.159V-1.339z"/>
		<path fill="#BDBDBD" d="M46.822-1.345c0,0.637-0.774,1.153-1.73,1.153L11.06,2.959c-0.956,0-1.73-0.517-1.73-1.153v-3.328
			c0-0.637,0.774-1.153,1.73-1.153h34.032c0.956,0,1.73,0.517,1.73,1.153V-1.345z"/>
		<path fill="#BCBCBC" d="M46.804-1.35c0,0.633-0.771,1.146-1.722,1.146L11.184,2.921c-0.952,0-1.722-0.515-1.722-1.147v-3.299
			c0-0.634,0.77-1.147,1.722-1.147h33.898c0.95,0,1.722,0.514,1.722,1.147V-1.35z"/>
		<path fill="#BBBBBB" d="M46.784-1.354c0,0.63-0.767,1.141-1.712,1.141L11.307,2.883c-0.946,0-1.712-0.512-1.712-1.142v-3.271
			c0-0.63,0.766-1.141,1.712-1.141h33.766c0.945,0,1.712,0.511,1.712,1.141V-1.354z"/>
		<path fill="#BABABA" d="M46.765-1.359c0,0.626-0.763,1.134-1.703,1.134L11.43,2.844c-0.941,0-1.703-0.508-1.703-1.135v-3.242
			c0-0.626,0.761-1.135,1.703-1.135h33.632c0.94,0,1.703,0.509,1.703,1.135V-1.359z"/>
		<path fill="#B9B9B9" d="M46.745-1.365c0,0.623-0.759,1.129-1.693,1.129L11.553,2.805c-0.936,0-1.694-0.505-1.694-1.129v-3.213
			c0-0.623,0.758-1.128,1.694-1.128h33.499c0.935,0,1.693,0.505,1.693,1.128V-1.365z"/>
		<path fill="#B8B8B8" d="M46.727-1.37c0,0.619-0.755,1.122-1.686,1.122L11.676,2.767c-0.931,0-1.684-0.503-1.684-1.122V-1.54
			c0-0.619,0.753-1.122,1.684-1.122h33.365c0.931,0,1.686,0.503,1.686,1.122V-1.37z"/>
		<path fill="#B7B7B7" d="M46.707-1.375c0,0.615-0.75,1.116-1.675,1.116L11.8,2.729c-0.926,0-1.675-0.5-1.675-1.116v-3.156
			c0-0.615,0.749-1.115,1.675-1.115h33.232c0.925,0,1.675,0.5,1.675,1.115V-1.375z"/>
		<path fill="#B6B6B6" d="M46.688-1.38c0,0.612-0.746,1.109-1.666,1.109l-33.099,2.96c-0.92,0-1.666-0.497-1.666-1.109v-3.128
			c0-0.612,0.745-1.109,1.666-1.109h33.099c0.92,0,1.666,0.497,1.666,1.109V-1.38z"/>
		<path fill="#B5B5B5" d="M46.668-1.386c0,0.608-0.742,1.104-1.656,1.104L12.045,2.651c-0.915,0-1.656-0.495-1.656-1.104v-3.099
			c0-0.609,0.741-1.104,1.656-1.104h32.967c0.914,0,1.656,0.494,1.656,1.104V-1.386z"/>
		<path fill="#B4B4B4" d="M46.648-1.391c0,0.605-0.738,1.098-1.647,1.098L12.169,2.613c-0.91,0-1.647-0.492-1.647-1.098v-3.07
			c0-0.605,0.737-1.097,1.647-1.097h32.832c0.909,0,1.647,0.491,1.647,1.097V-1.391z"/>
		<path fill="#B3B3B3" d="M46.629-1.395c0,0.602-0.733,1.09-1.638,1.09L12.292,2.574c-0.905,0-1.638-0.488-1.638-1.091v-3.042
			c0-0.602,0.733-1.091,1.638-1.091h32.699c0.904,0,1.638,0.489,1.638,1.091V-1.395z"/>
		<path fill="#B2B2B2" d="M46.609-1.4c0,0.599-0.729,1.084-1.628,1.084L12.415,2.536c-0.9,0-1.628-0.486-1.628-1.085v-3.013
			c0-0.599,0.728-1.085,1.628-1.085h32.566c0.899,0,1.628,0.486,1.628,1.085V-1.4z"/>
		<path fill="#B1B1B1" d="M46.59-1.406c0,0.596-0.725,1.079-1.619,1.079L12.538,2.497c-0.895,0-1.619-0.483-1.619-1.079v-2.983
			c0-0.596,0.725-1.079,1.619-1.079h32.433c0.895,0,1.619,0.483,1.619,1.079V-1.406z"/>
		<path fill="#B0B0B0" d="M46.57-1.411c0,0.592-0.721,1.072-1.609,1.072l-32.3,2.798c-0.89,0-1.609-0.48-1.609-1.073v-2.955
			c0-0.591,0.72-1.072,1.609-1.072h32.3c0.889,0,1.609,0.481,1.609,1.072V-1.411z"/>
		<path fill="#AFAFAF" d="M46.552-1.416c0,0.588-0.717,1.066-1.601,1.066L12.784,2.421c-0.884,0-1.6-0.478-1.6-1.066v-2.927
			c0-0.588,0.715-1.066,1.6-1.066h32.167c0.884,0,1.601,0.478,1.601,1.066V-1.416z"/>
		<path fill="#AFAEAE" d="M46.531-1.421c0,0.584-0.712,1.06-1.59,1.06L12.908,2.383c-0.879,0-1.591-0.476-1.591-1.062v-2.897
			c0-0.585,0.711-1.06,1.591-1.06h32.034c0.878,0,1.59,0.475,1.59,1.06V-1.421z"/>
		<path fill="#AEADAD" d="M46.512-1.426c0,0.58-0.708,1.053-1.581,1.053l-31.9,2.716c-0.874,0-1.582-0.472-1.582-1.054V-1.58
			c0-0.581,0.708-1.054,1.582-1.054h31.9c0.873,0,1.581,0.473,1.581,1.054V-1.426z"/>
		<path fill="#ADACAC" d="M46.493-1.432c0,0.578-0.704,1.047-1.573,1.047L13.154,2.305c-0.869,0-1.572-0.47-1.572-1.047v-2.841
			c0-0.578,0.703-1.048,1.572-1.048H44.92c0.869,0,1.573,0.47,1.573,1.048V-1.432z"/>
		<path fill="#ACABAB" d="M46.474-1.436c0,0.574-0.7,1.041-1.563,1.041L13.277,2.267c-0.864,0-1.562-0.467-1.562-1.042v-2.811
			c0-0.575,0.698-1.042,1.562-1.042H44.91c0.863,0,1.563,0.467,1.563,1.042V-1.436z"/>
		<path fill="#ABAAAA" d="M46.454-1.441c0,0.57-0.695,1.035-1.554,1.035L13.4,2.228c-0.859,0-1.554-0.464-1.554-1.034V-1.59
			c0-0.572,0.695-1.035,1.554-1.035h31.5c0.858,0,1.554,0.463,1.554,1.035V-1.441z"/>
		<path fill="#AAA9A9" d="M46.435-1.447c0,0.568-0.691,1.029-1.544,1.029L13.523,2.189c-0.854,0-1.544-0.461-1.544-1.029v-2.755
			c0-0.567,0.691-1.028,1.544-1.028h31.368c0.853,0,1.544,0.461,1.544,1.028V-1.447z"/>
		<path fill="#A9A8A8" d="M46.415-1.452c0,0.564-0.687,1.022-1.535,1.022L13.646,2.15c-0.849,0-1.535-0.457-1.535-1.022v-2.726
			c0-0.564,0.687-1.022,1.535-1.022H44.88c0.849,0,1.535,0.458,1.535,1.022V-1.452z"/>
		<path fill="#A8A7A7" d="M46.396-1.456c0,0.561-0.684,1.016-1.525,1.016L13.77,2.113c-0.843,0-1.526-0.456-1.526-1.018v-2.696
			c0-0.562,0.683-1.017,1.526-1.017h31.101c0.842,0,1.525,0.455,1.525,1.017V-1.456z"/>
		<path fill="#A7A6A6" d="M46.376-1.462c0,0.558-0.679,1.01-1.517,1.01L13.893,2.074c-0.838,0-1.516-0.453-1.516-1.011v-2.668
			c0-0.558,0.678-1.011,1.516-1.011h30.966c0.838,0,1.517,0.453,1.517,1.011V-1.462z"/>
		<path fill="#A6A5A5" d="M46.356-1.467c0,0.554-0.675,1.003-1.507,1.003L14.016,2.035c-0.833,0-1.507-0.45-1.507-1.004v-2.64
			c0-0.554,0.674-1.004,1.507-1.004H44.85c0.832,0,1.507,0.45,1.507,1.004V-1.467z"/>
		<path fill="#A5A4A4" d="M46.338-1.473c0,0.551-0.671,0.998-1.498,0.998L14.139,1.997c-0.828,0-1.498-0.447-1.498-0.998v-2.61
			c0-0.551,0.67-0.998,1.498-0.998H44.84c0.827,0,1.498,0.447,1.498,0.998V-1.473z"/>
		<path fill="#A4A3A3" d="M46.318-1.478c0,0.547-0.666,0.991-1.488,0.991L14.263,1.959c-0.823,0-1.489-0.445-1.489-0.992v-2.582
			c0-0.547,0.666-0.992,1.489-0.992H44.83c0.822,0,1.488,0.444,1.488,0.992V-1.478z"/>
		<path fill="#A3A2A2" d="M46.299-1.482c0,0.543-0.662,0.984-1.479,0.984L14.386,1.92c-0.817,0-1.479-0.441-1.479-0.985v-2.554
			c0-0.544,0.662-0.985,1.479-0.985H44.82c0.816,0,1.479,0.441,1.479,0.985V-1.482z"/>
		<path fill="#A2A1A1" d="M46.279-1.487c0,0.54-0.658,0.979-1.47,0.979L14.509,1.882c-0.812,0-1.47-0.439-1.47-0.979v-2.525
			c0-0.54,0.657-0.979,1.47-0.979H44.81c0.812,0,1.47,0.438,1.47,0.979V-1.487z"/>
		<path fill="#A1A0A0" d="M46.26-1.493c0,0.537-0.653,0.974-1.46,0.974L14.632,1.843c-0.808,0-1.46-0.436-1.46-0.974v-2.496
			c0-0.536,0.652-0.973,1.46-0.973H44.8c0.807,0,1.46,0.437,1.46,0.973V-1.493z"/>
		<path fill="#A09F9F" d="M46.24-1.498c0,0.533-0.649,0.967-1.451,0.967L14.755,1.805c-0.802,0-1.451-0.434-1.451-0.967V-1.63
			c0-0.534,0.649-0.967,1.451-0.967h30.034c0.802,0,1.451,0.433,1.451,0.967V-1.498z"/>
		<path fill="#9F9E9E" d="M46.221-1.503c0,0.529-0.645,0.96-1.441,0.96L14.878,1.766c-0.797,0-1.441-0.43-1.441-0.96v-2.438
			c0-0.531,0.645-0.961,1.441-0.961h29.901c0.797,0,1.441,0.43,1.441,0.961V-1.503z"/>
		<path fill="#9E9D9D" d="M46.201-1.508c0,0.525-0.641,0.954-1.432,0.954L15.001,1.728c-0.791,0-1.432-0.428-1.432-0.954v-2.41
			c0-0.527,0.641-0.954,1.432-0.954H44.77c0.791,0,1.432,0.427,1.432,0.954V-1.508z"/>
		<path fill="#9D9C9C" d="M46.182-1.513c0,0.522-0.637,0.947-1.423,0.947L15.125,1.689c-0.787,0-1.422-0.426-1.422-0.948v-2.382
			c0-0.523,0.636-0.948,1.422-0.948h29.634c0.786,0,1.423,0.425,1.423,0.948V-1.513z"/>
		<path fill="#9C9B9B" d="M46.162-1.519c0,0.52-0.633,0.942-1.413,0.942L15.248,1.65c-0.782,0-1.414-0.422-1.414-0.941v-2.354
			c0-0.52,0.632-0.941,1.414-0.941h29.501c0.78,0,1.413,0.422,1.413,0.941V-1.519z"/>
		<path fill="#9B9A9A" d="M46.143-1.523c0,0.516-0.628,0.936-1.403,0.936l-29.368,2.2c-0.777,0-1.404-0.42-1.404-0.936v-2.324
			c0-0.517,0.627-0.936,1.404-0.936h29.368c0.775,0,1.403,0.419,1.403,0.936V-1.523z"/>
		<path fill="#9A9999" d="M46.123-1.528c0,0.513-0.624,0.929-1.395,0.929L15.494,1.573c-0.771,0-1.396-0.417-1.396-0.929v-2.296
			c0-0.513,0.624-0.929,1.396-0.929h29.234c0.771,0,1.395,0.416,1.395,0.929V-1.528z"/>
		<path fill="#999898" d="M46.104-1.533c0,0.509-0.619,0.923-1.385,0.923L15.617,1.535c-0.766,0-1.386-0.414-1.386-0.924v-2.267
			c0-0.509,0.62-0.923,1.386-0.923h29.102c0.766,0,1.385,0.414,1.385,0.923V-1.533z"/>
		<path fill="#989797" d="M46.085-1.539c0,0.506-0.616,0.917-1.376,0.917L15.74,1.497c-0.761,0-1.376-0.412-1.376-0.917v-2.238
			c0-0.506,0.616-0.917,1.376-0.917h28.969c0.76,0,1.376,0.411,1.376,0.917V-1.539z"/>
		<path fill="#979696" d="M46.065-1.544c0,0.502-0.612,0.911-1.366,0.911L15.863,1.458c-0.755,0-1.367-0.408-1.367-0.911v-2.209
			c0-0.502,0.611-0.911,1.367-0.911h28.836c0.754,0,1.366,0.409,1.366,0.911V-1.544z"/>
		<path fill="#969595" d="M46.046-1.549c0,0.498-0.607,0.904-1.357,0.904L15.986,1.42c-0.75,0-1.357-0.406-1.357-0.905v-2.181
			c0-0.499,0.607-0.904,1.357-0.904h28.702c0.75,0,1.357,0.405,1.357,0.904V-1.549z"/>
		<path fill="#959494" d="M46.026-1.554c0,0.495-0.604,0.897-1.349,0.897L16.11,1.381c-0.746,0-1.348-0.402-1.348-0.898v-2.151
			c0-0.496,0.603-0.898,1.348-0.898h28.568c0.745,0,1.349,0.402,1.349,0.898V-1.554z"/>
		<path fill="#949393" d="M46.007-1.559c0,0.491-0.599,0.892-1.339,0.892l-28.435,2.01c-0.741,0-1.339-0.399-1.339-0.893v-2.123
			c0-0.492,0.598-0.892,1.339-0.892h28.435c0.74,0,1.339,0.399,1.339,0.892V-1.559z"/>
		<path fill="#939292" d="M45.987-1.564c0,0.488-0.595,0.886-1.329,0.886L16.356,1.305c-0.735,0-1.33-0.397-1.33-0.887v-2.094
			c0-0.489,0.595-0.887,1.33-0.887h28.302c0.734,0,1.329,0.397,1.329,0.887V-1.564z"/>
		<path fill="#929191" d="M45.969-1.569c0,0.485-0.591,0.88-1.32,0.88L16.479,1.266c-0.73,0-1.32-0.395-1.32-0.88V-1.68
			c0-0.485,0.59-0.88,1.32-0.88h28.169c0.729,0,1.32,0.395,1.32,0.88V-1.569z"/>
		<path fill="#919090" d="M45.949-1.574c0,0.481-0.587,0.873-1.311,0.873L16.603,1.227c-0.725,0-1.311-0.391-1.311-0.873v-2.037
			c0-0.481,0.586-0.874,1.311-0.874h28.036c0.724,0,1.311,0.392,1.311,0.874V-1.574z"/>
		<path fill="#908F8F" d="M45.93-1.579c0,0.478-0.582,0.866-1.302,0.866L16.726,1.189c-0.72,0-1.302-0.39-1.302-0.868v-2.008
			c0-0.479,0.582-0.868,1.302-0.868h27.902c0.72,0,1.302,0.388,1.302,0.868V-1.579z"/>
		<path fill="#8F8E8E" d="M45.91-1.585c0,0.476-0.578,0.861-1.292,0.861L16.849,1.15c-0.715,0-1.292-0.387-1.292-0.861V-1.69
			c0-0.476,0.577-0.861,1.292-0.861h27.77c0.714,0,1.292,0.386,1.292,0.861V-1.585z"/>
		<path fill="#8E8E8D" d="M45.891-1.59c0,0.472-0.574,0.854-1.283,0.854L16.972,1.111c-0.709,0-1.283-0.383-1.283-0.854v-1.951
			c0-0.472,0.574-0.854,1.283-0.854h27.636c0.709,0,1.283,0.383,1.283,0.854V-1.59z"/>
		<path fill="#8D8D8C" d="M45.871-1.595c0,0.468-0.57,0.848-1.273,0.848l-27.503,1.82c-0.704,0-1.273-0.38-1.273-0.849v-1.922
			c0-0.469,0.569-0.85,1.273-0.85h27.503c0.703,0,1.273,0.381,1.273,0.85V-1.595z"/>
		<path fill="#8C8C8B" d="M45.852-1.6c0,0.464-0.565,0.842-1.264,0.842l-27.37,1.792c-0.699,0-1.265-0.377-1.265-0.842v-1.894
			c0-0.465,0.565-0.843,1.265-0.843h27.37c0.698,0,1.264,0.378,1.264,0.843V-1.6z"/>
		<path fill="#8B8B8A" d="M45.832-1.605c0,0.461-0.562,0.836-1.255,0.836L17.342,0.996c-0.694,0-1.255-0.375-1.255-0.836v-1.865
			c0-0.461,0.561-0.836,1.255-0.836h27.235c0.693,0,1.255,0.375,1.255,0.836V-1.605z"/>
		<path fill="#8A8A89" d="M45.812-1.61c0,0.458-0.557,0.83-1.245,0.83L17.465,0.958c-0.689,0-1.246-0.372-1.246-0.83v-1.836
			c0-0.459,0.557-0.83,1.246-0.83h27.103c0.688,0,1.245,0.371,1.245,0.83V-1.61z"/>
		<path fill="#898988" d="M45.793-1.615c0,0.454-0.553,0.823-1.235,0.823l-26.97,1.711c-0.684,0-1.236-0.369-1.236-0.823v-1.808
			c0-0.455,0.552-0.824,1.236-0.824h26.97c0.683,0,1.235,0.369,1.235,0.824V-1.615z"/>
		<path fill="#888887" d="M45.773-1.62c0,0.45-0.549,0.816-1.227,0.816L17.711,0.881c-0.679,0-1.227-0.367-1.227-0.817v-1.778
			c0-0.452,0.548-0.818,1.227-0.818h26.836c0.678,0,1.227,0.366,1.227,0.818V-1.62z"/>
		<path fill="#878786" d="M45.755-1.625c0,0.446-0.545,0.811-1.218,0.811L17.834,0.843c-0.673,0-1.218-0.364-1.218-0.812v-1.75
			c0-0.448,0.544-0.812,1.218-0.812h26.703c0.673,0,1.218,0.364,1.218,0.812V-1.625z"/>
		<path fill="#868685" d="M45.735-1.631c0,0.443-0.541,0.805-1.208,0.805l-26.57,1.63c-0.668,0-1.208-0.361-1.208-0.806v-1.721
			c0-0.444,0.54-0.805,1.208-0.805h26.57c0.667,0,1.208,0.361,1.208,0.805V-1.631z"/>
		<path fill="#858584" d="M45.716-1.636c0,0.44-0.536,0.799-1.198,0.799L18.08,0.766c-0.663,0-1.198-0.358-1.198-0.799v-1.693
			c0-0.44,0.535-0.799,1.198-0.799h26.438c0.662,0,1.198,0.358,1.198,0.799V-1.636z"/>
		<path fill="#848483" d="M45.696-1.641c0,0.437-0.532,0.792-1.189,0.792L18.203,0.727c-0.658,0-1.189-0.355-1.189-0.793V-1.73
			c0-0.438,0.531-0.792,1.189-0.792h26.304c0.657,0,1.189,0.354,1.189,0.792V-1.641z"/>
		<path fill="#838382" d="M45.677-1.646c0,0.434-0.528,0.786-1.18,0.786l-26.17,1.548c-0.653,0-1.18-0.352-1.18-0.786v-1.635
			c0-0.435,0.527-0.787,1.18-0.787h26.17c0.651,0,1.18,0.353,1.18,0.787V-1.646z"/>
		<path fill="#828281" d="M45.658-1.65c0,0.43-0.524,0.779-1.171,0.779L18.45,0.65c-0.648,0-1.172-0.351-1.172-0.781v-1.605
			c0-0.431,0.523-0.781,1.172-0.781h26.037c0.646,0,1.171,0.35,1.171,0.781V-1.65z"/>
		<path fill="#818180" d="M45.639-1.656c0,0.426-0.52,0.773-1.162,0.773L18.573,0.611c-0.643,0-1.162-0.348-1.162-0.773V-1.74
			c0-0.427,0.52-0.774,1.162-0.774h25.903c0.643,0,1.162,0.347,1.162,0.774V-1.656z"/>
		<path fill="#80807F" d="M45.619-1.662c0,0.424-0.516,0.768-1.152,0.768L18.696,0.572c-0.637,0-1.152-0.344-1.152-0.768v-1.549
			c0-0.424,0.515-0.768,1.152-0.768h25.771c0.637,0,1.152,0.344,1.152,0.768V-1.662z"/>
		<path fill="#7F7F7E" d="M45.6-1.666c0,0.419-0.512,0.761-1.144,0.761L18.819,0.534c-0.632,0-1.143-0.342-1.143-0.761v-1.521
			c0-0.42,0.511-0.762,1.143-0.762h25.637c0.632,0,1.144,0.342,1.144,0.762V-1.666z"/>
		<path fill="#7E7E7D" d="M45.58-1.672c0,0.416-0.508,0.756-1.134,0.756L18.942,0.496c-0.627,0-1.134-0.34-1.134-0.756v-1.492
			c0-0.416,0.507-0.755,1.134-0.755h25.504c0.626,0,1.134,0.339,1.134,0.755V-1.672z"/>
		<path fill="#7D7D7C" d="M45.561-1.677c0,0.413-0.503,0.749-1.124,0.749L19.065,0.457c-0.622,0-1.124-0.336-1.124-0.748v-1.464
			c0-0.414,0.502-0.75,1.124-0.75h25.371c0.621,0,1.124,0.336,1.124,0.75V-1.677z"/>
		<path fill="#7C7C7B" d="M45.541-1.682c0,0.409-0.499,0.742-1.115,0.742L19.188,0.419c-0.617,0-1.115-0.333-1.115-0.743v-1.435
			c0-0.41,0.498-0.743,1.115-0.743h25.237c0.616,0,1.115,0.333,1.115,0.743V-1.682z"/>
		<path fill="#7B7B7A" d="M45.521-1.688c0,0.406-0.494,0.736-1.105,0.736L19.312,0.38c-0.612,0-1.106-0.33-1.106-0.736v-1.405
			c0-0.407,0.494-0.737,1.106-0.737h25.104c0.611,0,1.105,0.331,1.105,0.737V-1.688z"/>
		<path fill="#7A7A79" d="M45.502-1.691c0,0.401-0.49,0.729-1.096,0.729L19.435,0.342c-0.606,0-1.096-0.328-1.096-0.73v-1.377
			c0-0.403,0.49-0.73,1.096-0.73h24.971c0.605,0,1.096,0.327,1.096,0.73V-1.691z"/>
		<path fill="#797978" d="M45.482-1.697c0,0.398-0.486,0.725-1.086,0.725L19.559,0.304c-0.602,0-1.087-0.325-1.087-0.725V-1.77
			c0-0.399,0.485-0.725,1.087-0.725h24.838c0.6,0,1.086,0.325,1.086,0.725V-1.697z"/>
		<path fill="#787877" d="M45.463-1.702c0,0.396-0.481,0.718-1.076,0.718L19.682,0.265c-0.596,0-1.078-0.322-1.078-0.718v-1.32
			c0-0.396,0.482-0.718,1.078-0.718h24.705c0.595,0,1.076,0.322,1.076,0.718V-1.702z"/>
		<path fill="#777776" d="M45.443-1.707c0,0.392-0.478,0.711-1.067,0.711L19.804,0.227c-0.591,0-1.068-0.319-1.068-0.712v-1.291
			c0-0.393,0.477-0.712,1.068-0.712h24.572c0.59,0,1.067,0.319,1.067,0.712V-1.707z"/>
		<path fill="#767675" d="M45.424-1.713c0,0.39-0.473,0.705-1.058,0.705L19.928,0.188c-0.586,0-1.059-0.316-1.059-0.705V-1.78
			c0-0.389,0.473-0.706,1.059-0.706h24.438c0.585,0,1.058,0.316,1.058,0.706V-1.713z"/>
		<path fill="#757574" d="M45.404-1.718c0,0.386-0.469,0.699-1.049,0.699L20.051,0.149c-0.581,0-1.05-0.313-1.05-0.699v-1.234
			c0-0.385,0.469-0.699,1.05-0.699h24.305c0.58,0,1.049,0.314,1.049,0.699V-1.718z"/>
		<path fill="#747473" d="M45.385-1.723c0,0.382-0.465,0.693-1.039,0.693L20.174,0.111c-0.575,0-1.041-0.312-1.041-0.693v-1.205
			c0-0.383,0.465-0.693,1.041-0.693h24.172c0.574,0,1.039,0.311,1.039,0.693V-1.723z"/>
		<path fill="#737372" d="M45.365-1.728c0,0.378-0.46,0.687-1.03,0.687L20.297,0.072c-0.571,0-1.031-0.308-1.031-0.687v-1.177
			c0-0.379,0.46-0.687,1.031-0.687h24.038c0.57,0,1.03,0.308,1.03,0.687V-1.728z"/>
		<path fill="#727271" d="M45.347-1.733c0,0.376-0.457,0.681-1.021,0.681L20.42,0.034c-0.565,0-1.021-0.306-1.021-0.681v-1.148
			c0-0.375,0.457-0.68,1.021-0.68h23.905c0.564,0,1.021,0.305,1.021,0.68V-1.733z"/>
		<path fill="#717170" d="M45.327-1.738c0,0.372-0.452,0.674-1.012,0.674l-23.771,1.06c-0.561,0-1.013-0.303-1.013-0.674v-1.119
			c0-0.373,0.452-0.675,1.013-0.675h23.771c0.56,0,1.012,0.302,1.012,0.675V-1.738z"/>
		<path fill="#70706F" d="M45.308-1.743c0,0.368-0.448,0.668-1.002,0.668L20.667-0.043c-0.556,0-1.003-0.3-1.003-0.668v-1.091
			c0-0.369,0.448-0.668,1.003-0.668h23.638c0.554,0,1.002,0.299,1.002,0.668V-1.743z"/>
		<path fill="#6F6F6E" d="M45.288-1.748c0,0.364-0.444,0.661-0.993,0.661L20.79-0.082c-0.55,0-0.994-0.297-0.994-0.661v-1.062
			c0-0.366,0.444-0.663,0.994-0.663h23.506c0.548,0,0.993,0.297,0.993,0.663V-1.748z"/>
		<path fill="#6E6E6D" d="M45.269-1.754c0,0.361-0.439,0.656-0.983,0.656L20.913-0.12c-0.545,0-0.984-0.294-0.984-0.655v-1.033
			c0-0.362,0.439-0.656,0.984-0.656h23.372c0.544,0,0.983,0.294,0.983,0.656V-1.754z"/>
		<path fill="#6D6D6C" d="M45.249-1.759c0,0.358-0.436,0.649-0.975,0.649L21.036-0.158c-0.54,0-0.975-0.292-0.975-0.65v-1.004
			c0-0.358,0.435-0.649,0.975-0.649h23.238c0.539,0,0.975,0.291,0.975,0.649V-1.759z"/>
		<path fill="#6C6C6B" d="M45.23-1.764c0,0.354-0.433,0.644-0.966,0.644L21.159-0.197c-0.534,0-0.966-0.289-0.966-0.643v-0.976
			c0-0.355,0.432-0.644,0.966-0.644h23.105c0.533,0,0.966,0.289,0.966,0.644V-1.764z"/>
		<path fill="#6B6B6A" d="M45.211-1.769c0,0.351-0.428,0.637-0.956,0.637L21.282-0.235c-0.529,0-0.956-0.286-0.956-0.638v-0.946
			c0-0.352,0.427-0.638,0.956-0.638h22.973c0.528,0,0.956,0.286,0.956,0.638V-1.769z"/>
		<path fill="#6A6A69" d="M45.191-1.774c0,0.348-0.424,0.631-0.947,0.631L21.406-0.274c-0.524,0-0.947-0.283-0.947-0.631v-0.918
			c0-0.348,0.423-0.631,0.947-0.631h22.839c0.523,0,0.947,0.283,0.947,0.631V-1.774z"/>
		<path fill="#696968" d="M45.172-1.779c0,0.344-0.419,0.625-0.938,0.625L21.529-0.312c-0.519,0-0.938-0.28-0.938-0.625v-0.889
			c0-0.345,0.419-0.625,0.938-0.625h22.706c0.519,0,0.938,0.28,0.938,0.625V-1.779z"/>
		<path fill="#686867" d="M45.152-1.784c0,0.341-0.415,0.618-0.928,0.618L21.652-0.352c-0.514,0-0.929-0.277-0.929-0.618v-0.86
			c0-0.341,0.415-0.619,0.929-0.619h22.572c0.513,0,0.928,0.277,0.928,0.619V-1.784z"/>
		<path fill="#676766" d="M45.133-1.789c0,0.337-0.41,0.612-0.918,0.612L21.775-0.39c-0.508,0-0.919-0.274-0.919-0.612v-0.832
			c0-0.338,0.411-0.612,0.919-0.612h22.439c0.508,0,0.918,0.274,0.918,0.612V-1.789z"/>
		<path fill="#666665" d="M45.113-1.794c0,0.333-0.406,0.605-0.909,0.605L21.898-0.428c-0.503,0-0.909-0.272-0.909-0.606v-0.803
			c0-0.335,0.406-0.606,0.909-0.606h22.307c0.502,0,0.909,0.271,0.909,0.606V-1.794z"/>
		<path fill="#656564" d="M45.094-1.8c0,0.33-0.402,0.6-0.899,0.6L22.021-0.467c-0.499,0-0.9-0.27-0.9-0.6v-0.774
			c0-0.331,0.402-0.6,0.9-0.6h22.173c0.497,0,0.899,0.269,0.899,0.6V-1.8z"/>
		<path fill="#646463" d="M45.074-1.805c0,0.327-0.397,0.594-0.89,0.594l-22.04,0.706c-0.493,0-0.891-0.267-0.891-0.594v-0.745
			c0-0.328,0.398-0.595,0.891-0.595h22.04c0.492,0,0.89,0.267,0.89,0.595V-1.805z"/>
		<path fill="#636362" d="M45.055-1.81c0,0.323-0.394,0.587-0.881,0.587l-21.906,0.68c-0.488,0-0.882-0.265-0.882-0.588v-0.717
			c0-0.324,0.394-0.588,0.882-0.588h21.906c0.487,0,0.881,0.264,0.881,0.588V-1.81z"/>
		<path fill="#626261" d="M45.036-1.814c0,0.319-0.39,0.581-0.872,0.581L22.391-0.582c-0.482,0-0.872-0.261-0.872-0.581v-0.688
			c0-0.32,0.39-0.582,0.872-0.582h21.773c0.482,0,0.872,0.261,0.872,0.582V-1.814z"/>
		<path fill="#616160" d="M45.017-1.819c0,0.315-0.386,0.574-0.863,0.574L22.514-0.62c-0.478,0-0.863-0.259-0.863-0.575v-0.66
			c0-0.317,0.385-0.575,0.863-0.575h21.64c0.477,0,0.863,0.258,0.863,0.575V-1.819z"/>
		<path fill="#60605F" d="M44.997-1.825c0,0.313-0.382,0.568-0.854,0.568L22.637-0.659c-0.473,0-0.854-0.256-0.854-0.568v-0.631
			c0-0.314,0.381-0.569,0.854-0.569h21.506c0.472,0,0.854,0.255,0.854,0.569V-1.825z"/>
		<path fill="#5F5F5E" d="M44.978-1.83c0,0.31-0.378,0.562-0.844,0.562l-21.373,0.57c-0.468,0-0.845-0.253-0.845-0.562v-0.603
			c0-0.311,0.376-0.563,0.845-0.563h21.373c0.466,0,0.844,0.252,0.844,0.563V-1.83z"/>
		<path fill="#5E5E5D" d="M44.958-1.835c0,0.306-0.373,0.556-0.834,0.556l-21.24,0.544c-0.462,0-0.835-0.251-0.835-0.557v-0.574
			c0-0.307,0.373-0.556,0.835-0.556h21.24c0.461,0,0.834,0.25,0.834,0.556V-1.835z"/>
		<path fill="#5D5D5C" d="M44.938-1.841c0,0.303-0.369,0.551-0.825,0.551L23.006-0.774c-0.457,0-0.825-0.247-0.825-0.55v-0.545
			c0-0.304,0.368-0.551,0.825-0.551h21.107c0.456,0,0.825,0.247,0.825,0.551V-1.841z"/>
		<path fill="#5C5C5B" d="M44.919-1.846c0,0.299-0.364,0.544-0.815,0.544L23.13-0.812c-0.452,0-0.817-0.245-0.817-0.544v-0.517
			c0-0.3,0.365-0.544,0.817-0.544h20.974c0.451,0,0.815,0.244,0.815,0.544V-1.846z"/>
		<path fill="#5B5B5A" d="M44.899-1.851c0,0.296-0.36,0.537-0.806,0.537L23.253-0.852c-0.447,0-0.807-0.242-0.807-0.537v-0.488
			c0-0.296,0.36-0.538,0.807-0.538h20.841c0.445,0,0.806,0.241,0.806,0.538V-1.851z"/>
		<path fill="#5A5A59" d="M44.88-1.855c0,0.292-0.355,0.53-0.796,0.53L23.376-0.891c-0.441,0-0.797-0.238-0.797-0.53V-1.88
			c0-0.293,0.356-0.532,0.797-0.532h20.708c0.441,0,0.796,0.238,0.796,0.532V-1.855z"/>
		<path fill="#595958" d="M44.86-1.86c0,0.289-0.352,0.524-0.788,0.524L23.5-0.929c-0.437,0-0.789-0.235-0.789-0.524v-0.431
			c0-0.29,0.352-0.525,0.789-0.525h20.573c0.436,0,0.788,0.236,0.788,0.525V-1.86z"/>
		<path fill="#585857" d="M44.841-1.866c0,0.286-0.347,0.519-0.778,0.519l-20.44,0.381c-0.432,0-0.779-0.233-0.779-0.519v-0.402
			c0-0.287,0.348-0.52,0.779-0.52h20.44c0.431,0,0.778,0.233,0.778,0.52V-1.866z"/>
		<path fill="#575756" d="M44.822-1.871c0,0.282-0.344,0.513-0.77,0.513L23.746-1.006c-0.427,0-0.771-0.229-0.771-0.513v-0.373
			c0-0.283,0.344-0.513,0.771-0.513h20.307c0.426,0,0.77,0.23,0.77,0.513V-1.871z"/>
		<path fill="#565655" d="M44.803-1.876c0,0.278-0.34,0.506-0.76,0.506L23.869-1.044c-0.421,0-0.76-0.228-0.76-0.506v-0.345
			c0-0.279,0.339-0.507,0.76-0.507h20.174c0.42,0,0.76,0.228,0.76,0.507V-1.876z"/>
		<path fill="#555554" d="M44.783-1.881c0,0.276-0.335,0.5-0.75,0.5L23.992-1.082c-0.416,0-0.75-0.226-0.75-0.501v-0.315
			c0-0.276,0.335-0.501,0.75-0.501h20.041c0.416,0,0.75,0.225,0.75,0.501V-1.881z"/>
		<path fill="#545453" d="M44.764-1.887c0,0.272-0.331,0.494-0.741,0.494L24.115-1.121c-0.411,0-0.742-0.222-0.742-0.494v-0.287
			c0-0.272,0.332-0.494,0.742-0.494h19.908c0.41,0,0.741,0.222,0.741,0.494V-1.887z"/>
		<path fill="#535352" d="M44.744-1.892c0,0.269-0.326,0.487-0.731,0.487L24.238-1.159c-0.406,0-0.732-0.22-0.732-0.487v-0.259
			c0-0.269,0.327-0.488,0.732-0.488h19.774c0.405,0,0.731,0.219,0.731,0.488V-1.892z"/>
		<path fill="#525251" d="M44.725-1.896c0,0.265-0.322,0.481-0.722,0.481L24.361-1.198c-0.4,0-0.723-0.216-0.723-0.481v-0.229
			c0-0.266,0.323-0.482,0.723-0.482h19.642c0.399,0,0.722,0.216,0.722,0.482V-1.896z"/>
		<path fill="#515150" d="M44.705-1.902c0,0.261-0.318,0.475-0.712,0.475l-19.508,0.19c-0.396,0-0.714-0.214-0.714-0.476v-0.201
			c0-0.262,0.318-0.476,0.714-0.476h19.508c0.394,0,0.712,0.213,0.712,0.476V-1.902z"/>
		<path fill="#50504F" d="M44.686-1.907c0,0.258-0.314,0.469-0.703,0.469L24.608-1.274c-0.391,0-0.705-0.211-0.705-0.47v-0.172
			c0-0.259,0.314-0.469,0.705-0.469h19.375c0.389,0,0.703,0.21,0.703,0.469V-1.907z"/>
		<path fill="#4F4F4E" d="M44.666-1.912c0,0.255-0.31,0.463-0.694,0.463L24.731-1.313c-0.385,0-0.695-0.208-0.695-0.463V-1.92
			c0-0.255,0.31-0.463,0.695-0.463h19.241c0.384,0,0.694,0.208,0.694,0.463V-1.912z"/>
		<path fill="#4E4E4D" d="M44.646-1.917c0,0.251-0.305,0.456-0.685,0.456L24.854-1.352c-0.38,0-0.686-0.206-0.686-0.457v-0.114
			c0-0.252,0.306-0.458,0.686-0.458h19.108c0.379,0,0.685,0.205,0.685,0.458V-1.917z"/>
		<path fill="#4D4D4C" d="M44.627-1.922c0,0.247-0.301,0.45-0.675,0.45L24.977-1.391c-0.375,0-0.676-0.202-0.676-0.45v-0.086
			c0-0.249,0.301-0.451,0.676-0.451h18.975c0.374,0,0.675,0.202,0.675,0.451V-1.922z"/>
		<path fill="#4C4C4B" d="M44.608-1.927c0,0.245-0.298,0.444-0.667,0.444L25.1-1.429c-0.37,0-0.667-0.2-0.667-0.444v-0.058
			c0-0.245,0.297-0.444,0.667-0.444h18.842c0.369,0,0.667,0.2,0.667,0.444V-1.927z"/>
		<path fill="#4B4B4A" d="M44.589-1.932c0,0.241-0.293,0.438-0.657,0.438L25.224-1.467c-0.365,0-0.658-0.197-0.658-0.438v-0.028
			c0-0.242,0.293-0.438,0.658-0.438h18.708c0.363,0,0.657,0.196,0.657,0.438V-1.932z"/>
		<path fill="#262626" d="M44.569-1.938c0,0.237-0.289,0.432-0.647,0.432H25.347c-0.359,0-0.648-0.194-0.648-0.432l0,0
			c0-0.238,0.289-0.432,0.648-0.432h18.575C44.28-2.37,44.569-2.176,44.569-1.938L44.569-1.938z"/>
	</g>
	<g clip-path="url(#SVGID_2_)">
		<path fill="#FFFFFF" d="M32.334-1.007c0,0.863,1.05,1.563,2.345,1.563L77.507,5.5c1.296,0,2.347-0.7,2.347-1.564v-5.222
			c0-0.863-1.051-1.563-2.347-1.563H34.679c-1.295,0-2.345,0.7-2.345,1.563V-1.007z"/>
		<path fill="#FEFEFE" d="M32.354-1.012c0,0.859,1.046,1.558,2.335,1.558l42.695,4.916c1.29,0,2.337-0.697,2.337-1.559V-1.29
			c0-0.859-1.047-1.557-2.337-1.557H34.689c-1.29,0-2.335,0.697-2.335,1.557V-1.012z"/>
		<path fill="#FDFDFD" d="M32.373-1.018c0,0.856,1.042,1.551,2.326,1.551l42.561,4.89c1.286,0,2.328-0.694,2.328-1.552v-5.164
			c0-0.857-1.042-1.552-2.328-1.552H34.699c-1.285,0-2.326,0.695-2.326,1.552V-1.018z"/>
		<path fill="#FCFCFC" d="M32.393-1.022c0,0.854,1.037,1.545,2.316,1.545l42.428,4.862c1.281,0,2.319-0.692,2.319-1.546v-5.136
			c0-0.853-1.038-1.545-2.319-1.545H34.709c-1.279,0-2.316,0.692-2.316,1.545V-1.022z"/>
		<path fill="#FBFBFB" d="M32.412-1.027c0,0.85,1.033,1.539,2.307,1.539l42.295,4.835c1.275,0,2.31-0.689,2.31-1.54v-5.107
			c0-0.849-1.034-1.538-2.31-1.538H34.719c-1.274,0-2.307,0.689-2.307,1.538V-1.027z"/>
		<path fill="#FAFAFA" d="M32.431-1.032c0,0.846,1.029,1.532,2.298,1.532l42.162,4.808c1.27,0,2.3-0.687,2.3-1.533v-5.078
			c0-0.847-1.03-1.532-2.3-1.532H34.729c-1.27,0-2.298,0.686-2.298,1.532V-1.032z"/>
		<path fill="#F9F9F9" d="M32.45-1.038c0,0.843,1.025,1.526,2.289,1.526l42.028,4.78c1.265,0,2.29-0.684,2.29-1.527v-5.049
			c0-0.843-1.025-1.526-2.29-1.526H34.739c-1.264,0-2.289,0.684-2.289,1.526V-1.038z"/>
		<path fill="#F8F8F8" d="M32.47-1.043c0,0.84,1.021,1.521,2.279,1.521L76.645,5.23c1.26,0,2.281-0.681,2.281-1.521v-5.021
			c0-0.839-1.021-1.52-2.281-1.52H34.75c-1.259,0-2.279,0.681-2.279,1.52V-1.043z"/>
		<path fill="#F7F7F7" d="M32.49-1.048c0,0.836,1.017,1.515,2.27,1.515l41.762,4.726c1.255,0,2.272-0.678,2.272-1.515v-4.992
			c0-0.836-1.018-1.514-2.272-1.514H34.76c-1.253,0-2.27,0.678-2.27,1.514V-1.048z"/>
		<path fill="#F6F6F6" d="M32.509-1.053c0,0.832,1.012,1.508,2.26,1.508l41.629,4.698c1.249,0,2.263-0.675,2.263-1.508v-4.964
			c0-0.833-1.014-1.508-2.263-1.508H34.77c-1.249,0-2.26,0.675-2.26,1.508V-1.053z"/>
		<path fill="#F5F5F5" d="M32.528-1.058c0,0.828,1.008,1.501,2.251,1.501l41.496,4.671c1.244,0,2.253-0.672,2.253-1.502v-4.935
			c0-0.829-1.009-1.501-2.253-1.501H34.779c-1.243,0-2.251,0.672-2.251,1.501V-1.058z"/>
		<path fill="#F4F4F4" d="M32.548-1.062c0,0.825,1.004,1.494,2.242,1.494l41.363,4.645c1.239,0,2.244-0.669,2.244-1.496v-4.906
			c0-0.825-1.005-1.494-2.244-1.494H34.79c-1.238,0-2.242,0.669-2.242,1.494V-1.062z"/>
		<path fill="#F3F3F3" d="M32.567-1.068c0,0.822,1,1.489,2.232,1.489l41.229,4.617c1.234,0,2.234-0.667,2.234-1.489v-4.878
			c0-0.822-1-1.488-2.234-1.488H34.8c-1.233,0-2.232,0.667-2.232,1.488V-1.068z"/>
		<path fill="#F2F2F2" d="M32.586-1.073c0,0.818,0.996,1.482,2.223,1.482l41.096,4.59c1.229,0,2.226-0.663,2.226-1.483v-4.849
			c0-0.818-0.996-1.482-2.226-1.482H34.81c-1.228,0-2.223,0.664-2.223,1.482V-1.073z"/>
		<path fill="#F1F1F1" d="M32.606-1.079c0,0.815,0.991,1.477,2.214,1.477l40.962,4.563c1.224,0,2.217-0.661,2.217-1.478v-4.82
			c0-0.815-0.993-1.476-2.217-1.476H34.82c-1.223,0-2.214,0.661-2.214,1.476V-1.079z"/>
		<path fill="#F0F0F0" d="M32.625-1.084c0,0.812,0.987,1.471,2.206,1.471l40.829,4.536c1.219,0,2.207-0.659,2.207-1.472V-1.34
			c0-0.812-0.988-1.47-2.207-1.47H34.831c-1.218,0-2.206,0.658-2.206,1.47V-1.084z"/>
		<path fill="#EFEFEF" d="M32.645-1.088c0,0.808,0.983,1.463,2.196,1.463l40.696,4.51c1.213,0,2.197-0.656,2.197-1.465v-4.763
			c0-0.809-0.984-1.465-2.197-1.465H34.841c-1.213,0-2.196,0.656-2.196,1.465V-1.088z"/>
		<path fill="#EEEEEE" d="M32.664-1.094c0,0.805,0.979,1.458,2.187,1.458l40.562,4.481c1.209,0,2.188-0.653,2.188-1.459v-4.733
			c0-0.805-0.979-1.458-2.188-1.458H34.851c-1.208,0-2.187,0.653-2.187,1.458V-1.094z"/>
		<path fill="#EDEDED" d="M32.684-1.1c0,0.802,0.974,1.452,2.177,1.452l40.43,4.454c1.203,0,2.179-0.649,2.179-1.452v-4.705
			c0-0.802-0.976-1.452-2.179-1.452H34.86c-1.203,0-2.177,0.65-2.177,1.452V-1.1z"/>
		<path fill="#ECECEC" d="M32.703-1.104c0,0.799,0.97,1.446,2.167,1.446l40.296,4.427c1.198,0,2.169-0.647,2.169-1.446v-4.677
			c0-0.798-0.971-1.445-2.169-1.445H34.871c-1.197,0-2.167,0.647-2.167,1.445V-1.104z"/>
		<path fill="#EBEBEB" d="M32.723-1.109c0,0.795,0.967,1.439,2.158,1.439l40.163,4.4c1.193,0,2.16-0.645,2.16-1.44v-4.647
			c0-0.795-0.967-1.439-2.16-1.439H34.881c-1.191,0-2.158,0.645-2.158,1.439V-1.109z"/>
		<path fill="#EAEAEA" d="M32.742-1.114c0,0.791,0.962,1.433,2.149,1.433l40.03,4.373c1.188,0,2.15-0.642,2.15-1.434v-4.619
			c0-0.792-0.963-1.433-2.15-1.433h-40.03c-1.187,0-2.149,0.641-2.149,1.433V-1.114z"/>
		<path fill="#E9E9E9" d="M32.761-1.119c0,0.787,0.958,1.427,2.139,1.427l39.896,4.346c1.183,0,2.142-0.64,2.142-1.428v-4.591
			c0-0.788-0.959-1.427-2.142-1.427H34.9c-1.182,0-2.139,0.639-2.139,1.427V-1.119z"/>
		<path fill="#E8E8E8" d="M32.781-1.124c0,0.783,0.954,1.42,2.13,1.42l39.763,4.319c1.178,0,2.133-0.637,2.133-1.422v-4.562
			c0-0.784-0.955-1.421-2.133-1.421H34.911c-1.177,0-2.13,0.637-2.13,1.421V-1.124z"/>
		<path fill="#E7E7E7" d="M32.801-1.129c0,0.78,0.949,1.414,2.121,1.414l39.629,4.291c1.173,0,2.123-0.633,2.123-1.415v-4.533
			c0-0.78-0.95-1.414-2.123-1.414H34.922c-1.172,0-2.121,0.634-2.121,1.414V-1.129z"/>
		<path fill="#E6E6E6" d="M32.819-1.135c0,0.777,0.946,1.408,2.112,1.408l39.496,4.265c1.168,0,2.113-0.631,2.113-1.409v-4.504
			c0-0.778-0.945-1.408-2.113-1.408H34.932c-1.167,0-2.112,0.63-2.112,1.408V-1.135z"/>
		<path fill="#E5E5E5" d="M32.839-1.141c0,0.774,0.941,1.402,2.103,1.402l39.363,4.237c1.162,0,2.104-0.628,2.104-1.403v-4.475
			c0-0.774-0.941-1.402-2.104-1.402H34.941c-1.161,0-2.103,0.628-2.103,1.402V-1.141z"/>
		<path fill="#E4E4E4" d="M32.858-1.146c0,0.771,0.937,1.396,2.093,1.396l39.23,4.211c1.157,0,2.095-0.625,2.095-1.396v-4.447
			c0-0.771-0.938-1.396-2.095-1.396h-39.23c-1.156,0-2.093,0.625-2.093,1.396V-1.146z"/>
		<path fill="#E3E3E3" d="M32.878-1.149c0,0.767,0.933,1.389,2.083,1.389l39.097,4.183c1.151,0,2.085-0.622,2.085-1.39v-4.418
			c0-0.768-0.934-1.39-2.085-1.39H34.962c-1.151,0-2.083,0.622-2.083,1.39V-1.149z"/>
		<path fill="#E2E2E2" d="M32.897-1.155c0,0.764,0.929,1.384,2.074,1.384l38.964,4.155c1.146,0,2.076-0.62,2.076-1.384v-4.39
			c0-0.764-0.93-1.384-2.076-1.384H34.972c-1.146,0-2.074,0.62-2.074,1.384V-1.155z"/>
		<path fill="#E1E1E1" d="M32.917-1.16c0,0.76,0.924,1.377,2.065,1.377l38.83,4.128c1.142,0,2.067-0.616,2.067-1.378v-4.36
			c0-0.76-0.926-1.377-2.067-1.377h-38.83c-1.141,0-2.065,0.617-2.065,1.377V-1.16z"/>
		<path fill="#E0E0E0" d="M32.936-1.165c0,0.757,0.92,1.37,2.056,1.37l38.697,4.102c1.137,0,2.058-0.613,2.058-1.371v-4.332
			c0-0.757-0.921-1.371-2.058-1.371H34.992c-1.135,0-2.056,0.614-2.056,1.371V-1.165z"/>
		<path fill="#DFDFDF" d="M32.956-1.17c0,0.753,0.916,1.364,2.046,1.364l38.564,4.074c1.131,0,2.048-0.611,2.048-1.365V-1.4
			c0-0.753-0.917-1.364-2.048-1.364H35.002c-1.13,0-2.046,0.611-2.046,1.364V-1.17z"/>
		<path fill="#DEDEDE" d="M32.975-1.176c0,0.75,0.912,1.358,2.037,1.358l38.431,4.047c1.125,0,2.038-0.608,2.038-1.358v-4.275
			c0-0.75-0.913-1.358-2.038-1.358H35.012c-1.125,0-2.037,0.608-2.037,1.358V-1.176z"/>
		<path fill="#DDDDDD" d="M32.994-1.181c0,0.746,0.908,1.352,2.028,1.352l38.297,4.021c1.121,0,2.029-0.606,2.029-1.354v-4.246
			c0-0.746-0.908-1.352-2.029-1.352H35.022c-1.12,0-2.028,0.605-2.028,1.352V-1.181z"/>
		<path fill="#DCDCDC" d="M33.014-1.186c0,0.743,0.904,1.346,2.019,1.346l38.164,3.992c1.116,0,2.021-0.603,2.021-1.347v-4.217
			c0-0.743-0.904-1.346-2.021-1.346H35.032c-1.115,0-2.019,0.603-2.019,1.346V-1.186z"/>
		<path fill="#DBDBDB" d="M33.034-1.19c0,0.739,0.899,1.34,2.009,1.34l38.03,3.965c1.11,0,2.011-0.6,2.011-1.34v-4.189
			c0-0.739-0.9-1.34-2.011-1.34h-38.03c-1.11,0-2.009,0.601-2.009,1.34V-1.19z"/>
		<path fill="#DADADA" d="M33.053-1.196c0,0.736,0.895,1.334,2,1.334L72.95,4.076c1.105,0,2.001-0.598,2.001-1.335v-4.16
			c0-0.736-0.896-1.333-2.001-1.333H35.053c-1.105,0-2,0.597-2,1.333V-1.196z"/>
		<path fill="#D9D9D9" d="M33.072-1.201c0,0.732,0.891,1.327,1.99,1.327l37.765,3.911c1.1,0,1.991-0.595,1.991-1.328v-4.131
			c0-0.733-0.892-1.328-1.991-1.328H35.062c-1.1,0-1.99,0.595-1.99,1.328V-1.201z"/>
		<path fill="#D8D8D8" d="M33.092-1.206c0,0.729,0.887,1.32,1.981,1.32l37.631,3.885c1.095,0,1.982-0.592,1.982-1.322v-4.103
			c0-0.729-0.888-1.321-1.982-1.321H35.073c-1.094,0-1.981,0.592-1.981,1.321V-1.206z"/>
		<path fill="#D7D7D7" d="M33.111-1.211c0,0.726,0.883,1.314,1.972,1.314l37.498,3.857c1.09,0,1.974-0.59,1.974-1.316V-1.43
			c0-0.725-0.884-1.314-1.974-1.314H35.083c-1.089,0-1.972,0.589-1.972,1.314V-1.211z"/>
		<path fill="#D6D6D6" d="M33.13-1.217c0,0.723,0.878,1.309,1.963,1.309l37.364,3.83c1.085,0,1.965-0.586,1.965-1.31v-4.045
			c0-0.723-0.88-1.309-1.965-1.309H35.093c-1.084,0-1.963,0.586-1.963,1.309V-1.217z"/>
		<path fill="#D5D5D5" d="M33.15-1.222c0,0.719,0.875,1.302,1.953,1.302l37.231,3.803c1.08,0,1.955-0.583,1.955-1.303v-4.017
			c0-0.719-0.875-1.303-1.955-1.303H35.103c-1.079,0-1.953,0.583-1.953,1.303V-1.222z"/>
		<path fill="#D4D4D4" d="M33.169-1.227c0,0.715,0.87,1.296,1.944,1.296l37.098,3.775c1.074,0,1.945-0.581,1.945-1.297V-1.44
			c0-0.715-0.871-1.296-1.945-1.296H35.113c-1.074,0-1.944,0.581-1.944,1.296V-1.227z"/>
		<path fill="#D3D3D3" d="M33.189-1.231c0,0.712,0.866,1.29,1.934,1.29l36.965,3.748c1.069,0,1.936-0.578,1.936-1.291v-3.959
			c0-0.712-0.866-1.29-1.936-1.29H35.124c-1.068,0-1.934,0.578-1.934,1.29V-1.231z"/>
		<path fill="#D2D2D2" d="M33.208-1.237c0,0.709,0.862,1.284,1.925,1.284l36.832,3.721c1.064,0,1.927-0.575,1.927-1.284v-3.931
			c0-0.708-0.862-1.283-1.927-1.283H35.133c-1.063,0-1.925,0.575-1.925,1.283V-1.237z"/>
		<path fill="#D1D1D1" d="M33.228-1.242c0,0.705,0.857,1.277,1.916,1.277l36.699,3.693c1.059,0,1.917-0.572,1.917-1.277v-3.902
			c0-0.705-0.858-1.277-1.917-1.277H35.143c-1.058,0-1.916,0.572-1.916,1.277V-1.242z"/>
		<path fill="#D0D0D0" d="M33.247-1.247c0,0.701,0.854,1.271,1.906,1.271L71.719,3.69c1.054,0,1.908-0.569,1.908-1.271v-3.874
			c0-0.701-0.854-1.271-1.908-1.271H35.153c-1.053,0-1.906,0.569-1.906,1.271V-1.247z"/>
		<path fill="#CFCFCF" d="M33.267-1.252c0,0.698,0.85,1.265,1.897,1.265l36.432,3.64c1.049,0,1.898-0.566,1.898-1.266v-3.844
			c0-0.699-0.85-1.266-1.898-1.266H35.164c-1.048,0-1.897,0.566-1.897,1.266V-1.252z"/>
		<path fill="#CECECE" d="M33.286-1.258c0,0.695,0.845,1.26,1.888,1.26l36.298,3.611c1.044,0,1.89-0.563,1.89-1.259v-3.815
			c0-0.695-0.846-1.26-1.89-1.26H35.174c-1.043,0-1.888,0.564-1.888,1.26V-1.258z"/>
		<path fill="#CDCDCD" d="M33.306-1.263c0,0.691,0.84,1.253,1.878,1.253L71.35,3.575c1.037,0,1.879-0.562,1.879-1.254v-3.787
			c0-0.691-0.842-1.252-1.879-1.252H35.184c-1.038,0-1.878,0.561-1.878,1.252V-1.263z"/>
		<path fill="#CCCCCC" d="M33.325-1.268c0,0.688,0.837,1.246,1.87,1.246l36.032,3.559c1.033,0,1.87-0.559,1.87-1.247v-3.759
			c0-0.688-0.837-1.246-1.87-1.246H35.194c-1.033,0-1.87,0.558-1.87,1.246V-1.268z"/>
		<path fill="#CBCBCB" d="M33.345-1.272c0,0.685,0.832,1.24,1.859,1.24l35.899,3.53c1.028,0,1.861-0.555,1.861-1.24v-3.729
			c0-0.685-0.833-1.24-1.861-1.24H35.204c-1.027,0-1.859,0.555-1.859,1.24V-1.272z"/>
		<path fill="#CACACA" d="M33.363-1.277c0,0.681,0.829,1.233,1.851,1.233L70.979,3.46c1.023,0,1.853-0.553,1.853-1.235v-3.701
			c0-0.681-0.829-1.233-1.853-1.233H35.214c-1.022,0-1.851,0.553-1.851,1.233V-1.277z"/>
		<path fill="#C9C9C9" d="M33.383-1.283c0,0.678,0.824,1.228,1.841,1.228l35.631,3.477c1.019,0,1.844-0.55,1.844-1.228v-3.673
			c0-0.678-0.825-1.228-1.844-1.228H35.224c-1.017,0-1.841,0.55-1.841,1.228V-1.283z"/>
		<path fill="#C8C8C8" d="M33.402-1.288c0,0.675,0.82,1.222,1.832,1.222l35.499,3.449c1.013,0,1.833-0.547,1.833-1.223v-3.643
			c0-0.675-0.82-1.222-1.833-1.222H35.234c-1.012,0-1.832,0.547-1.832,1.222V-1.288z"/>
		<path fill="#C7C7C7" d="M33.422-1.293c0,0.671,0.815,1.215,1.822,1.215L70.61,3.345c1.008,0,1.824-0.545,1.824-1.216v-3.615
			c0-0.671-0.816-1.216-1.824-1.216H35.245c-1.007,0-1.822,0.545-1.822,1.216V-1.293z"/>
		<path fill="#C6C6C6" d="M33.441-1.299c0,0.668,0.812,1.21,1.813,1.21l35.233,3.395c1.003,0,1.814-0.542,1.814-1.21V-1.49
			c0-0.667-0.812-1.209-1.814-1.209H35.254c-1.001,0-1.813,0.542-1.813,1.209V-1.299z"/>
		<path fill="#C5C5C5" d="M33.461-1.304c0,0.664,0.808,1.202,1.803,1.202l35.099,3.369c0.998,0,1.806-0.539,1.806-1.204v-3.558
			c0-0.664-0.808-1.203-1.806-1.203H35.264c-0.996,0-1.803,0.539-1.803,1.203V-1.304z"/>
		<path fill="#C4C4C4" d="M33.48-1.309c0,0.66,0.803,1.197,1.795,1.197l34.965,3.34c0.993,0,1.797-0.535,1.797-1.197v-3.528
			c0-0.661-0.804-1.197-1.797-1.197H35.275c-0.992,0-1.795,0.536-1.795,1.197V-1.309z"/>
		<path fill="#C3C3C3" d="M33.5-1.313c0,0.657,0.799,1.19,1.785,1.19L70.117,3.19c0.987,0,1.787-0.533,1.787-1.19v-3.501
			c0-0.657-0.8-1.19-1.787-1.19H35.285c-0.986,0-1.785,0.533-1.785,1.19V-1.313z"/>
		<path fill="#C2C2C2" d="M33.519-1.318c0,0.652,0.795,1.184,1.776,1.184l34.699,3.287c0.982,0,1.777-0.531,1.777-1.186v-3.471
			c0-0.654-0.795-1.185-1.777-1.185H35.295c-0.98,0-1.776,0.53-1.776,1.185V-1.318z"/>
		<path fill="#C1C1C1" d="M33.539-1.324c0,0.65,0.791,1.178,1.766,1.178l34.566,3.26c0.977,0,1.768-0.528,1.768-1.179v-3.442
			c0-0.651-0.791-1.179-1.768-1.179H35.305c-0.976,0-1.766,0.527-1.766,1.179V-1.324z"/>
		<path fill="#C0C0C0" d="M33.558-1.329c0,0.646,0.787,1.172,1.758,1.172l34.433,3.231c0.972,0,1.759-0.524,1.759-1.172v-3.414
			c0-0.647-0.787-1.172-1.759-1.172H35.315c-0.971,0-1.758,0.525-1.758,1.172V-1.329z"/>
		<path fill="#BFBFBF" d="M33.578-1.334c0,0.644,0.782,1.166,1.747,1.166l34.3,3.204c0.967,0,1.75-0.521,1.75-1.166v-3.385
			c0-0.644-0.783-1.166-1.75-1.166h-34.3c-0.965,0-1.747,0.522-1.747,1.166V-1.334z"/>
		<path fill="#BEBEBE" d="M33.597-1.339c0,0.64,0.778,1.159,1.739,1.159l34.167,3.178c0.961,0,1.74-0.52,1.74-1.16v-3.356
			c0-0.641-0.779-1.159-1.74-1.159H35.335c-0.96,0-1.739,0.519-1.739,1.159V-1.339z"/>
		<path fill="#BDBDBD" d="M33.616-1.345c0,0.637,0.773,1.153,1.729,1.153l34.033,3.15c0.957,0,1.731-0.517,1.731-1.153v-3.328
			c0-0.637-0.774-1.153-1.731-1.153H35.345c-0.956,0-1.729,0.517-1.729,1.153V-1.345z"/>
		<path fill="#BCBCBC" d="M33.636-1.35c0,0.633,0.77,1.146,1.72,1.146l33.9,3.124c0.951,0,1.721-0.515,1.721-1.147v-3.299
			c0-0.634-0.77-1.147-1.721-1.147h-33.9c-0.95,0-1.72,0.514-1.72,1.147V-1.35z"/>
		<path fill="#BBBBBB" d="M33.655-1.354c0,0.63,0.766,1.141,1.711,1.141l33.767,3.097c0.945,0,1.712-0.512,1.712-1.142v-3.271
			c0-0.63-0.767-1.141-1.712-1.141H35.366c-0.945,0-1.711,0.511-1.711,1.141V-1.354z"/>
		<path fill="#BABABA" d="M33.675-1.359c0,0.626,0.761,1.134,1.701,1.134L69.01,2.844c0.94,0,1.702-0.508,1.702-1.135v-3.242
			c0-0.626-0.762-1.135-1.702-1.135H35.376c-0.94,0-1.701,0.509-1.701,1.135V-1.359z"/>
		<path fill="#B9B9B9" d="M33.694-1.365c0,0.623,0.757,1.129,1.692,1.129l33.5,3.041c0.936,0,1.693-0.505,1.693-1.129v-3.213
			c0-0.623-0.758-1.128-1.693-1.128h-33.5c-0.935,0-1.692,0.505-1.692,1.128V-1.365z"/>
		<path fill="#B8B8B8" d="M33.713-1.37c0,0.619,0.753,1.122,1.683,1.122l33.366,3.015c0.931,0,1.685-0.503,1.685-1.122V-1.54
			c0-0.619-0.754-1.122-1.685-1.122H35.396c-0.93,0-1.683,0.503-1.683,1.122V-1.37z"/>
		<path fill="#B7B7B7" d="M33.733-1.375c0,0.615,0.749,1.116,1.673,1.116L68.64,2.729c0.926,0,1.675-0.5,1.675-1.116v-3.156
			c0-0.615-0.749-1.115-1.675-1.115H35.406c-0.924,0-1.673,0.5-1.673,1.115V-1.375z"/>
		<path fill="#B6B6B6" d="M33.752-1.38c0,0.612,0.745,1.109,1.664,1.109l33.101,2.96c0.92,0,1.665-0.497,1.665-1.109v-3.128
			c0-0.612-0.745-1.109-1.665-1.109H35.416c-0.919,0-1.664,0.497-1.664,1.109V-1.38z"/>
		<path fill="#B5B5B5" d="M33.771-1.386c0,0.608,0.74,1.104,1.654,1.104l32.968,2.934c0.915,0,1.655-0.495,1.655-1.104v-3.099
			c0-0.609-0.74-1.104-1.655-1.104H35.426c-0.914,0-1.654,0.494-1.654,1.104V-1.386z"/>
		<path fill="#B4B4B4" d="M33.791-1.391c0,0.605,0.736,1.098,1.646,1.098l32.834,2.906c0.909,0,1.646-0.492,1.646-1.098v-3.07
			c0-0.605-0.737-1.097-1.646-1.097H35.437c-0.909,0-1.646,0.491-1.646,1.097V-1.391z"/>
		<path fill="#B3B3B3" d="M33.811-1.395c0,0.602,0.732,1.09,1.635,1.09l32.701,2.879c0.905,0,1.638-0.488,1.638-1.091v-3.042
			c0-0.602-0.732-1.091-1.638-1.091H35.446c-0.903,0-1.635,0.489-1.635,1.091V-1.395z"/>
		<path fill="#B2B2B2" d="M33.83-1.4c0,0.599,0.729,1.084,1.627,1.084l32.566,2.853c0.9,0,1.629-0.486,1.629-1.085v-3.013
			c0-0.599-0.729-1.085-1.629-1.085H35.457c-0.898,0-1.627,0.486-1.627,1.085V-1.4z"/>
		<path fill="#B1B1B1" d="M33.85-1.406c0,0.596,0.724,1.079,1.617,1.079L67.9,2.497c0.895,0,1.619-0.483,1.619-1.079v-2.983
			c0-0.596-0.725-1.079-1.619-1.079H35.467c-0.894,0-1.617,0.483-1.617,1.079V-1.406z"/>
		<path fill="#B0B0B0" d="M33.869-1.411c0,0.592,0.72,1.072,1.608,1.072l32.3,2.798c0.89,0,1.609-0.48,1.609-1.073v-2.955
			c0-0.591-0.72-1.072-1.609-1.072h-32.3c-0.888,0-1.608,0.481-1.608,1.072V-1.411z"/>
		<path fill="#AFAFAF" d="M33.889-1.416c0,0.588,0.716,1.066,1.599,1.066l32.167,2.771c0.885,0,1.601-0.478,1.601-1.066v-2.927
			c0-0.588-0.716-1.066-1.601-1.066H35.487c-0.883,0-1.599,0.478-1.599,1.066V-1.416z"/>
		<path fill="#AFAEAE" d="M33.908-1.421c0,0.584,0.711,1.06,1.589,1.06l32.034,2.744c0.879,0,1.591-0.476,1.591-1.062v-2.897
			c0-0.585-0.712-1.06-1.591-1.06H35.497c-0.878,0-1.589,0.475-1.589,1.06V-1.421z"/>
		<path fill="#AEADAD" d="M33.927-1.426c0,0.58,0.707,1.053,1.58,1.053l31.901,2.716c0.873,0,1.581-0.472,1.581-1.054V-1.58
			c0-0.581-0.708-1.054-1.581-1.054H35.507c-0.873,0-1.58,0.473-1.58,1.054V-1.426z"/>
		<path fill="#ADACAC" d="M33.946-1.432c0,0.578,0.703,1.047,1.571,1.047l31.768,2.689c0.869,0,1.572-0.47,1.572-1.047v-2.841
			c0-0.578-0.703-1.048-1.572-1.048H35.518c-0.868,0-1.571,0.47-1.571,1.048V-1.432z"/>
		<path fill="#ACABAB" d="M33.967-1.436c0,0.574,0.698,1.041,1.561,1.041l31.635,2.661c0.863,0,1.562-0.467,1.562-1.042v-2.811
			c0-0.575-0.699-1.042-1.562-1.042H35.527c-0.862,0-1.561,0.467-1.561,1.042V-1.436z"/>
		<path fill="#ABAAAA" d="M33.985-1.441c0,0.57,0.694,1.035,1.552,1.035l31.502,2.634c0.857,0,1.553-0.464,1.553-1.034V-1.59
			c0-0.572-0.695-1.035-1.553-1.035H35.537c-0.857,0-1.552,0.463-1.552,1.035V-1.441z"/>
		<path fill="#AAA9A9" d="M34.005-1.447c0,0.568,0.69,1.029,1.543,1.029l31.367,2.607c0.854,0,1.544-0.461,1.544-1.029v-2.755
			c0-0.567-0.69-1.028-1.544-1.028H35.548c-0.853,0-1.543,0.461-1.543,1.028V-1.447z"/>
		<path fill="#A9A8A8" d="M34.024-1.452c0,0.564,0.686,1.022,1.533,1.022l31.234,2.58c0.849,0,1.535-0.457,1.535-1.022v-2.726
			c0-0.564-0.687-1.022-1.535-1.022H35.558c-0.847,0-1.533,0.458-1.533,1.022V-1.452z"/>
		<path fill="#A8A7A7" d="M34.044-1.456c0,0.561,0.682,1.016,1.524,1.016l31.101,2.554c0.844,0,1.526-0.456,1.526-1.018v-2.696
			c0-0.562-0.683-1.017-1.526-1.017H35.568c-0.842,0-1.524,0.455-1.524,1.017V-1.456z"/>
		<path fill="#A7A6A6" d="M34.063-1.462c0,0.558,0.678,1.01,1.515,1.01l30.968,2.526c0.839,0,1.517-0.453,1.517-1.011v-2.668
			c0-0.558-0.678-1.011-1.517-1.011H35.578c-0.837,0-1.515,0.453-1.515,1.011V-1.462z"/>
		<path fill="#A6A5A5" d="M34.083-1.467c0,0.554,0.673,1.003,1.505,1.003l30.835,2.499c0.833,0,1.507-0.45,1.507-1.004v-2.64
			c0-0.554-0.674-1.004-1.507-1.004H35.588c-0.832,0-1.505,0.45-1.505,1.004V-1.467z"/>
		<path fill="#A5A4A4" d="M34.102-1.473c0,0.551,0.669,0.998,1.496,0.998L66.3,1.997c0.827,0,1.497-0.447,1.497-0.998v-2.61
			c0-0.551-0.67-0.998-1.497-0.998H35.598c-0.827,0-1.496,0.447-1.496,0.998V-1.473z"/>
		<path fill="#A4A3A3" d="M34.121-1.478c0,0.547,0.666,0.991,1.487,0.991l30.568,2.445c0.822,0,1.488-0.445,1.488-0.992v-2.582
			c0-0.547-0.666-0.992-1.488-0.992H35.608c-0.821,0-1.487,0.444-1.487,0.992V-1.478z"/>
		<path fill="#A3A2A2" d="M34.141-1.482c0,0.543,0.661,0.984,1.477,0.984L66.053,1.92c0.818,0,1.479-0.441,1.479-0.985v-2.554
			c0-0.544-0.661-0.985-1.479-0.985H35.618c-0.816,0-1.477,0.441-1.477,0.985V-1.482z"/>
		<path fill="#A2A1A1" d="M34.16-1.487c0,0.54,0.657,0.979,1.469,0.979l30.302,2.391c0.812,0,1.47-0.439,1.47-0.979v-2.525
			c0-0.54-0.658-0.979-1.47-0.979H35.629c-0.812,0-1.469,0.438-1.469,0.979V-1.487z"/>
		<path fill="#A1A0A0" d="M34.18-1.493c0,0.537,0.653,0.974,1.459,0.974l30.168,2.362c0.808,0,1.461-0.436,1.461-0.974v-2.496
			c0-0.536-0.653-0.973-1.461-0.973H35.639c-0.806,0-1.459,0.437-1.459,0.973V-1.493z"/>
		<path fill="#A09F9F" d="M34.199-1.498c0,0.533,0.648,0.967,1.449,0.967l30.035,2.336c0.803,0,1.451-0.434,1.451-0.967V-1.63
			c0-0.534-0.648-0.967-1.451-0.967H35.648c-0.801,0-1.449,0.433-1.449,0.967V-1.498z"/>
		<path fill="#9F9E9E" d="M34.219-1.503c0,0.529,0.644,0.96,1.439,0.96l29.902,2.309c0.797,0,1.441-0.43,1.441-0.96v-2.438
			c0-0.531-0.645-0.961-1.441-0.961H35.658c-0.795,0-1.439,0.43-1.439,0.961V-1.503z"/>
		<path fill="#9E9D9D" d="M34.238-1.508c0,0.525,0.64,0.954,1.431,0.954l29.769,2.281c0.792,0,1.432-0.428,1.432-0.954v-2.41
			c0-0.527-0.64-0.954-1.432-0.954H35.669c-0.791,0-1.431,0.427-1.431,0.954V-1.508z"/>
		<path fill="#9D9C9C" d="M34.257-1.513c0,0.522,0.636,0.947,1.422,0.947l29.635,2.255c0.786,0,1.423-0.426,1.423-0.948v-2.382
			c0-0.523-0.637-0.948-1.423-0.948H35.679c-0.786,0-1.422,0.425-1.422,0.948V-1.513z"/>
		<path fill="#9C9B9B" d="M34.277-1.519c0,0.52,0.631,0.942,1.412,0.942L65.191,1.65c0.781,0,1.414-0.422,1.414-0.941v-2.354
			c0-0.52-0.633-0.941-1.414-0.941H35.689c-0.78,0-1.412,0.422-1.412,0.941V-1.519z"/>
		<path fill="#9B9A9A" d="M34.296-1.523c0,0.516,0.627,0.936,1.403,0.936l29.369,2.2c0.776,0,1.404-0.42,1.404-0.936v-2.324
			c0-0.517-0.628-0.936-1.404-0.936H35.699c-0.775,0-1.403,0.419-1.403,0.936V-1.523z"/>
		<path fill="#9A9999" d="M34.315-1.528c0,0.513,0.624,0.929,1.394,0.929l29.236,2.173c0.771,0,1.395-0.417,1.395-0.929v-2.296
			c0-0.513-0.624-0.929-1.395-0.929H35.709c-0.77,0-1.394,0.416-1.394,0.929V-1.528z"/>
		<path fill="#999898" d="M34.335-1.533c0,0.509,0.619,0.923,1.384,0.923l29.103,2.146c0.766,0,1.385-0.414,1.385-0.924v-2.267
			c0-0.509-0.619-0.923-1.385-0.923H35.72c-0.765,0-1.384,0.414-1.384,0.923V-1.533z"/>
		<path fill="#989797" d="M34.354-1.539c0,0.506,0.615,0.917,1.375,0.917l28.97,2.119c0.76,0,1.376-0.412,1.376-0.917v-2.238
			c0-0.506-0.616-0.917-1.376-0.917h-28.97c-0.76,0-1.375,0.411-1.375,0.917V-1.539z"/>
		<path fill="#979696" d="M34.374-1.544c0,0.502,0.611,0.911,1.365,0.911l28.837,2.091c0.755,0,1.366-0.408,1.366-0.911v-2.209
			c0-0.502-0.611-0.911-1.366-0.911H35.739c-0.754,0-1.365,0.409-1.365,0.911V-1.544z"/>
		<path fill="#969595" d="M34.394-1.549c0,0.498,0.606,0.904,1.356,0.904L64.452,1.42c0.751,0,1.358-0.406,1.358-0.905v-2.181
			c0-0.499-0.607-0.904-1.358-0.904H35.75c-0.75,0-1.356,0.405-1.356,0.904V-1.549z"/>
		<path fill="#959494" d="M34.413-1.554c0,0.495,0.603,0.897,1.347,0.897l28.569,2.037c0.745,0,1.349-0.402,1.349-0.898v-2.151
			c0-0.496-0.604-0.898-1.349-0.898H35.76c-0.744,0-1.347,0.402-1.347,0.898V-1.554z"/>
		<path fill="#949393" d="M34.433-1.559c0,0.491,0.598,0.892,1.337,0.892l28.436,2.01c0.74,0,1.339-0.399,1.339-0.893v-2.123
			c0-0.492-0.599-0.892-1.339-0.892H35.77c-0.74,0-1.337,0.399-1.337,0.892V-1.559z"/>
		<path fill="#939292" d="M34.452-1.564c0,0.488,0.594,0.886,1.328,0.886l28.303,1.983c0.735,0,1.329-0.397,1.329-0.887v-2.094
			c0-0.489-0.594-0.887-1.329-0.887H35.78c-0.734,0-1.328,0.397-1.328,0.887V-1.564z"/>
		<path fill="#929191" d="M34.472-1.569c0,0.485,0.589,0.88,1.318,0.88l28.17,1.955c0.729,0,1.32-0.395,1.32-0.88V-1.68
			c0-0.485-0.591-0.88-1.32-0.88H35.79c-0.729,0-1.318,0.395-1.318,0.88V-1.569z"/>
		<path fill="#919090" d="M34.491-1.574c0,0.481,0.585,0.873,1.31,0.873l28.037,1.928c0.725,0,1.311-0.391,1.311-0.873v-2.037
			c0-0.481-0.586-0.874-1.311-0.874H35.8c-0.724,0-1.31,0.392-1.31,0.874V-1.574z"/>
		<path fill="#908F8F" d="M34.51-1.579c0,0.478,0.582,0.866,1.301,0.866l27.903,1.902c0.72,0,1.302-0.39,1.302-0.868v-2.008
			c0-0.479-0.582-0.868-1.302-0.868H35.811c-0.719,0-1.301,0.388-1.301,0.868V-1.579z"/>
		<path fill="#8F8E8E" d="M34.529-1.585c0,0.476,0.578,0.861,1.291,0.861L63.59,1.15c0.715,0,1.293-0.387,1.293-0.861V-1.69
			c0-0.476-0.578-0.861-1.293-0.861H35.82c-0.713,0-1.291,0.386-1.291,0.861V-1.585z"/>
		<path fill="#8E8E8D" d="M34.549-1.59c0,0.472,0.573,0.854,1.281,0.854l27.637,1.847c0.71,0,1.283-0.383,1.283-0.854v-1.951
			c0-0.472-0.573-0.854-1.283-0.854H35.83c-0.708,0-1.281,0.383-1.281,0.854V-1.59z"/>
		<path fill="#8D8D8C" d="M34.568-1.595c0,0.468,0.569,0.848,1.272,0.848l27.503,1.82c0.705,0,1.274-0.38,1.274-0.849v-1.922
			c0-0.469-0.569-0.85-1.274-0.85H35.841c-0.703,0-1.272,0.381-1.272,0.85V-1.595z"/>
		<path fill="#8C8C8B" d="M34.588-1.6c0,0.464,0.565,0.842,1.263,0.842l27.37,1.792c0.699,0,1.265-0.377,1.265-0.842v-1.894
			c0-0.465-0.565-0.843-1.265-0.843h-27.37c-0.698,0-1.263,0.378-1.263,0.843V-1.6z"/>
		<path fill="#8B8B8A" d="M34.607-1.605c0,0.461,0.561,0.836,1.253,0.836l27.237,1.766c0.694,0,1.255-0.375,1.255-0.836v-1.865
			c0-0.461-0.561-0.836-1.255-0.836H35.861c-0.693,0-1.253,0.375-1.253,0.836V-1.605z"/>
		<path fill="#8A8A89" d="M34.627-1.61c0,0.458,0.557,0.83,1.244,0.83l27.104,1.738c0.689,0,1.245-0.372,1.245-0.83v-1.836
			c0-0.459-0.556-0.83-1.245-0.83H35.871c-0.688,0-1.244,0.371-1.244,0.83V-1.61z"/>
		<path fill="#898988" d="M34.646-1.615c0,0.454,0.552,0.823,1.235,0.823l26.971,1.711c0.684,0,1.236-0.369,1.236-0.823v-1.808
			c0-0.455-0.553-0.824-1.236-0.824H35.881c-0.683,0-1.235,0.369-1.235,0.824V-1.615z"/>
		<path fill="#888887" d="M34.666-1.62c0,0.45,0.548,0.816,1.225,0.816l26.837,1.685c0.678,0,1.227-0.367,1.227-0.817v-1.778
			c0-0.452-0.549-0.818-1.227-0.818H35.891c-0.677,0-1.225,0.366-1.225,0.818V-1.62z"/>
		<path fill="#878786" d="M34.685-1.625c0,0.446,0.543,0.811,1.216,0.811l26.704,1.657c0.673,0,1.217-0.364,1.217-0.812v-1.75
			c0-0.448-0.544-0.812-1.217-0.812H35.901c-0.673,0-1.216,0.364-1.216,0.812V-1.625z"/>
		<path fill="#868685" d="M34.704-1.631c0,0.443,0.54,0.805,1.207,0.805l26.571,1.63c0.668,0,1.208-0.361,1.208-0.806v-1.721
			c0-0.444-0.54-0.805-1.208-0.805H35.911c-0.667,0-1.207,0.361-1.207,0.805V-1.631z"/>
		<path fill="#858584" d="M34.724-1.636c0,0.44,0.536,0.799,1.198,0.799l26.437,1.603c0.663,0,1.199-0.358,1.199-0.799v-1.693
			c0-0.44-0.536-0.799-1.199-0.799H35.922c-0.662,0-1.198,0.358-1.198,0.799V-1.636z"/>
		<path fill="#848483" d="M34.743-1.641c0,0.437,0.531,0.792,1.188,0.792l26.304,1.575c0.658,0,1.19-0.355,1.19-0.793V-1.73
			c0-0.438-0.532-0.792-1.19-0.792H35.932c-0.657,0-1.188,0.354-1.188,0.792V-1.641z"/>
		<path fill="#838382" d="M34.763-1.646c0,0.434,0.527,0.786,1.179,0.786l26.171,1.548c0.652,0,1.18-0.352,1.18-0.786v-1.635
			c0-0.435-0.527-0.787-1.18-0.787H35.942c-0.652,0-1.179,0.353-1.179,0.787V-1.646z"/>
		<path fill="#828281" d="M34.782-1.65c0,0.43,0.523,0.779,1.169,0.779L61.989,0.65c0.647,0,1.171-0.351,1.171-0.781v-1.605
			c0-0.431-0.523-0.781-1.171-0.781H35.952c-0.646,0-1.169,0.35-1.169,0.781V-1.65z"/>
		<path fill="#818180" d="M34.802-1.656c0,0.426,0.519,0.773,1.16,0.773l25.904,1.494c0.643,0,1.161-0.348,1.161-0.773V-1.74
			c0-0.427-0.519-0.774-1.161-0.774H35.962c-0.642,0-1.16,0.347-1.16,0.774V-1.656z"/>
		<path fill="#80807F" d="M34.821-1.662c0,0.424,0.514,0.768,1.151,0.768l25.771,1.467c0.638,0,1.152-0.344,1.152-0.768v-1.549
			c0-0.424-0.515-0.768-1.152-0.768H35.972c-0.637,0-1.151,0.344-1.151,0.768V-1.662z"/>
		<path fill="#7F7F7E" d="M34.84-1.666c0,0.419,0.511,0.761,1.142,0.761L61.62,0.534c0.632,0,1.143-0.342,1.143-0.761v-1.521
			c0-0.42-0.511-0.762-1.143-0.762H35.982c-0.631,0-1.142,0.342-1.142,0.762V-1.666z"/>
		<path fill="#7E7E7D" d="M34.86-1.672c0,0.416,0.506,0.756,1.132,0.756l25.505,1.412c0.626,0,1.134-0.34,1.134-0.756v-1.492
			c0-0.416-0.508-0.755-1.134-0.755H35.992c-0.626,0-1.132,0.339-1.132,0.755V-1.672z"/>
		<path fill="#7D7D7C" d="M34.879-1.677c0,0.413,0.502,0.749,1.123,0.749l25.371,1.385c0.622,0,1.125-0.336,1.125-0.748v-1.464
			c0-0.414-0.503-0.75-1.125-0.75H36.002c-0.62,0-1.123,0.336-1.123,0.75V-1.677z"/>
		<path fill="#7C7C7B" d="M34.898-1.682c0,0.409,0.499,0.742,1.114,0.742L61.25,0.419c0.617,0,1.115-0.333,1.115-0.743v-1.435
			c0-0.41-0.498-0.743-1.115-0.743H36.013c-0.616,0-1.114,0.333-1.114,0.743V-1.682z"/>
		<path fill="#7B7B7A" d="M34.918-1.688c0,0.406,0.494,0.736,1.104,0.736L61.127,0.38c0.611,0,1.105-0.33,1.105-0.736v-1.405
			c0-0.407-0.494-0.737-1.105-0.737H36.022c-0.61,0-1.104,0.331-1.104,0.737V-1.688z"/>
		<path fill="#7A7A79" d="M34.938-1.691c0,0.401,0.49,0.729,1.095,0.729l24.971,1.304c0.606,0,1.097-0.328,1.097-0.73v-1.377
			c0-0.403-0.49-0.73-1.097-0.73H36.033c-0.605,0-1.095,0.327-1.095,0.73V-1.691z"/>
		<path fill="#797978" d="M34.957-1.697c0,0.398,0.485,0.725,1.086,0.725l24.838,1.276c0.602,0,1.088-0.325,1.088-0.725V-1.77
			c0-0.399-0.486-0.725-1.088-0.725H36.043c-0.601,0-1.086,0.325-1.086,0.725V-1.697z"/>
		<path fill="#787877" d="M34.977-1.702c0,0.396,0.481,0.718,1.076,0.718l24.705,1.249c0.596,0,1.078-0.322,1.078-0.718v-1.32
			c0-0.396-0.482-0.718-1.078-0.718H36.053c-0.595,0-1.076,0.322-1.076,0.718V-1.702z"/>
		<path fill="#777776" d="M34.996-1.707c0,0.392,0.477,0.711,1.067,0.711l24.572,1.223c0.591,0,1.068-0.319,1.068-0.712v-1.291
			c0-0.393-0.478-0.712-1.068-0.712H36.063c-0.59,0-1.067,0.319-1.067,0.712V-1.707z"/>
		<path fill="#767675" d="M35.015-1.713c0,0.39,0.473,0.705,1.058,0.705l24.439,1.195c0.585,0,1.059-0.316,1.059-0.705V-1.78
			c0-0.389-0.474-0.706-1.059-0.706H36.073c-0.584,0-1.058,0.316-1.058,0.706V-1.713z"/>
		<path fill="#757574" d="M35.035-1.718c0,0.386,0.469,0.699,1.048,0.699l24.306,1.168c0.58,0,1.049-0.313,1.049-0.699v-1.234
			c0-0.385-0.469-0.699-1.049-0.699H36.083c-0.58,0-1.048,0.314-1.048,0.699V-1.718z"/>
		<path fill="#747473" d="M35.054-1.723c0,0.382,0.464,0.693,1.04,0.693l24.172,1.141c0.575,0,1.04-0.312,1.04-0.693v-1.205
			c0-0.383-0.465-0.693-1.04-0.693H36.094c-0.575,0-1.04,0.311-1.04,0.693V-1.723z"/>
		<path fill="#737372" d="M35.074-1.728c0,0.378,0.46,0.687,1.03,0.687l24.038,1.113c0.57,0,1.031-0.308,1.031-0.687v-1.177
			c0-0.379-0.461-0.687-1.031-0.687H36.104c-0.57,0-1.03,0.308-1.03,0.687V-1.728z"/>
		<path fill="#727271" d="M35.093-1.733c0,0.376,0.457,0.681,1.021,0.681L60.02,0.034c0.564,0,1.021-0.306,1.021-0.681v-1.148
			c0-0.375-0.457-0.68-1.021-0.68H36.114c-0.564,0-1.021,0.305-1.021,0.68V-1.733z"/>
		<path fill="#717170" d="M35.112-1.738c0,0.372,0.452,0.674,1.011,0.674l23.772,1.06c0.561,0,1.013-0.303,1.013-0.674v-1.119
			c0-0.373-0.452-0.675-1.013-0.675H36.124c-0.559,0-1.011,0.302-1.011,0.675V-1.738z"/>
		<path fill="#70706F" d="M35.132-1.743c0,0.368,0.448,0.668,1.002,0.668l23.639,1.032c0.555,0,1.003-0.3,1.003-0.668v-1.091
			c0-0.369-0.448-0.668-1.003-0.668H36.134c-0.554,0-1.002,0.299-1.002,0.668V-1.743z"/>
		<path fill="#6F6F6E" d="M35.151-1.748c0,0.364,0.444,0.661,0.992,0.661l23.506,1.005c0.55,0,0.994-0.297,0.994-0.661v-1.062
			c0-0.366-0.444-0.663-0.994-0.663H36.144c-0.548,0-0.992,0.297-0.992,0.663V-1.748z"/>
		<path fill="#6E6E6D" d="M35.17-1.754c0,0.361,0.44,0.656,0.983,0.656L59.526-0.12c0.545,0,0.984-0.294,0.984-0.655v-1.033
			c0-0.362-0.439-0.656-0.984-0.656H36.154c-0.543,0-0.983,0.294-0.983,0.656V-1.754z"/>
		<path fill="#6D6D6C" d="M35.19-1.759c0,0.358,0.435,0.649,0.974,0.649l23.239,0.951c0.539,0,0.975-0.292,0.975-0.65v-1.004
			c0-0.358-0.436-0.649-0.975-0.649H36.164c-0.539,0-0.974,0.291-0.974,0.649V-1.759z"/>
		<path fill="#6C6C6B" d="M35.209-1.764c0,0.354,0.431,0.644,0.964,0.644l23.105,0.923c0.535,0,0.966-0.289,0.966-0.643v-0.976
			c0-0.355-0.431-0.644-0.966-0.644H36.174c-0.533,0-0.964,0.289-0.964,0.644V-1.764z"/>
		<path fill="#6B6B6A" d="M35.229-1.769c0,0.351,0.427,0.637,0.956,0.637l22.973,0.896c0.529,0,0.956-0.286,0.956-0.638v-0.946
			c0-0.352-0.427-0.638-0.956-0.638H36.185c-0.528,0-0.956,0.286-0.956,0.638V-1.769z"/>
		<path fill="#6A6A69" d="M35.248-1.774c0,0.348,0.423,0.631,0.946,0.631l22.84,0.869c0.523,0,0.946-0.283,0.946-0.631v-0.918
			c0-0.348-0.423-0.631-0.946-0.631h-22.84c-0.523,0-0.946,0.283-0.946,0.631V-1.774z"/>
		<path fill="#696968" d="M35.268-1.779c0,0.344,0.418,0.625,0.936,0.625L58.91-0.312c0.52,0,0.938-0.28,0.938-0.625v-0.889
			c0-0.345-0.418-0.625-0.938-0.625H36.204c-0.518,0-0.936,0.28-0.936,0.625V-1.779z"/>
		<path fill="#686867" d="M35.287-1.784c0,0.341,0.415,0.618,0.928,0.618l22.572,0.814c0.515,0,0.929-0.277,0.929-0.618v-0.86
			c0-0.341-0.414-0.619-0.929-0.619H36.215c-0.513,0-0.928,0.277-0.928,0.619V-1.784z"/>
		<path fill="#676766" d="M35.307-1.789c0,0.337,0.41,0.612,0.918,0.612L58.664-0.39c0.509,0,0.919-0.274,0.919-0.612v-0.832
			c0-0.338-0.41-0.612-0.919-0.612H36.225c-0.508,0-0.918,0.274-0.918,0.612V-1.789z"/>
		<path fill="#666665" d="M35.326-1.794c0,0.333,0.406,0.605,0.909,0.605l22.306,0.761c0.504,0,0.91-0.272,0.91-0.606v-0.803
			c0-0.335-0.406-0.606-0.91-0.606H36.235c-0.502,0-0.909,0.271-0.909,0.606V-1.794z"/>
		<path fill="#656564" d="M35.346-1.8c0,0.33,0.401,0.6,0.899,0.6l22.173,0.733c0.498,0,0.9-0.27,0.9-0.6v-0.774
			c0-0.331-0.402-0.6-0.9-0.6H36.245c-0.498,0-0.899,0.269-0.899,0.6V-1.8z"/>
		<path fill="#646463" d="M35.365-1.805c0,0.327,0.398,0.594,0.89,0.594l22.04,0.706c0.493,0,0.891-0.267,0.891-0.594v-0.745
			c0-0.328-0.397-0.595-0.891-0.595h-22.04c-0.492,0-0.89,0.267-0.89,0.595V-1.805z"/>
		<path fill="#636362" d="M35.385-1.81c0,0.323,0.393,0.587,0.88,0.587l21.907,0.68c0.488,0,0.881-0.265,0.881-0.588v-0.717
			c0-0.324-0.393-0.588-0.881-0.588H36.265c-0.487,0-0.88,0.264-0.88,0.588V-1.81z"/>
		<path fill="#626261" d="M35.404-1.814c0,0.319,0.39,0.581,0.871,0.581l21.774,0.651c0.482,0,0.872-0.261,0.872-0.581v-0.688
			c0-0.32-0.39-0.582-0.872-0.582H36.275c-0.481,0-0.871,0.261-0.871,0.582V-1.814z"/>
		<path fill="#616160" d="M35.423-1.819c0,0.315,0.385,0.574,0.862,0.574L57.926-0.62c0.478,0,0.862-0.259,0.862-0.575v-0.66
			c0-0.317-0.385-0.575-0.862-0.575H36.285c-0.477,0-0.862,0.258-0.862,0.575V-1.819z"/>
		<path fill="#60605F" d="M35.442-1.825c0,0.313,0.381,0.568,0.853,0.568l21.507,0.598c0.472,0,0.854-0.256,0.854-0.568v-0.631
			c0-0.314-0.382-0.569-0.854-0.569H36.295c-0.472,0-0.853,0.255-0.853,0.569V-1.825z"/>
		<path fill="#5F5F5E" d="M35.462-1.83c0,0.31,0.376,0.562,0.843,0.562l21.373,0.57c0.468,0,0.845-0.253,0.845-0.562v-0.603
			c0-0.311-0.377-0.563-0.845-0.563H36.306c-0.467,0-0.843,0.252-0.843,0.563V-1.83z"/>
		<path fill="#5E5E5D" d="M35.481-1.835c0,0.306,0.373,0.556,0.834,0.556l21.24,0.544c0.463,0,0.835-0.251,0.835-0.557v-0.574
			c0-0.307-0.372-0.556-0.835-0.556h-21.24c-0.461,0-0.834,0.25-0.834,0.556V-1.835z"/>
		<path fill="#5D5D5C" d="M35.501-1.841c0,0.303,0.369,0.551,0.825,0.551l21.107,0.516c0.457,0,0.826-0.247,0.826-0.55v-0.545
			c0-0.304-0.369-0.551-0.826-0.551H36.326c-0.456,0-0.825,0.247-0.825,0.551V-1.841z"/>
		<path fill="#5C5C5B" d="M35.521-1.846c0,0.299,0.364,0.544,0.815,0.544L57.31-0.812c0.452,0,0.816-0.245,0.816-0.544v-0.517
			c0-0.3-0.364-0.544-0.816-0.544H36.336c-0.451,0-0.815,0.244-0.815,0.544V-1.846z"/>
		<path fill="#5B5B5A" d="M35.54-1.851c0,0.296,0.36,0.537,0.806,0.537l20.841,0.462c0.446,0,0.807-0.242,0.807-0.537v-0.488
			c0-0.296-0.36-0.538-0.807-0.538H36.346c-0.446,0-0.806,0.241-0.806,0.538V-1.851z"/>
		<path fill="#5A5A59" d="M35.559-1.855c0,0.292,0.356,0.53,0.797,0.53l20.708,0.435c0.441,0,0.798-0.238,0.798-0.53V-1.88
			c0-0.293-0.356-0.532-0.798-0.532H36.356c-0.441,0-0.797,0.238-0.797,0.532V-1.855z"/>
		<path fill="#595958" d="M35.579-1.86c0,0.289,0.352,0.524,0.787,0.524L56.94-0.929c0.437,0,0.788-0.235,0.788-0.524v-0.431
			c0-0.29-0.352-0.525-0.788-0.525H36.366c-0.435,0-0.787,0.236-0.787,0.525V-1.86z"/>
		<path fill="#585857" d="M35.598-1.866c0,0.286,0.347,0.519,0.778,0.519l20.441,0.381c0.431,0,0.778-0.233,0.778-0.519v-0.402
			c0-0.287-0.348-0.52-0.778-0.52H36.376c-0.431,0-0.778,0.233-0.778,0.52V-1.866z"/>
		<path fill="#575756" d="M35.618-1.871c0,0.282,0.343,0.513,0.769,0.513l20.307,0.353c0.427,0,0.77-0.229,0.77-0.513v-0.373
			c0-0.283-0.343-0.513-0.77-0.513H36.386c-0.425,0-0.769,0.23-0.769,0.513V-1.871z"/>
		<path fill="#565655" d="M35.637-1.876c0,0.278,0.339,0.506,0.76,0.506L56.57-1.044c0.421,0,0.761-0.228,0.761-0.506v-0.345
			c0-0.279-0.34-0.507-0.761-0.507H36.396c-0.42,0-0.76,0.228-0.76,0.507V-1.876z"/>
		<path fill="#555554" d="M35.657-1.881c0,0.276,0.334,0.5,0.75,0.5l20.041,0.299c0.416,0,0.751-0.226,0.751-0.501v-0.315
			c0-0.276-0.335-0.501-0.751-0.501H36.407c-0.416,0-0.75,0.225-0.75,0.501V-1.881z"/>
		<path fill="#545453" d="M35.676-1.887c0,0.272,0.331,0.494,0.741,0.494l19.908,0.271c0.411,0,0.742-0.222,0.742-0.494v-0.287
			c0-0.272-0.331-0.494-0.742-0.494H36.417c-0.41,0-0.741,0.222-0.741,0.494V-1.887z"/>
		<path fill="#535352" d="M35.695-1.892c0,0.269,0.327,0.487,0.731,0.487l19.774,0.245c0.405,0,0.732-0.22,0.732-0.487v-0.259
			c0-0.269-0.327-0.488-0.732-0.488H36.427c-0.405,0-0.731,0.219-0.731,0.488V-1.892z"/>
		<path fill="#525251" d="M35.715-1.896c0,0.265,0.323,0.481,0.722,0.481l19.642,0.217c0.4,0,0.723-0.216,0.723-0.481v-0.229
			c0-0.266-0.322-0.482-0.723-0.482H36.437c-0.399,0-0.722,0.216-0.722,0.482V-1.896z"/>
		<path fill="#515150" d="M35.734-1.902c0,0.261,0.318,0.475,0.712,0.475l19.508,0.19c0.395,0,0.714-0.214,0.714-0.476v-0.201
			c0-0.262-0.319-0.476-0.714-0.476H36.447c-0.395,0-0.712,0.213-0.712,0.476V-1.902z"/>
		<path fill="#50504F" d="M35.753-1.907c0,0.258,0.314,0.469,0.704,0.469l19.374,0.163c0.391,0,0.705-0.211,0.705-0.47v-0.172
			c0-0.259-0.314-0.469-0.705-0.469H36.457c-0.389,0-0.704,0.21-0.704,0.469V-1.907z"/>
		<path fill="#4F4F4E" d="M35.773-1.912c0,0.255,0.31,0.463,0.693,0.463l19.242,0.136c0.385,0,0.694-0.208,0.694-0.463V-1.92
			c0-0.255-0.31-0.463-0.694-0.463H36.467c-0.384,0-0.693,0.208-0.693,0.463V-1.912z"/>
		<path fill="#4E4E4D" d="M35.792-1.917c0,0.251,0.306,0.456,0.685,0.456l19.108,0.109c0.379,0,0.685-0.206,0.685-0.457v-0.114
			c0-0.252-0.306-0.458-0.685-0.458H36.478c-0.379,0-0.685,0.205-0.685,0.458V-1.917z"/>
		<path fill="#4D4D4C" d="M35.812-1.922c0,0.247,0.301,0.45,0.675,0.45l18.975,0.081c0.375,0,0.677-0.202,0.677-0.45v-0.086
			c0-0.249-0.302-0.451-0.677-0.451H36.487c-0.374,0-0.675,0.202-0.675,0.451V-1.922z"/>
		<path fill="#4C4C4B" d="M35.831-1.927c0,0.245,0.298,0.444,0.667,0.444l18.841,0.055c0.37,0,0.667-0.2,0.667-0.444v-0.058
			c0-0.245-0.297-0.444-0.667-0.444H36.498c-0.369,0-0.667,0.2-0.667,0.444V-1.927z"/>
		<path fill="#4B4B4A" d="M35.851-1.932c0,0.241,0.292,0.438,0.656,0.438l18.708,0.027c0.364,0,0.658-0.197,0.658-0.438v-0.028
			c0-0.242-0.294-0.438-0.658-0.438H36.507c-0.364,0-0.656,0.196-0.656,0.438V-1.932z"/>
		<path fill="#262626" d="M35.87-1.938c0,0.237,0.289,0.432,0.647,0.432h18.575c0.359,0,0.648-0.194,0.648-0.432l0,0
			c0-0.238-0.289-0.432-0.648-0.432H36.518C36.159-2.37,35.87-2.176,35.87-1.938L35.87-1.938z"/>
	</g>
</g>
</svg>
