<?xml version="1.0" encoding="utf-8"?>
<!-- Generator: Adobe Illustrator 15.1.0, SVG Export Plug-In . SVG Version: 6.00 Build 0)  -->
<!DOCTYPE svg PUBLIC "-//W3C//DTD SVG 1.1//EN" "http://www.w3.org/Graphics/SVG/1.1/DTD/svg11.dtd">
<svg version="1.1" id="Ebene_1" xmlns="http://www.w3.org/2000/svg" xmlns:xlink="http://www.w3.org/1999/xlink" x="0px" y="0px"
	 width="1038.103px" height="1038.102px" viewBox="-26.296 -45.398 1038.103 1038.102"
	 enable-background="new -26.296 -45.398 1038.103 1038.102" xml:space="preserve">
<rect x="-26.295" y="-46.398" fill="#ED8F83" width="1038.103" height="1038.102"/>
<g>
	<g>
		<defs>
			<rect id="SVGID_1_" x="6.863" y="-7.395" width="966.097" height="966.097"/>
		</defs>
		<clipPath id="SVGID_2_">
			<use xlink:href="#SVGID_1_"  overflow="visible"/>
		</clipPath>
		<g clip-path="url(#SVGID_2_)">
			
				<radialGradient id="SVGID_3_" cx="364.6604" cy="441.0793" r="631.9752" gradientTransform="matrix(1.6477 0 0 -1.1768 -111.5104 1003.4974)" gradientUnits="userSpaceOnUse">
				<stop  offset="0.4606" style="stop-color:#F79470"/>
				<stop  offset="0.5502" style="stop-color:#F78F6C"/>
				<stop  offset="0.6498" style="stop-color:#F68260"/>
				<stop  offset="0.7541" style="stop-color:#F56C4B"/>
				<stop  offset="0.8611" style="stop-color:#F34D2F"/>
				<stop  offset="0.9273" style="stop-color:#F2361A"/>
			</radialGradient>
			<rect x="-1.079" y="-10.923" fill="url(#SVGID_3_)" width="980.84" height="990.716"/>
			<path fill="#F76947" d="M248.549,505.118C138.176,316.781,130.996,119.415,229.494-10.923h-5.636
				c-47.182,63.323-70.597,144.146-67.75,234.151c2.918,92.208,33.298,190.152,87.854,283.247
				c103.417,176.476,130.63,335.699,80.924,473.317h5.126C379.556,841.618,352.171,681.946,248.549,505.118z M230.206,512.931
				c-58.995-100.674-90.218-205.808-90.296-304.038c-0.066-82.89,22.556-158.816,65.426-219.814h-5.544
				c-42.503,61.216-64.916,137.092-64.85,219.817c0.076,98.69,31.434,204.294,90.677,305.394
				c102.188,174.37,128.31,330.965,77.69,465.506h5.146C358.894,844.691,332.589,687.639,230.206,512.931z M186.209,505.118
				C75.837,316.779,68.659,119.414,167.156-10.923h-5.636C114.34,52.401,90.924,133.224,93.772,223.229
				c2.916,92.207,33.295,190.151,87.852,283.247c103.417,176.474,130.627,335.696,80.92,473.317h5.123
				C317.219,841.615,289.832,681.944,186.209,505.118z M165.426,505.118C55.058,316.778,47.881,119.412,146.376-10.923h-5.635
				C93.561,52.4,70.144,133.223,72.992,223.229c2.917,92.206,33.294,190.151,87.849,283.247
				C264.26,682.947,291.472,842.17,241.77,979.793h5.124C296.44,841.613,269.05,681.939,165.426,505.118z M147.091,512.931
				C88.097,412.265,56.872,307.13,56.792,208.893c-0.064-82.89,22.557-158.818,65.427-219.814h-5.545
				C74.171,50.294,51.757,126.17,51.825,208.896c0.08,98.698,31.438,204.301,90.68,305.394
				c102.188,174.373,128.307,330.968,77.688,465.506h5.146C275.781,844.693,249.475,687.641,147.091,512.931z M269.331,505.118
				c-110.373-188.336-117.555-385.7-19.059-516.041h-5.638c-47.178,63.323-70.594,144.146-67.744,234.151
				c2.917,92.208,33.298,190.153,87.854,283.247c103.413,176.476,130.621,335.699,80.914,473.317h5.124
				C400.333,841.618,372.95,681.946,269.331,505.118z M209.429,512.931c-58.997-100.673-90.22-205.808-90.296-304.038
				c-0.064-82.889,22.557-158.815,65.426-219.814h-5.545c-42.501,61.217-64.914,137.093-64.848,219.817
				c0.074,98.69,31.431,204.294,90.677,305.394c102.183,174.366,128.3,330.961,77.679,465.506h5.146
				C338.114,844.686,311.809,687.634,209.429,512.931z M394.002,505.118c-110.369-188.34-117.546-385.704-19.047-516.041h-5.634
				c-47.183,63.323-70.601,144.146-67.754,234.151c2.916,92.207,33.293,190.151,87.848,283.247
				c103.419,176.476,130.628,335.699,80.922,473.317h5.121C525.009,841.616,497.622,681.944,394.002,505.118z M292.548,512.931
				c-58.994-100.672-90.218-205.806-90.295-304.038c-0.068-82.891,22.554-158.818,65.428-219.814h-5.545
				c-42.503,61.215-64.918,137.091-64.851,219.817c0.076,98.693,31.433,204.296,90.675,305.394
				c102.182,174.368,128.299,330.963,77.68,465.506h5.146C421.227,844.688,394.927,687.637,292.548,512.931z M417.221,512.931
				c-58.993-100.666-90.219-205.801-90.299-304.038c-0.066-82.89,22.557-158.818,65.426-219.814h-5.545
				c-42.502,61.216-64.916,137.092-64.848,219.817c0.079,98.698,31.437,204.301,90.679,305.394
				c102.187,174.373,128.308,330.968,77.687,465.506h5.146C545.911,844.693,519.606,687.641,417.221,512.931z M435.561,505.118
				C325.188,316.779,318.01,119.414,416.509-10.923h-5.635c-47.182,63.323-70.596,144.146-67.75,234.151
				c2.918,92.207,33.295,190.151,87.852,283.247c103.418,176.474,130.627,335.696,80.921,473.317h5.122
				C566.572,841.615,539.184,681.944,435.561,505.118z M310.884,505.118c-110.371-188.341-117.55-385.705-19.048-516.041h-5.638
				c-47.182,63.322-70.6,144.146-67.751,234.151c2.918,92.206,33.296,190.151,87.853,283.247
				c103.418,176.474,130.627,335.696,80.922,473.317h5.125C441.894,841.615,414.51,681.944,310.884,505.118z M352.44,505.118
				C242.076,316.778,234.897,119.413,333.392-10.923h-5.636c-47.178,63.322-70.595,144.146-67.748,234.151
				c2.915,92.206,33.293,190.151,87.848,283.247c103.418,176.471,130.632,335.694,80.925,473.317h5.122
				C483.45,841.615,456.067,681.941,352.44,505.118z M334.102,512.931c-58.998-100.672-90.222-205.806-90.299-304.038
				c-0.063-82.885,22.558-158.812,65.426-219.814h-5.545c-42.502,61.221-64.914,137.097-64.847,219.817
				c0.076,98.693,31.433,204.296,90.679,305.394c102.186,174.375,128.306,330.97,77.691,465.506h5.145
				C462.792,844.695,436.484,687.644,334.102,512.931z M375.661,512.931c-58.995-100.673-90.22-205.808-90.297-304.038
				c-0.062-82.89,22.559-158.816,65.428-219.814h-5.547c-42.498,61.216-64.912,137.093-64.848,219.817
				c0.076,98.69,31.433,204.294,90.677,305.394c102.187,174.375,128.308,330.97,77.688,465.506h5.144
				C504.348,844.695,478.045,687.644,375.661,512.931z M-6.021,675.196v16.537c30.024,102.273,30.08,197.165,0,283.607v4.453h3.557
				C30.658,887.433,29.395,785.465-6.021,675.196z M-6.021,575.738v10.815c69.511,145.568,82.72,277.554,39.194,393.24h5.146
				C82.64,861.078,67.703,725.422-6.021,575.738z M-6.021,760.118v37.941c2.561,27.863,2.553,55.044,0,81.528v35.433
				C3.169,865.881,3.155,814.186-6.021,760.118z M-6.021,618.816v12.777c50.366,127.208,56.886,243.909,19.217,348.2h5.125
				C57.013,871.887,48.789,750.87-6.021,618.816z M-4.713-10.923c-0.443,0.595-0.87,1.202-1.31,1.802v7.79
				c2.26-3.232,4.562-6.438,6.946-9.592H-4.713z M12.782-10.923C5.998-1.149-0.271,9.002-6.021,19.49v10.031
				C1.186,15.431,9.302,1.919,18.328-10.923H12.782z M33.556-10.923C17.423,12.317,4.192,37.676-6.021,64.714V79.14
				C4.832,46.612,19.936,16.348,39.104-10.923H33.556z M-6.021,535.991v9.752C81.33,707.532,101.512,853.398,53.961,979.794h5.146
				C107.315,850.665,85.406,701.483-6.021,535.991z M63.971,512.931C32.637,459.459,9.136,404.727-6.022,350.44v17.172
				c15.202,49.09,37.116,98.396,65.407,146.678c102.188,174.375,128.309,330.97,77.69,465.506h5.143
				C192.662,844.695,166.356,687.644,63.971,512.931z M82.315,505.118C-28.056,316.779-35.237,119.415,63.262-10.923h-5.637
				C24.126,34.041,2.62,87.835-6.021,147.469v124.979c10.291,77.355,38.808,157.335,83.75,234.028
				c103.416,176.476,130.625,335.699,80.921,473.316h5.124C213.319,841.616,185.935,681.946,82.315,505.118z M103.092,505.118
				C-7.278,316.779-14.454,119.414,84.044-10.923H78.41C31.228,52.401,7.81,133.224,10.658,223.229
				c2.915,92.207,33.292,190.151,87.846,283.247c103.42,176.476,130.629,335.699,80.923,473.317h5.121
				C234.098,841.616,206.714,681.944,103.092,505.118z M126.31,512.931C67.315,412.26,36.091,307.125,36.014,208.893
				C35.949,126.007,58.571,50.08,101.437-10.922h-5.545C53.393,50.298,30.98,126.174,31.047,208.896
				c0.076,98.693,31.434,204.296,90.679,305.394c102.181,174.363,128.301,330.957,77.689,465.506h5.146
				C254.995,844.684,228.69,687.632,126.31,512.931z M43.199,512.931c-19.482-33.249-35.916-66.984-49.22-100.796v12.784
				c12.453,29.983,27.346,59.867,44.635,89.37c102.179,174.363,128.294,330.957,77.677,465.506h5.144
				C171.877,844.684,145.576,687.632,43.199,512.931z M-0.805,505.118c-1.766-3.014-3.502-6.029-5.216-9.049v9.311
				c0.211,0.365,0.418,0.731,0.63,1.097C98.029,682.956,125.24,842.18,75.537,979.793h5.124
				C130.208,841.623,102.819,681.949-0.805,505.118z M19.972,505.118c-9.425-16.082-18.078-32.23-25.994-48.397v10.504
				c6.663,13.157,13.791,26.254,21.408,39.251C118.805,682.947,146.018,842.17,96.31,979.793h5.124
				C150.984,841.615,123.597,681.941,19.972,505.118z M684.913,505.118C574.54,316.779,567.36,119.415,665.859-10.923h-5.636
				c-47.179,63.323-70.598,144.146-67.75,234.151c2.919,92.208,33.297,190.151,87.854,283.247
				c103.412,176.476,130.623,335.699,80.921,473.317h5.123C815.917,841.616,788.533,681.946,684.913,505.118z M973.385,979.794
				c0.489-1.309,0.955-2.623,1.432-3.936v-15.02c-2.026,6.363-4.219,12.684-6.577,18.954L973.385,979.794L973.385,979.794z
				 M784.065,208.893c-0.063-82.888,22.558-158.815,65.431-219.814h-5.544c-42.504,61.218-64.919,137.094-64.852,219.817
				c0.076,98.693,31.434,204.297,90.676,305.394c102.187,174.373,128.31,330.968,77.69,465.506h5.146
				c11.154-29.881,18.55-60.831,22.205-92.812v-96.614c-9.307-86.377-42.83-179.108-100.451-277.438
				C815.37,412.26,784.147,307.126,784.065,208.893z M804.848,208.893c-0.066-82.891,22.559-158.818,65.43-219.814h-5.545
				c-42.502,61.215-64.918,137.091-64.851,219.817c0.077,98.693,31.435,204.296,90.677,305.394
				c39.43,67.281,67.519,131.912,84.258,193.654v-17.675c-17.158-56.812-43.719-115.984-79.672-177.338
				C836.154,412.259,804.926,307.125,804.848,208.893z M851.145,505.118c-110.37-188.339-117.55-385.703-19.054-516.041h-5.636
				c-47.179,63.323-70.598,144.146-67.75,234.151c2.919,92.208,33.299,190.152,87.854,283.247
				c103.416,176.476,130.629,335.699,80.926,473.317h5.126C982.156,841.618,954.768,681.946,851.145,505.118z M812.03,512.931
				c-58.999-100.673-90.224-205.808-90.296-304.038c-0.068-82.889,22.556-158.815,65.426-219.814h-5.545
				c-42.503,61.217-64.914,137.093-64.852,219.817c0.074,98.69,31.434,204.294,90.68,305.394
				c102.182,174.366,128.301,330.961,77.679,465.506h5.146C940.712,844.686,914.409,687.634,812.03,512.931z M830.366,505.118
				c-110.371-188.34-117.547-385.704-19.051-516.041h-5.637c-47.179,63.323-70.598,144.146-67.75,234.151
				c2.919,92.207,33.295,190.151,87.853,283.247c103.418,176.474,130.626,335.696,80.917,473.317h5.124
				C961.376,841.615,933.99,681.941,830.366,505.118z M791.246,512.931c-58.995-100.673-90.22-205.808-90.296-304.038
				c-0.068-82.887,22.556-158.813,65.426-219.814h-5.542c-42.502,61.22-64.917,137.096-64.854,219.817
				c0.076,98.69,31.433,204.294,90.679,305.394c102.188,174.373,128.307,330.968,77.688,465.506h5.146
				C919.936,844.693,893.63,687.641,791.246,512.931z M894.43-10.923h-5.635c-47.179,63.323-70.598,144.146-67.749,234.151
				c2.919,92.207,33.298,190.151,87.853,283.247c27.284,46.555,49.256,91.909,65.918,135.981V629.2
				c-16.063-40.337-36.504-81.718-61.332-124.083C803.115,316.78,795.934,119.414,894.43-10.923z M924.946,223.23
				c2.149,67.937,19.223,138.985,49.872,208.916v-11.868c-60.585-144.378-60.952-287.382,0-395.308v-9.148
				C939.658,74.523,922.483,145.441,924.946,223.23z M974.817,380.725v-15.973c-16.133-52.75-24.471-105.223-24.513-155.859
				c-0.042-50.399,8.323-98.218,24.513-141.681V54.099c-19.446,46.954-29.522,99.333-29.479,154.796
				C945.385,264.651,955.419,322.614,974.817,380.725z M971.908-10.923c-47.175,63.323-70.595,144.146-67.746,234.151
				c2.594,82.006,26.931,168.547,70.655,252.182v-10.231c-88.156-174.115-88.803-351.32,0-472.397v-3.704H971.908z M867.186,208.893
				c-0.064-82.889,22.557-158.815,65.429-219.814h-5.545c-42.502,61.217-64.916,137.093-64.851,219.817
				c0.078,98.695,31.437,204.298,90.68,305.394c7.746,13.217,15.049,26.328,21.918,39.34v-9.937
				c-5.516-10.19-11.285-20.444-17.332-30.762C898.491,412.261,867.265,307.127,867.186,208.893z M915.214-10.923h-5.639
				c-47.178,63.322-70.598,144.146-67.749,234.151c2.916,92.206,33.295,190.151,87.851,283.247
				c17.146,29.259,32.188,58.041,45.142,86.333v-11.234c-11.893-25.109-25.4-50.6-40.556-76.456
				C823.888,316.778,816.712,119.413,915.214-10.923z M974.817,300.712v-32.487c-2.451-19.99-3.72-39.798-3.735-59.332
				c-0.013-19.578,1.252-38.76,3.735-57.455v-29.479c-5.778,27.832-8.728,56.931-8.705,86.938
				C966.138,238.967,969.079,269.681,974.817,300.712z M953.387-10.923h-5.545c-42.502,61.221-64.913,137.097-64.847,219.817
				c0.077,98.693,31.433,204.296,90.679,305.394c0.383,0.657,0.76,1.312,1.144,1.971v-9.3
				c-56.757-98.854-86.781-201.774-86.855-298.066C887.897,126.008,910.518,50.08,953.387-10.923z M768.027,505.118
				C657.66,316.778,650.479,119.412,748.974-10.923h-5.635c-47.178,63.322-70.597,144.146-67.749,234.151
				c2.919,92.206,33.295,190.151,87.85,283.247c103.418,176.471,130.631,335.694,80.93,473.317h5.122
				C899.04,841.613,871.649,681.939,768.027,505.118z M541.895,512.931C482.9,412.258,451.676,307.123,451.6,208.893
				c-0.066-82.887,22.556-158.813,65.424-219.814h-5.541c-42.502,61.22-64.918,137.096-64.852,219.817
				c0.077,98.69,31.432,204.294,90.677,305.394c102.188,174.373,128.308,330.968,77.688,465.506h5.146
				C670.583,844.693,644.279,687.641,541.895,512.931z M560.236,505.118c-110.369-188.34-117.548-385.704-19.053-516.041h-5.635
				c-47.179,63.323-70.596,144.146-67.747,234.151c2.917,92.207,33.293,190.151,87.849,283.247
				c103.419,176.474,130.625,335.696,80.918,473.317h5.123C691.243,841.615,663.858,681.941,560.236,505.118z M583.455,512.931
				c-58.996-100.671-90.219-205.805-90.296-304.038c-0.068-82.888,22.553-158.815,65.425-219.814h-5.544
				c-42.504,61.218-64.918,137.094-64.85,219.817c0.076,98.693,31.436,204.297,90.678,305.394
				c102.184,174.373,128.306,330.968,77.688,465.506h5.146C712.139,844.693,685.838,687.641,583.455,512.931z M500.336,512.931
				c-58.995-100.675-90.219-205.81-90.294-304.038c-0.068-82.888,22.555-158.815,65.425-219.814h-5.545
				c-42.503,61.218-64.915,137.094-64.849,219.817c0.076,98.689,31.433,204.292,90.677,305.394
				c102.187,174.373,128.309,330.968,77.688,465.506h5.144C629.024,844.693,602.721,687.641,500.336,512.931z M477.124,505.118
				c-110.374-188.336-117.555-385.7-19.061-516.041h-5.636c-47.178,63.323-70.593,144.146-67.745,234.151
				c2.918,92.208,33.299,190.153,87.854,283.247c103.411,176.476,130.621,335.699,80.914,473.317h5.122
				C608.125,841.618,580.741,681.946,477.124,505.118z M601.794,505.118c-110.37-188.34-117.547-385.704-19.051-516.041h-5.635
				c-47.183,63.323-70.598,144.146-67.75,234.151c2.916,92.207,33.296,190.151,87.851,283.247
				c103.419,176.474,130.626,335.696,80.918,473.317h5.124C732.802,841.615,705.42,681.944,601.794,505.118z M518.678,505.118
				C408.307,316.78,401.13,119.415,499.624-10.923h-5.635c-47.179,63.323-70.595,144.146-67.748,234.151
				c2.918,92.208,33.296,190.152,87.853,283.247c103.415,176.476,130.626,335.699,80.917,473.317h5.123
				C649.684,841.616,622.301,681.946,518.678,505.118z M728.91,512.931c-58.997-100.671-90.224-205.806-90.296-304.038
				c-0.068-82.886,22.553-158.812,65.422-219.814h-5.545c-42.499,61.22-64.911,137.096-64.847,219.817
				c0.076,98.693,31.433,204.296,90.679,305.394c102.182,174.363,128.304,330.957,77.688,465.506h5.146
				C857.595,844.684,831.29,687.632,728.91,512.931z M625.017,512.931c-58.995-100.669-90.223-205.804-90.299-304.038
				c-0.067-82.889,22.557-158.815,65.425-219.814H594.6c-42.5,61.217-64.916,137.093-64.851,219.817
				c0.08,98.695,31.436,204.298,90.683,305.394c102.181,174.363,128.299,330.961,77.677,465.506h5.146
				C753.697,844.686,727.397,687.634,625.017,512.931z M708.13,512.931c-58.996-100.675-90.222-205.81-90.296-304.038
				c-0.067-82.888,22.554-158.815,65.426-219.814h-5.545c-42.503,61.218-64.918,137.094-64.85,219.817
				c0.077,98.689,31.433,204.292,90.679,305.394c102.188,174.373,128.307,330.968,77.688,465.506h5.146
				C836.82,844.693,810.513,687.641,708.13,512.931z M747.251,505.118C636.88,316.78,629.7,119.415,728.198-10.923h-5.635
				c-47.183,63.323-70.598,144.146-67.75,234.151c2.916,92.208,33.296,190.152,87.851,283.247
				c103.416,176.476,130.627,335.699,80.919,473.317h5.123C878.259,841.616,850.872,681.946,747.251,505.118z M458.78,512.931
				c-58.996-100.674-90.22-205.808-90.297-304.038c-0.067-82.89,22.556-158.816,65.427-219.814h-5.544
				c-42.504,61.216-64.917,137.092-64.852,219.817c0.077,98.69,31.434,204.294,90.678,305.394
				c102.188,174.37,128.308,330.965,77.69,465.506h5.144C587.468,844.691,561.162,687.639,458.78,512.931z M643.35,505.118
				c-110.369-188.34-117.55-385.704-19.054-516.041h-5.636c-47.178,63.323-70.594,144.146-67.749,234.151
				c2.919,92.207,33.299,190.151,87.854,283.247c103.419,176.479,130.632,335.703,80.929,473.317h5.121
				C774.363,841.623,746.975,681.949,643.35,505.118z M666.577,512.931c-58.996-100.676-90.224-205.81-90.299-304.038
				c-0.068-82.887,22.556-158.814,65.425-219.814h-5.544c-42.5,61.219-64.915,137.095-64.85,219.817
				c0.079,98.689,31.436,204.292,90.678,305.394c102.184,174.363,128.296,330.957,77.68,465.506h5.145
				C795.253,844.684,768.953,687.632,666.577,512.931z"/>
		</g>
	</g>
</g>
<path fill="#FFFFFF" d="M666.084,94.895c1.816,60.829,4.149,132.23,9.89,214.171c3.512,50.157,11.287,108.23-13.182,144.98
	c-19.601,29.433-104.174,54.183-115.328,0c-9.58-46.607,30.105-80.173,72.492-75.785c-4.076-53.029-5.638-108.589-6.583-164.749
	c-50.452,3.386-116.08,20.111-168.046,32.949c-12.885,64.98,15.15,199.413-19.776,250.421
	c-23.952,34.986-105.381,61.881-128.495,16.474c-18.272-35.894,38.091-107.896,95.555-95.556
	c0.958-77.424,1.341-182.862,6.582-266.892C492.547,136.629,566.288,102.728,666.084,94.895z M583.71,193.743
	c23.288-14.055,26.393-48.297,52.717-59.311c-2.889,24.565-19.166,35.75-26.352,56.016c8.286,5.985,22.578,5.982,23.061,19.769
	c-0.147,58.365-0.925,117.344,3.291,171.339c-5.799,2.983-5.436,12.13-13.172,13.18c-37.937,0.509-56.687,20.191-56.016,59.311
	c42.159,36.05,89.814-13.659,95.553-59.311c7.656-60.899-20.981-151.362-13.179-210.877c-4.438-5.285-13.997,12.167-26.358,9.885
	c14.278-20.862,33.538-36.749,26.358-79.079c-17.021,2.748-30.803,8.733-49.426,9.884c-1.313,14.376-11.282,26.644-19.771,39.538
	c-6.408,9.741-27.002,29.801-16.478,32.952c20.646-20.015,32.525-66.299,59.313-69.195
	C614.218,153.95,597.284,172.161,583.71,193.743z M530.999,203.629c18.764-10.455,34.363-41.888,46.121-59.312
	c2.869-4.236,18.904-14.922,6.59-16.475C558.993,145.96,549.676,179.471,530.999,203.629z M504.634,206.923
	c18.677-0.104,21.163-23.299,29.656-36.247c8.48-12.942,24.857-24.073,23.067-36.243
	C531.441,150.254,523.383,183.936,504.634,206.923z M507.926,147.613c-5.784,29.352-25.527,44.757-36.247,69.194
	c34.457-9.481,36.771-51.099,59.32-72.49C519.563,141.676,518.329,149.224,507.926,147.613z M448.626,160.792
	c-12.511,23.741-23.771,48.726-39.539,69.195c-5.577,67.401,11.758,158.275-9.896,207.584
	c-51.074-0.556-79.169,21.868-82.374,69.195c48.414,27.006,102.754-8.839,112.031-52.721c12.287-58.137-9.412-145.576,3.299-207.585
	c-0.832-7.907-17.456,12.689-19.776,3.298c17.229-25.635,31.562-71.662,52.718-82.374c-4.451,24.099-18.247,38.854-26.358,59.306
	c29.054-17.087,38.413-53.853,62.605-75.783C482.586,153.022,468.816,160.121,448.626,160.792z M405.781,170.676
	c9.674,4.615-3.063,31.631,6.59,36.247c2.22-16.535,24.729-30.086,19.776-42.837C430.686,173.606,407.243,161.161,405.781,170.676z"
	/>
<rect x="160.303" y="584.851" fill="none" width="654.822" height="287.834"/>
<text transform="matrix(1 0 0 1 217.6531 765.0891)" fill="#FFFFFF" font-family="'ChildishKid'" font-size="200">Barnas</text>
<text transform="matrix(1 0 0 1 275.7654 882.8586)" fill="#FFFFFF" font-family="'Bauhaus93'" font-size="85.2982">MP3-Kilden</text>
</svg>
