<?xml version="1.0" encoding="utf-8"?>
<!-- Generator: Adobe Illustrator 15.1.0, SVG Export Plug-In . SVG Version: 6.00 Build 0)  -->
<!DOCTYPE svg PUBLIC "-//W3C//DTD SVG 1.1//EN" "http://www.w3.org/Graphics/SVG/1.1/DTD/svg11.dtd">
<svg version="1.1" id="Ebene_1" xmlns="http://www.w3.org/2000/svg" xmlns:xlink="http://www.w3.org/1999/xlink" x="0px" y="0px"
	 width="1038.103px" height="1038.102px" viewBox="-26.296 -45.398 1038.103 1038.102"
	 enable-background="new -26.296 -45.398 1038.103 1038.102" xml:space="preserve">
<rect x="-26.296" y="-45.398" fill="#91CBCE" width="1038.103" height="1038.102"/>
<rect x="14.574" y="-3.35" fill="#6EB7B7" width="958.909" height="958.918"/>
<g opacity="0.59">
	<g>
		<rect x="15.738" y="52.755" fill="#91CBCE" width="955.583" height="8.425"/>
		<path fill="#91CBCE" d="M201.835,56.97c0,10.01-8.111,18.127-18.123,18.127h-64.44c-10.011,0-18.127-8.117-18.127-18.127l0,0
			c0-10.021,8.116-18.134,18.127-18.134h64.44C193.724,38.836,201.835,46.948,201.835,56.97L201.835,56.97z"/>
		<path fill="#91CBCE" d="M888.552,56.97c0,10.01-8.111,18.127-18.121,18.127h-64.439c-10.014,0-18.123-8.117-18.123-18.127l0,0
			c0-10.021,8.109-18.134,18.123-18.134h64.439C880.44,38.836,888.552,46.948,888.552,56.97L888.552,56.97z"/>
	</g>
	<g>
		<rect x="15.738" y="330.565" fill="#91CBCE" width="955.583" height="8.419"/>
		<path fill="#91CBCE" d="M326.691,334.774c0,10.013-8.11,18.133-18.123,18.133h-64.438c-10.012,0-18.123-8.12-18.123-18.133l0,0
			c0-10.011,8.111-18.128,18.123-18.128h64.438C318.58,316.646,326.691,324.763,326.691,334.774L326.691,334.774z"/>
	</g>
	<g>
		<rect x="15.738" y="469.466" fill="#91CBCE" width="955.583" height="8.419"/>
		<path fill="#91CBCE" d="M842.241,473.676c0,10.021-8.117,18.133-18.129,18.133h-64.439c-10.012,0-18.123-8.111-18.123-18.133l0,0
			c0-10.018,8.111-18.123,18.123-18.123h64.439C834.124,455.553,842.241,463.658,842.241,473.676L842.241,473.676z"/>
	</g>
	<g>
		<rect x="15.738" y="608.379" fill="#91CBCE" width="955.583" height="8.407"/>
		<path fill="#91CBCE" d="M620.714,612.576c0,10.021-8.117,18.134-18.123,18.134h-64.445c-10.012,0-18.123-8.111-18.123-18.134l0,0
			c0-10.011,8.111-18.127,18.123-18.127h64.445C612.596,594.449,620.714,602.567,620.714,612.576L620.714,612.576z"/>
		<path fill="#91CBCE" d="M207.878,612.576c0,10.021-8.117,18.134-18.128,18.134h-64.44c-10.011,0-18.123-8.111-18.123-18.134l0,0
			c0-10.011,8.112-18.127,18.123-18.127h64.44C199.761,594.449,207.878,602.567,207.878,612.576L207.878,612.576z"/>
	</g>
	<g>
		<rect x="15.738" y="747.281" fill="#91CBCE" width="955.583" height="8.419"/>
		<path fill="#91CBCE" d="M483.778,751.485c0,10.018-8.117,18.133-18.128,18.133h-64.444c-10.006,0-18.123-8.116-18.123-18.133l0,0
			c0-10.017,8.116-18.127,18.123-18.127h64.444C475.66,733.358,483.778,741.468,483.778,751.485L483.778,751.485z"/>
	</g>
	<g>
		<rect x="15.738" y="886.183" fill="#91CBCE" width="955.583" height="8.419"/>
		<path fill="#91CBCE" d="M326.691,890.392c0,10.012-8.11,18.133-18.123,18.133h-64.438c-10.012,0-18.123-8.121-18.123-18.133l0,0
			c0-10.021,8.111-18.133,18.123-18.133h64.438C318.58,872.259,326.691,880.369,326.691,890.392L326.691,890.392z"/>
		<path fill="#91CBCE" d="M755.641,890.392c0,10.012-8.115,18.133-18.123,18.133h-64.443c-10.008,0-18.123-8.121-18.123-18.133l0,0
			c0-10.021,8.115-18.133,18.123-18.133h64.443C747.526,872.259,755.641,880.369,755.641,890.392L755.641,890.392z"/>
	</g>
	<g>
		<rect x="15.738" y="191.662" fill="#91CBCE" width="955.583" height="8.419"/>
		<path fill="#91CBCE" d="M580.438,195.872c0,10.015-8.111,18.132-18.123,18.132h-64.439c-10.012,0-18.122-8.117-18.122-18.132l0,0
			c0-10.018,8.109-18.135,18.122-18.135h64.439C572.327,177.739,580.438,185.856,580.438,195.872L580.438,195.872z"/>
		<path fill="#91CBCE" d="M135.378,195.872c0,10.015-8.112,18.132-18.118,18.132H52.814c-10.011,0-18.127-8.117-18.127-18.132l0,0
			c0-10.018,8.116-18.135,18.127-18.135h64.446C127.266,177.739,135.378,185.856,135.378,195.872L135.378,195.872z"/>
	</g>
</g>
<g>
	<g>
		<path fill="#FFFFFF" d="M820.44,369.42l-2.572-17.387l-1.605-17.508l-3.711-2.409c0,0-6.299,0.896-15.084,2.156l-0.211-1.772
			c0,0,4.271-0.305,3.902-3.398c-0.371-3.096-2.455-4.312-6.492-3.829c-4.035,0.483-5.516,2.545-5.193,5.229
			c0.32,2.683,4.832,2.56,4.832,2.56l0.197,1.642c-5.893,0.847-12.617,1.817-19.211,2.775l-0.275-2.312c0,0,4.275-0.305,3.904-3.399
			s-2.457-4.312-6.492-3.828c-4.039,0.483-5.518,2.544-5.197,5.229c0.322,2.684,4.838,2.561,4.838,2.561l0.262,2.187
			c-7.174,1.047-14,2.052-19.201,2.839l-0.352-2.921c0,0,4.271-0.306,3.902-3.4c-0.373-3.095-2.455-4.312-6.492-3.828
			c-4.037,0.484-5.514,2.544-5.191,5.229c0.32,2.684,4.832,2.561,4.832,2.561l0.336,2.813c-0.996,0.153-1.902,0.297-2.699,0.424
			c-14.566,2.312-18.031,6.727-18.031,6.727l-191.836,18.979c0,0-13.375-92.595-72.792-50.083
			c-59.421,42.513-40.383-22.566-119.176-13.129c-78.798,9.438-64.211,112.167-64.211,112.167s10.086,103.265,88.883,93.826
			c78.793-9.438,44.927-68.179,112.704-40.903c67.778,27.278,58.907-65.856,58.907-65.856l190.891-26.858
			c0,0,4.41,3.469,19.111,2.278c0.805-0.063,1.719-0.143,2.725-0.229l0.336,2.813c0,0-4.41,0.946-4.092,3.633
			c0.32,2.685,2.244,4.337,6.281,3.853c4.037-0.483,5.773-2.157,5.402-5.253c-0.371-3.097-4.594-2.381-4.594-2.381l-0.35-2.925
			c5.24-0.462,12.113-1.098,19.33-1.772l0.26,2.184c0,0-4.416,0.945-4.094,3.632c0.322,2.685,2.246,4.338,6.285,3.854
			c4.033-0.482,5.773-2.158,5.402-5.254s-4.598-2.379-4.598-2.379l-0.279-2.317c6.639-0.624,13.396-1.271,19.322-1.837l0.199,1.641
			c0,0-4.416,0.944-4.094,3.63c0.322,2.685,2.246,4.337,6.283,3.854c4.035-0.483,5.773-2.156,5.402-5.253s-4.594-2.38-4.594-2.38
			l-0.213-1.777c8.834-0.847,15.166-1.465,15.166-1.465L820.44,369.42z M455.726,428.334c-18.845,0-34.12-15.275-34.12-34.119
			c0-18.843,15.275-34.12,34.12-34.12c18.844,0,34.119,15.277,34.119,34.12C489.845,413.059,474.57,428.334,455.726,428.334z"/>
	</g>
	<g>
		
			<line fill="none" stroke="#FFFFFF" stroke-width="3" stroke-miterlimit="10" x1="349.666" y1="388.634" x2="564.468" y2="366.276"/>
		
			<line fill="none" stroke="#FFFFFF" stroke-width="3" stroke-miterlimit="10" x1="350.511" y1="396.763" x2="572.552" y2="373.652"/>
		<line fill="none" stroke="#FFFFFF" stroke-width="3" stroke-miterlimit="10" x1="344.223" y1="406.662" x2="554.2" y2="384.807"/>
		
			<line fill="none" stroke="#FFFFFF" stroke-width="3" stroke-miterlimit="10" x1="342.656" y1="415.043" x2="538.149" y2="394.695"/>
		
			<line fill="none" stroke="#FFFFFF" stroke-width="3" stroke-miterlimit="10" x1="343.608" y1="424.19" x2="551.169" y2="402.584"/>
	</g>
</g>
<rect x="90.312" y="515.314" fill="none" width="812" height="188"/>
<text transform="matrix(1 0 0 1 104.4163 626.7122)" fill="#FFFFFF" font-family="'SantaFeLetPlain'" font-size="200">Instrumental</text>
</svg>
